<svg xmlns="http://www.w3.org/2000/svg" xmlns:xlink="http://www.w3.org/1999/xlink" width="150" zoomAndPan="magnify" viewBox="0 0 112.5 104.999996" height="140" preserveAspectRatio="xMidYMid meet" version="1.0"><defs><clipPath id="66258c7eb1"><path d="M 10.5 0.230469 L 95 0.230469 L 95 104.765625 L 10.5 104.765625 Z M 10.5 0.230469 " clip-rule="nonzero"/></clipPath></defs><g clip-path="url(#66258c7eb1)"><path fill="#ffffff" d="M 79.285156 77.898438 C 79.164062 76.457031 79.542969 75.160156 80.421875 74.011719 C 93.941406 56.429688 98.148438 36.882812 91.683594 21.726562 C 86.441406 9.449219 73.007812 0.949219 58.25 0.578125 C 46.5625 0.269531 35.246094 4.375 27.25 11.808594 C 20.621094 17.972656 14.402344 29.242188 16.414062 39.417969 C 16.609375 40.308594 16.855469 41.191406 17.152344 42.058594 C 17.8125 44.128906 18.4375 46.082031 17.5625 47.566406 C 17.550781 47.585938 17.550781 47.582031 12.082031 57.132812 C 11.011719 58.5 10.503906 60.046875 10.558594 61.78125 C 10.839844 65.484375 14.238281 66.246094 16.269531 66.703125 C 16.507812 66.757812 16.742188 66.808594 16.96875 66.863281 C 17.1875 66.910156 17.398438 66.976562 17.605469 67.058594 C 17.667969 68.003906 17.550781 68.925781 17.257812 69.828125 C 17.09375 70.316406 16.367188 72.808594 18.082031 73.910156 C 18.121094 73.9375 18.164062 73.964844 18.210938 73.984375 C 18.652344 74.238281 18.765625 74.707031 18.546875 75.378906 C 18.296875 75.894531 18.164062 76.441406 18.15625 77.015625 C 18.148438 77.589844 18.257812 78.140625 18.496094 78.664062 C 18.867188 79.300781 19.414062 79.691406 20.136719 79.835938 C 20.316406 79.9375 20.621094 80.160156 20.566406 80.460938 C 19.316406 84.617188 19.519531 89.929688 23.820312 92.453125 C 27.253906 94.464844 31.433594 94.042969 35.117188 93.671875 C 36.210938 93.5625 37.242188 93.457031 38.203125 93.417969 C 38.253906 93.417969 38.308594 93.414062 38.363281 93.40625 C 39.359375 93.234375 40.347656 93.277344 41.328125 93.535156 C 41.664062 94.019531 45.222656 99.214844 44.785156 104.191406 C 44.765625 104.410156 44.789062 104.621094 44.855469 104.832031 C 44.921875 105.039062 45.023438 105.226562 45.164062 105.394531 C 45.304688 105.5625 45.472656 105.695312 45.667969 105.796875 C 45.859375 105.898438 46.066406 105.957031 46.285156 105.976562 C 46.332031 105.980469 46.382812 105.980469 46.429688 105.980469 C 46.636719 105.980469 46.835938 105.945312 47.027344 105.871094 C 47.21875 105.796875 47.390625 105.6875 47.542969 105.550781 C 47.695312 105.410156 47.816406 105.25 47.910156 105.0625 C 48 104.878906 48.054688 104.683594 48.074219 104.480469 C 48.636719 98.070312 44.164062 91.828125 44.003906 91.609375 C 42.734375 89.738281 39.441406 89.9375 37.992188 90.132812 C 36.957031 90.175781 35.902344 90.28125 34.785156 90.394531 C 31.445312 90.730469 27.992188 91.078125 25.492188 89.613281 C 22.046875 87.59375 23.429688 82.386719 23.738281 81.363281 C 23.75 81.335938 23.757812 81.308594 23.761719 81.28125 C 23.863281 80.839844 23.886719 80.394531 23.832031 79.941406 C 23.777344 79.492188 23.648438 79.0625 23.441406 78.660156 C 23.238281 78.253906 22.972656 77.894531 22.640625 77.582031 C 22.3125 77.269531 21.9375 77.023438 21.523438 76.839844 C 21.542969 76.769531 21.570312 76.703125 21.59375 76.648438 C 21.613281 76.601562 21.632812 76.554688 21.648438 76.507812 C 21.835938 76.066406 21.945312 75.609375 21.976562 75.132812 C 22.007812 74.65625 21.964844 74.183594 21.839844 73.722656 C 21.714844 73.261719 21.519531 72.832031 21.253906 72.433594 C 20.984375 72.039062 20.660156 71.695312 20.28125 71.40625 C 20.300781 71.21875 20.339844 71.035156 20.394531 70.851562 C 20.847656 69.472656 21.007812 68.054688 20.878906 66.609375 C 20.644531 64.371094 18.542969 63.859375 17.753906 63.664062 C 17.507812 63.605469 17.25 63.546875 16.992188 63.488281 C 14.671875 62.96875 13.933594 62.628906 13.851562 61.53125 C 13.863281 60.589844 14.171875 59.757812 14.78125 59.035156 C 14.824219 58.980469 14.863281 58.917969 14.898438 58.855469 C 14.898438 58.855469 20.359375 49.324219 20.402344 49.25 C 22.03125 46.484375 21.070312 43.472656 20.292969 41.054688 C 20.039062 40.308594 19.824219 39.546875 19.652344 38.777344 C 17.882812 29.839844 23.519531 19.78125 29.5 14.21875 C 36.867188 7.367188 47.332031 3.613281 58.167969 3.871094 C 71.65625 4.210938 83.902344 11.90625 88.644531 23.015625 C 94.640625 37.066406 90.589844 55.378906 77.804688 72.007812 C 77.128906 72.886719 76.636719 73.855469 76.324219 74.917969 C 76.011719 75.980469 75.902344 77.0625 75.996094 78.167969 C 76.492188 85.199219 78.09375 91.972656 80.800781 98.484375 C 80.886719 98.683594 81.007812 98.859375 81.164062 99.011719 C 81.320312 99.164062 81.5 99.28125 81.703125 99.359375 C 81.90625 99.441406 82.117188 99.480469 82.335938 99.476562 C 82.554688 99.472656 82.765625 99.429688 82.964844 99.34375 C 83.164062 99.257812 83.34375 99.136719 83.496094 98.980469 C 83.648438 98.824219 83.765625 98.644531 83.847656 98.441406 C 83.925781 98.238281 83.96875 98.03125 83.964844 97.8125 C 83.960938 97.59375 83.917969 97.382812 83.832031 97.183594 C 81.269531 91 79.753906 84.574219 79.285156 77.898438 Z M 79.285156 77.898438 " fill-opacity="1" fill-rule="nonzero"/></g><path fill="#ffffff" d="M 77.398438 53.878906 C 77.40625 52.746094 77.011719 51.777344 76.210938 50.972656 L 74.476562 49.242188 C 75.320312 47.734375 75.980469 46.152344 76.449219 44.492188 L 78.902344 44.492188 C 79.191406 44.480469 79.476562 44.4375 79.757812 44.371094 C 80.042969 44.304688 80.316406 44.210938 80.578125 44.089844 C 80.84375 43.96875 81.09375 43.820312 81.328125 43.652344 C 81.5625 43.480469 81.777344 43.289062 81.976562 43.078125 C 82.175781 42.863281 82.347656 42.632812 82.5 42.386719 C 82.652344 42.140625 82.78125 41.882812 82.882812 41.609375 C 82.984375 41.339844 83.058594 41.058594 83.105469 40.773438 C 83.152344 40.488281 83.167969 40.199219 83.160156 39.910156 L 83.160156 36.988281 C 83.167969 36.699219 83.152344 36.410156 83.105469 36.125 C 83.058594 35.835938 82.984375 35.558594 82.882812 35.285156 C 82.78125 35.015625 82.652344 34.753906 82.5 34.507812 C 82.347656 34.261719 82.175781 34.03125 81.976562 33.820312 C 81.777344 33.605469 81.5625 33.414062 81.328125 33.246094 C 81.09375 33.074219 80.84375 32.929688 80.578125 32.808594 C 80.316406 32.6875 80.042969 32.59375 79.757812 32.523438 C 79.476562 32.457031 79.191406 32.417969 78.902344 32.40625 L 77.128906 32.40625 C 77.296875 32.910156 77.382812 33.429688 77.382812 33.964844 C 77.382812 34.550781 77.351562 35.128906 77.308594 35.699219 L 78.902344 35.699219 C 79.421875 35.699219 79.859375 36.289062 79.859375 36.988281 L 79.859375 39.910156 C 79.859375 40.605469 79.421875 41.195312 78.902344 41.195312 L 76.121094 41.195312 C 74.984375 44.34375 73.195312 47.066406 70.757812 49.359375 C 70.714844 49.867188 70.875 50.300781 71.234375 50.660156 L 73.878906 53.304688 C 74.03125 53.464844 74.105469 53.65625 74.097656 53.878906 C 74.082031 54.277344 73.933594 54.613281 73.644531 54.886719 L 71.570312 56.953125 C 71.378906 57.195312 71.128906 57.335938 70.824219 57.378906 C 70.519531 57.425781 70.238281 57.359375 69.988281 57.183594 L 67.335938 54.542969 C 67.0625 54.273438 66.734375 54.113281 66.351562 54.074219 C 65.964844 54.03125 65.609375 54.113281 65.285156 54.320312 C 63.390625 55.53125 61.347656 56.378906 59.152344 56.859375 C 58.773438 56.941406 58.460938 57.132812 58.21875 57.433594 C 57.976562 57.734375 57.855469 58.082031 57.855469 58.46875 L 57.855469 62.195312 C 57.855469 62.714844 57.265625 63.15625 56.570312 63.15625 L 53.636719 63.15625 C 52.941406 63.15625 52.351562 62.714844 52.351562 62.195312 L 52.351562 58.46875 C 52.351562 58.078125 52.230469 57.734375 51.988281 57.433594 C 51.746094 57.132812 51.433594 56.941406 51.054688 56.859375 C 48.859375 56.375 46.8125 55.53125 44.917969 54.320312 C 44.59375 54.113281 44.238281 54.03125 43.851562 54.074219 C 43.46875 54.113281 43.140625 54.273438 42.867188 54.542969 L 40.21875 57.183594 C 39.964844 57.359375 39.6875 57.425781 39.382812 57.378906 C 39.078125 57.335938 38.828125 57.195312 38.636719 56.957031 L 36.5625 54.886719 C 36.324219 54.691406 36.179688 54.445312 36.132812 54.140625 C 36.089844 53.835938 36.152344 53.554688 36.328125 53.300781 L 38.976562 50.660156 C 39.25 50.386719 39.410156 50.058594 39.453125 49.671875 C 39.492188 49.289062 39.410156 48.933594 39.199219 48.605469 C 37.984375 46.722656 37.136719 44.683594 36.65625 42.492188 C 36.574219 42.113281 36.382812 41.800781 36.082031 41.558594 C 35.777344 41.316406 35.433594 41.195312 35.046875 41.195312 L 31.304688 41.195312 C 30.785156 41.195312 30.347656 40.605469 30.347656 39.910156 L 30.347656 36.988281 C 30.347656 36.289062 30.785156 35.699219 31.304688 35.699219 L 35.046875 35.699219 C 35.433594 35.699219 35.777344 35.578125 36.082031 35.335938 C 36.382812 35.09375 36.574219 34.785156 36.65625 34.40625 C 37.136719 32.214844 37.984375 30.175781 39.199219 28.289062 C 39.410156 27.960938 39.492188 27.605469 39.453125 27.222656 C 39.410156 26.835938 39.25 26.507812 38.976562 26.234375 L 36.332031 23.601562 C 36.15625 23.347656 36.089844 23.066406 36.132812 22.761719 C 36.179688 22.453125 36.320312 22.203125 36.5625 22.011719 L 38.632812 19.945312 C 38.824219 19.703125 39.074219 19.5625 39.378906 19.515625 C 39.683594 19.46875 39.964844 19.535156 40.21875 19.707031 L 42.863281 22.351562 C 43.136719 22.625 43.46875 22.785156 43.851562 22.824219 C 44.238281 22.867188 44.59375 22.785156 44.921875 22.578125 C 46.8125 21.363281 48.855469 20.519531 51.050781 20.039062 C 51.433594 19.957031 51.742188 19.761719 51.988281 19.460938 C 52.230469 19.160156 52.351562 18.816406 52.351562 18.429688 L 52.351562 14.699219 C 52.351562 14.179688 52.941406 13.738281 53.636719 13.738281 L 56.570312 13.738281 C 57.265625 13.738281 57.855469 14.179688 57.855469 14.699219 L 57.855469 18.429688 C 57.855469 18.816406 57.976562 19.160156 58.21875 19.460938 C 58.464844 19.765625 58.773438 19.957031 59.15625 20.039062 C 61.347656 20.515625 63.390625 21.363281 65.28125 22.574219 C 65.609375 22.785156 65.964844 22.867188 66.347656 22.828125 C 66.734375 22.785156 67.066406 22.625 67.339844 22.351562 L 69.988281 19.710938 C 70.238281 19.535156 70.519531 19.46875 70.824219 19.515625 C 71.128906 19.558594 71.378906 19.703125 71.570312 19.945312 L 73.644531 22.011719 C 73.933594 22.285156 74.082031 22.617188 74.097656 23.015625 C 74.105469 23.238281 74.03125 23.433594 73.875 23.597656 L 71.234375 26.234375 C 70.960938 26.507812 70.800781 26.835938 70.761719 27.222656 C 70.71875 27.605469 70.800781 27.960938 71.011719 28.289062 C 71.183594 28.558594 71.332031 28.835938 71.492188 29.113281 C 72.246094 28.964844 73 28.992188 73.742188 29.199219 C 74.484375 29.402344 75.144531 29.761719 75.71875 30.277344 C 75.363281 29.375 74.949219 28.5 74.476562 27.65625 L 76.207031 25.925781 C 77.011719 25.121094 77.40625 24.152344 77.398438 23.015625 C 77.382812 21.710938 76.910156 20.597656 75.976562 19.679688 L 73.90625 17.613281 C 73.707031 17.402344 73.492188 17.210938 73.253906 17.042969 C 73.019531 16.871094 72.769531 16.726562 72.503906 16.605469 C 72.242188 16.488281 71.96875 16.394531 71.6875 16.324219 C 71.402344 16.257812 71.117188 16.21875 70.828125 16.210938 C 70.539062 16.199219 70.25 16.214844 69.960938 16.261719 C 69.675781 16.308594 69.398438 16.378906 69.125 16.480469 C 68.851562 16.582031 68.59375 16.707031 68.34375 16.859375 C 68.097656 17.011719 67.867188 17.183594 67.652344 17.378906 L 65.914062 19.113281 C 64.40625 18.269531 62.820312 17.613281 61.15625 17.144531 L 61.15625 14.699219 C 61.144531 14.410156 61.105469 14.125 61.035156 13.84375 C 60.96875 13.558594 60.875 13.289062 60.753906 13.023438 C 60.632812 12.761719 60.488281 12.511719 60.316406 12.277344 C 60.148438 12.042969 59.957031 11.824219 59.742188 11.628906 C 59.53125 11.429688 59.300781 11.253906 59.054688 11.101562 C 58.804688 10.953125 58.546875 10.824219 58.273438 10.722656 C 58.003906 10.621094 57.722656 10.546875 57.4375 10.5 C 57.148438 10.453125 56.863281 10.4375 56.570312 10.445312 L 53.636719 10.445312 C 53.347656 10.4375 53.058594 10.453125 52.773438 10.5 C 52.484375 10.546875 52.207031 10.621094 51.933594 10.722656 C 51.664062 10.824219 51.402344 10.949219 51.15625 11.101562 C 50.910156 11.253906 50.679688 11.429688 50.464844 11.628906 C 50.253906 11.824219 50.0625 12.039062 49.890625 12.277344 C 49.722656 12.511719 49.574219 12.761719 49.453125 13.023438 C 49.332031 13.285156 49.238281 13.558594 49.171875 13.84375 C 49.101562 14.125 49.0625 14.410156 49.050781 14.699219 L 49.050781 17.144531 C 47.386719 17.613281 45.800781 18.273438 44.289062 19.117188 L 42.554688 17.378906 C 42.339844 17.183594 42.109375 17.007812 41.859375 16.859375 C 41.613281 16.707031 41.355469 16.582031 41.082031 16.480469 C 40.808594 16.378906 40.53125 16.308594 40.242188 16.261719 C 39.957031 16.214844 39.667969 16.199219 39.378906 16.210938 C 39.089844 16.222656 38.800781 16.261719 38.519531 16.328125 C 38.238281 16.394531 37.964844 16.488281 37.699219 16.609375 C 37.4375 16.726562 37.1875 16.871094 36.949219 17.042969 C 36.714844 17.210938 36.5 17.402344 36.300781 17.613281 L 34.226562 19.683594 C 34.015625 19.878906 33.824219 20.097656 33.65625 20.332031 C 33.488281 20.566406 33.34375 20.816406 33.222656 21.082031 C 33.101562 21.34375 33.007812 21.617188 32.941406 21.898438 C 32.875 22.183594 32.835938 22.46875 32.824219 22.757812 C 32.8125 23.046875 32.832031 23.335938 32.878906 23.621094 C 32.921875 23.90625 32.996094 24.1875 33.097656 24.457031 C 33.195312 24.730469 33.324219 24.988281 33.472656 25.238281 C 33.625 25.484375 33.800781 25.714844 33.996094 25.929688 L 35.730469 27.65625 C 34.886719 29.164062 34.230469 30.746094 33.757812 32.40625 L 31.304688 32.40625 C 31.015625 32.417969 30.730469 32.457031 30.449219 32.523438 C 30.164062 32.59375 29.890625 32.6875 29.628906 32.808594 C 29.363281 32.929688 29.113281 33.074219 28.878906 33.246094 C 28.644531 33.414062 28.429688 33.605469 28.230469 33.820312 C 28.03125 34.03125 27.859375 34.261719 27.707031 34.507812 C 27.554688 34.753906 27.425781 35.015625 27.324219 35.285156 C 27.222656 35.558594 27.148438 35.835938 27.101562 36.125 C 27.054688 36.410156 27.039062 36.699219 27.046875 36.988281 L 27.046875 39.910156 C 27.039062 40.199219 27.054688 40.488281 27.101562 40.773438 C 27.148438 41.058594 27.222656 41.339844 27.324219 41.609375 C 27.425781 41.882812 27.554688 42.140625 27.707031 42.386719 C 27.859375 42.632812 28.03125 42.863281 28.230469 43.078125 C 28.429688 43.289062 28.644531 43.480469 28.878906 43.652344 C 29.113281 43.820312 29.363281 43.96875 29.628906 44.089844 C 29.890625 44.210938 30.164062 44.304688 30.449219 44.371094 C 30.730469 44.4375 31.015625 44.480469 31.304688 44.492188 L 33.757812 44.492188 C 34.230469 46.152344 34.886719 47.734375 35.730469 49.238281 L 33.992188 50.972656 C 33.796875 51.1875 33.621094 51.417969 33.472656 51.664062 C 33.320312 51.910156 33.195312 52.171875 33.09375 52.441406 C 32.992188 52.714844 32.921875 52.992188 32.875 53.277344 C 32.828125 53.566406 32.8125 53.851562 32.824219 54.140625 C 32.832031 54.429688 32.871094 54.71875 32.941406 55 C 33.007812 55.28125 33.101562 55.554688 33.222656 55.816406 C 33.339844 56.082031 33.488281 56.328125 33.65625 56.566406 C 33.824219 56.800781 34.015625 57.015625 34.226562 57.214844 L 36.300781 59.289062 C 36.5 59.5 36.71875 59.6875 36.953125 59.855469 C 37.191406 60.027344 37.441406 60.171875 37.703125 60.289062 C 37.96875 60.410156 38.242188 60.503906 38.523438 60.570312 C 38.804688 60.636719 39.089844 60.675781 39.382812 60.683594 C 39.671875 60.695312 39.960938 60.675781 40.246094 60.632812 C 40.53125 60.585938 40.8125 60.511719 41.082031 60.414062 C 41.355469 60.3125 41.613281 60.1875 41.863281 60.035156 C 42.109375 59.882812 42.339844 59.710938 42.554688 59.515625 L 44.289062 57.78125 C 45.800781 58.625 47.386719 59.28125 49.050781 59.75 L 49.050781 62.195312 C 49.0625 62.484375 49.101562 62.773438 49.171875 63.054688 C 49.238281 63.335938 49.332031 63.609375 49.453125 63.871094 C 49.574219 64.136719 49.722656 64.382812 49.890625 64.621094 C 50.0625 64.855469 50.253906 65.070312 50.464844 65.269531 C 50.679688 65.464844 50.910156 65.640625 51.15625 65.792969 C 51.402344 65.945312 51.664062 66.070312 51.933594 66.171875 C 52.207031 66.273438 52.484375 66.347656 52.773438 66.394531 C 53.058594 66.441406 53.347656 66.460938 53.636719 66.449219 L 56.570312 66.449219 C 56.863281 66.460938 57.148438 66.441406 57.4375 66.394531 C 57.722656 66.347656 58.003906 66.273438 58.273438 66.171875 C 58.546875 66.070312 58.804688 65.945312 59.054688 65.792969 C 59.300781 65.640625 59.53125 65.464844 59.742188 65.269531 C 59.957031 65.070312 60.148438 64.855469 60.316406 64.621094 C 60.488281 64.382812 60.632812 64.136719 60.753906 63.871094 C 60.875 63.609375 60.96875 63.335938 61.035156 63.054688 C 61.105469 62.773438 61.144531 62.484375 61.15625 62.195312 L 61.15625 59.75 C 62.820312 59.28125 64.40625 58.625 65.914062 57.78125 L 67.652344 59.515625 C 67.867188 59.710938 68.097656 59.882812 68.34375 60.035156 C 68.59375 60.1875 68.851562 60.3125 69.125 60.414062 C 69.394531 60.511719 69.675781 60.585938 69.960938 60.632812 C 70.25 60.679688 70.535156 60.695312 70.828125 60.683594 C 71.117188 60.675781 71.402344 60.636719 71.683594 60.570312 C 71.96875 60.503906 72.238281 60.410156 72.503906 60.289062 C 72.769531 60.167969 73.019531 60.023438 73.253906 59.855469 C 73.488281 59.6875 73.707031 59.496094 73.90625 59.285156 L 75.976562 57.214844 C 76.910156 56.296875 77.382812 55.1875 77.398438 53.878906 Z M 77.398438 53.878906 " fill-opacity="1" fill-rule="nonzero"/><path fill="#ffffff" d="M 54.925781 33.878906 C 55.144531 33.878906 55.355469 33.835938 55.558594 33.753906 C 55.757812 33.667969 55.9375 33.550781 56.09375 33.394531 C 56.246094 33.242188 56.367188 33.0625 56.449219 32.859375 C 56.535156 32.660156 56.574219 32.449219 56.574219 32.230469 C 56.574219 32.011719 56.535156 31.800781 56.449219 31.601562 C 56.367188 31.398438 56.246094 31.21875 56.09375 31.066406 C 55.9375 30.910156 55.757812 30.792969 55.558594 30.707031 C 55.355469 30.625 55.144531 30.582031 54.925781 30.582031 C 54.546875 30.585938 54.167969 30.628906 53.796875 30.707031 C 53.425781 30.785156 53.0625 30.898438 52.714844 31.046875 C 52.363281 31.199219 52.03125 31.378906 51.71875 31.59375 C 51.40625 31.808594 51.113281 32.050781 50.847656 32.320312 C 50.582031 32.59375 50.34375 32.886719 50.136719 33.207031 C 49.929688 33.523438 49.753906 33.859375 49.609375 34.210938 C 49.46875 34.5625 49.363281 34.925781 49.292969 35.300781 C 49.21875 35.671875 49.1875 36.050781 49.191406 36.429688 C 49.1875 36.875 49.226562 37.320312 49.308594 37.761719 C 49.390625 38.199219 49.515625 38.628906 49.683594 39.042969 C 49.851562 39.460938 50.058594 39.855469 50.304688 40.230469 C 50.550781 40.605469 50.828125 40.953125 51.140625 41.273438 C 51.457031 41.589844 51.796875 41.878906 52.167969 42.128906 C 52.539062 42.382812 52.929688 42.597656 53.339844 42.773438 C 53.753906 42.949219 54.179688 43.085938 54.617188 43.175781 C 55.054688 43.269531 55.5 43.316406 55.949219 43.324219 C 56.480469 43.316406 57.007812 43.257812 57.53125 43.148438 C 58.050781 43.039062 58.558594 42.878906 59.050781 42.667969 C 59.539062 42.457031 60.003906 42.203125 60.445312 41.902344 C 60.882812 41.601562 61.292969 41.257812 61.664062 40.878906 C 62.035156 40.496094 62.367188 40.085938 62.660156 39.636719 C 62.953125 39.191406 63.195312 38.722656 63.394531 38.226562 C 63.59375 37.734375 63.742188 37.222656 63.84375 36.699219 C 63.941406 36.175781 63.988281 35.648438 63.980469 35.117188 C 63.988281 34.476562 63.933594 33.84375 63.816406 33.214844 C 63.695312 32.589844 63.519531 31.976562 63.28125 31.386719 C 63.042969 30.792969 62.75 30.226562 62.398438 29.691406 C 62.050781 29.15625 61.652344 28.660156 61.207031 28.203125 C 60.757812 27.746094 60.269531 27.339844 59.742188 26.976562 C 59.214844 26.617188 58.65625 26.308594 58.070312 26.058594 C 57.480469 25.804688 56.875 25.613281 56.25 25.480469 C 55.625 25.347656 54.992188 25.277344 54.351562 25.269531 C 53.578125 25.28125 52.816406 25.367188 52.058594 25.527344 C 51.304688 25.6875 50.570312 25.917969 49.859375 26.222656 C 49.152344 26.527344 48.476562 26.898438 47.839844 27.335938 C 47.203125 27.773438 46.617188 28.265625 46.078125 28.816406 C 45.535156 29.371094 45.054688 29.96875 44.632812 30.617188 C 44.214844 31.261719 43.859375 31.945312 43.570312 32.660156 C 43.285156 33.375 43.070312 34.113281 42.925781 34.871094 C 42.785156 35.628906 42.71875 36.394531 42.726562 37.167969 C 42.714844 38.105469 42.796875 39.035156 42.96875 39.953125 C 43.140625 40.875 43.402344 41.773438 43.75 42.640625 C 44.101562 43.511719 44.53125 44.339844 45.042969 45.125 C 45.554688 45.910156 46.136719 46.640625 46.792969 47.3125 C 47.449219 47.980469 48.164062 48.582031 48.9375 49.113281 C 49.710938 49.644531 50.527344 50.09375 51.390625 50.464844 C 52.253906 50.835938 53.144531 51.117188 54.0625 51.3125 C 54.980469 51.507812 55.90625 51.613281 56.847656 51.625 C 66.351562 51.625 74.082031 43.703125 74.082031 33.964844 C 74.082031 33.746094 74.039062 33.535156 73.957031 33.332031 C 73.875 33.132812 73.753906 32.953125 73.597656 32.796875 C 73.445312 32.644531 73.265625 32.523438 73.0625 32.441406 C 72.863281 32.359375 72.652344 32.316406 72.433594 32.316406 C 72.214844 32.316406 72.003906 32.359375 71.800781 32.441406 C 71.597656 32.523438 71.421875 32.644531 71.265625 32.796875 C 71.109375 32.953125 70.992188 33.132812 70.90625 33.332031 C 70.824219 33.535156 70.78125 33.746094 70.78125 33.964844 C 70.78125 41.886719 64.53125 48.332031 56.847656 48.332031 C 56.125 48.316406 55.410156 48.234375 54.703125 48.082031 C 54 47.929688 53.316406 47.710938 52.652344 47.421875 C 51.992188 47.132812 51.363281 46.785156 50.769531 46.375 C 50.175781 45.964844 49.628906 45.5 49.125 44.980469 C 48.625 44.464844 48.175781 43.902344 47.785156 43.296875 C 47.394531 42.691406 47.066406 42.050781 46.800781 41.382812 C 46.535156 40.710938 46.335938 40.019531 46.207031 39.3125 C 46.074219 38.601562 46.015625 37.886719 46.027344 37.167969 C 46.019531 36.613281 46.0625 36.0625 46.164062 35.515625 C 46.261719 34.96875 46.414062 34.4375 46.621094 33.921875 C 46.824219 33.402344 47.078125 32.914062 47.378906 32.445312 C 47.679688 31.980469 48.023438 31.546875 48.410156 31.148438 C 48.796875 30.746094 49.21875 30.390625 49.671875 30.074219 C 50.128906 29.757812 50.613281 29.488281 51.125 29.265625 C 51.632812 29.046875 52.160156 28.875 52.703125 28.757812 C 53.246094 28.640625 53.796875 28.574219 54.351562 28.566406 C 54.773438 28.574219 55.191406 28.621094 55.605469 28.710938 C 56.019531 28.800781 56.421875 28.933594 56.808594 29.101562 C 57.195312 29.269531 57.5625 29.476562 57.910156 29.714844 C 58.257812 29.957031 58.578125 30.230469 58.871094 30.535156 C 59.167969 30.839844 59.425781 31.167969 59.65625 31.523438 C 59.886719 31.878906 60.078125 32.253906 60.234375 32.644531 C 60.386719 33.039062 60.503906 33.441406 60.578125 33.859375 C 60.652344 34.273438 60.6875 34.695312 60.679688 35.117188 C 60.6875 35.433594 60.660156 35.746094 60.605469 36.058594 C 60.550781 36.371094 60.464844 36.671875 60.347656 36.96875 C 60.230469 37.261719 60.089844 37.542969 59.917969 37.808594 C 59.746094 38.074219 59.550781 38.320312 59.332031 38.550781 C 59.113281 38.777344 58.871094 38.980469 58.613281 39.164062 C 58.351562 39.34375 58.078125 39.496094 57.785156 39.625 C 57.496094 39.75 57.195312 39.847656 56.886719 39.917969 C 56.578125 39.984375 56.265625 40.023438 55.949219 40.027344 C 55.480469 40.019531 55.03125 39.917969 54.601562 39.730469 C 54.175781 39.542969 53.796875 39.28125 53.472656 38.941406 C 53.152344 38.605469 52.902344 38.21875 52.734375 37.785156 C 52.5625 37.347656 52.480469 36.894531 52.492188 36.429688 C 52.484375 36.097656 52.539062 35.78125 52.660156 35.472656 C 52.777344 35.164062 52.953125 34.890625 53.179688 34.652344 C 53.410156 34.410156 53.675781 34.226562 53.976562 34.089844 C 54.277344 33.957031 54.59375 33.886719 54.925781 33.878906 Z M 54.925781 33.878906 " fill-opacity="1" fill-rule="nonzero"/></svg>