<svg xmlns="http://www.w3.org/2000/svg" xmlns:xlink="http://www.w3.org/1999/xlink" width="150" zoomAndPan="magnify" viewBox="0 0 112.5 104.999996" height="140" preserveAspectRatio="xMidYMid meet" version="1.0"><defs><clipPath id="9179bc9294"><path d="M 10.421875 13.519531 L 101.921875 13.519531 L 101.921875 92.269531 L 10.421875 92.269531 Z M 10.421875 13.519531 " clip-rule="nonzero"/></clipPath></defs><g clip-path="url(#9179bc9294)"><path fill="#ffffff" d="M 71.410156 52.894531 C 71.410156 48.0625 67.511719 44.144531 62.703125 44.144531 C 57.890625 44.144531 53.996094 48.0625 53.996094 52.894531 C 53.996094 57.730469 57.890625 61.644531 62.703125 61.644531 C 67.511719 61.644531 71.410156 57.730469 71.410156 52.894531 Z M 62.703125 13.519531 C 41.066406 13.519531 23.523438 31.152344 23.523438 52.894531 L 10.460938 52.894531 L 27.875 70.394531 L 45.289062 52.894531 L 32.230469 52.894531 C 32.230469 35.984375 45.875 22.269531 62.703125 22.269531 C 79.527344 22.269531 93.175781 35.984375 93.175781 52.894531 C 93.175781 69.804688 79.527344 83.519531 62.703125 83.519531 C 56.109375 83.519531 50.035156 81.398438 45.027344 77.8125 L 38.867188 84.089844 C 45.484375 89.207031 53.734375 92.269531 62.703125 92.269531 C 84.339844 92.269531 101.882812 74.640625 101.882812 52.894531 C 101.882812 31.152344 84.339844 13.519531 62.703125 13.519531 Z M 62.703125 13.519531 " fill-opacity="1" fill-rule="nonzero"/></g></svg>