<svg xmlns="http://www.w3.org/2000/svg" xmlns:xlink="http://www.w3.org/1999/xlink" width="150" zoomAndPan="magnify" viewBox="0 0 112.5 104.999996" height="140" preserveAspectRatio="xMidYMid meet" version="1.0"><defs><clipPath id="1c51a216bf"><path d="M 0 69 L 112.003906 69 L 112.003906 104.765625 L 0 104.765625 Z M 0 69 " clip-rule="nonzero"/></clipPath><clipPath id="9a3b327913"><path d="M 29 0.230469 L 83 0.230469 L 83 46 L 29 46 Z M 29 0.230469 " clip-rule="nonzero"/></clipPath></defs><path fill="#ffffff" d="M 21.0625 67.097656 C 21.828125 67.097656 22.589844 67.019531 23.339844 66.871094 C 24.09375 66.722656 24.820312 66.5 25.53125 66.207031 C 26.238281 65.910156 26.910156 65.550781 27.546875 65.125 C 28.183594 64.699219 28.773438 64.214844 29.316406 63.671875 C 29.859375 63.128906 30.34375 62.539062 30.769531 61.898438 C 31.195312 61.261719 31.554688 60.585938 31.847656 59.878906 C 32.140625 59.167969 32.363281 58.4375 32.511719 57.683594 C 32.660156 56.933594 32.734375 56.171875 32.734375 55.402344 C 32.734375 54.636719 32.660156 53.875 32.511719 53.121094 C 32.363281 52.371094 32.140625 51.636719 31.847656 50.929688 C 31.554688 50.21875 31.195312 49.546875 30.769531 48.90625 C 30.34375 48.269531 29.859375 47.679688 29.316406 47.136719 C 28.773438 46.59375 28.183594 46.109375 27.546875 45.683594 C 26.910156 45.253906 26.238281 44.894531 25.53125 44.601562 C 24.820312 44.308594 24.09375 44.085938 23.339844 43.9375 C 22.589844 43.785156 21.828125 43.710938 21.0625 43.710938 C 20.296875 43.710938 19.539062 43.785156 18.785156 43.9375 C 18.035156 44.085938 17.304688 44.308594 16.597656 44.601562 C 15.890625 44.894531 15.214844 45.253906 14.578125 45.683594 C 13.941406 46.109375 13.351562 46.59375 12.808594 47.136719 C 12.269531 47.679688 11.785156 48.269531 11.359375 48.90625 C 10.933594 49.546875 10.574219 50.21875 10.28125 50.929688 C 9.988281 51.636719 9.765625 52.371094 9.617188 53.121094 C 9.464844 53.875 9.390625 54.636719 9.390625 55.402344 C 9.390625 56.171875 9.464844 56.933594 9.617188 57.683594 C 9.765625 58.4375 9.988281 59.167969 10.28125 59.878906 C 10.574219 60.585938 10.933594 61.261719 11.359375 61.898438 C 11.785156 62.539062 12.269531 63.128906 12.808594 63.671875 C 13.351562 64.214844 13.941406 64.699219 14.578125 65.125 C 15.214844 65.550781 15.890625 65.910156 16.597656 66.207031 C 17.304688 66.5 18.035156 66.722656 18.785156 66.871094 C 19.539062 67.019531 20.296875 67.097656 21.0625 67.097656 Z M 21.0625 47.609375 C 21.574219 47.609375 22.082031 47.660156 22.582031 47.757812 C 23.082031 47.859375 23.570312 48.007812 24.042969 48.203125 C 24.511719 48.398438 24.960938 48.636719 25.386719 48.921875 C 25.8125 49.207031 26.203125 49.53125 26.566406 49.890625 C 26.925781 50.253906 27.25 50.648438 27.535156 51.074219 C 27.816406 51.5 28.058594 51.949219 28.253906 52.421875 C 28.449219 52.894531 28.59375 53.382812 28.695312 53.882812 C 28.796875 54.386719 28.84375 54.890625 28.84375 55.402344 C 28.84375 55.914062 28.796875 56.421875 28.695312 56.925781 C 28.59375 57.425781 28.449219 57.914062 28.253906 58.386719 C 28.058594 58.859375 27.816406 59.308594 27.535156 59.734375 C 27.25 60.160156 26.925781 60.554688 26.566406 60.914062 C 26.203125 61.277344 25.8125 61.601562 25.386719 61.886719 C 24.960938 62.167969 24.511719 62.410156 24.042969 62.605469 C 23.570312 62.800781 23.082031 62.949219 22.582031 63.046875 C 22.082031 63.148438 21.574219 63.199219 21.0625 63.199219 C 20.550781 63.199219 20.046875 63.148438 19.546875 63.046875 C 19.042969 62.949219 18.558594 62.800781 18.085938 62.605469 C 17.613281 62.410156 17.164062 62.167969 16.742188 61.886719 C 16.316406 61.601562 15.921875 61.277344 15.5625 60.914062 C 15.199219 60.554688 14.878906 60.160156 14.59375 59.734375 C 14.308594 59.308594 14.070312 58.859375 13.875 58.386719 C 13.679688 57.914062 13.53125 57.425781 13.433594 56.925781 C 13.332031 56.421875 13.28125 55.914062 13.28125 55.402344 C 13.28125 54.890625 13.332031 54.386719 13.433594 53.882812 C 13.53125 53.382812 13.679688 52.894531 13.875 52.421875 C 14.070312 51.949219 14.308594 51.5 14.59375 51.074219 C 14.878906 50.648438 15.199219 50.253906 15.5625 49.890625 C 15.921875 49.53125 16.316406 49.207031 16.742188 48.921875 C 17.164062 48.636719 17.613281 48.398438 18.085938 48.203125 C 18.558594 48.007812 19.042969 47.859375 19.546875 47.757812 C 20.046875 47.660156 20.550781 47.609375 21.0625 47.609375 Z M 21.0625 47.609375 " fill-opacity="1" fill-rule="nonzero"/><path fill="#ffffff" d="M 91.09375 67.097656 C 91.859375 67.097656 92.621094 67.019531 93.371094 66.871094 C 94.125 66.722656 94.851562 66.5 95.5625 66.207031 C 96.269531 65.910156 96.941406 65.550781 97.578125 65.125 C 98.214844 64.699219 98.804688 64.214844 99.347656 63.671875 C 99.890625 63.128906 100.375 62.539062 100.800781 61.898438 C 101.226562 61.261719 101.585938 60.585938 101.878906 59.878906 C 102.171875 59.167969 102.394531 58.4375 102.542969 57.683594 C 102.691406 56.933594 102.765625 56.171875 102.765625 55.402344 C 102.765625 54.636719 102.691406 53.875 102.542969 53.121094 C 102.394531 52.371094 102.171875 51.636719 101.878906 50.929688 C 101.585938 50.21875 101.226562 49.546875 100.800781 48.90625 C 100.375 48.269531 99.890625 47.679688 99.347656 47.136719 C 98.804688 46.59375 98.214844 46.109375 97.578125 45.683594 C 96.941406 45.253906 96.269531 44.894531 95.5625 44.601562 C 94.851562 44.308594 94.125 44.085938 93.371094 43.9375 C 92.621094 43.785156 91.859375 43.710938 91.09375 43.710938 C 90.328125 43.710938 89.570312 43.785156 88.816406 43.9375 C 88.066406 44.085938 87.335938 44.308594 86.628906 44.601562 C 85.921875 44.894531 85.246094 45.253906 84.609375 45.683594 C 83.972656 46.109375 83.382812 46.59375 82.839844 47.136719 C 82.300781 47.679688 81.816406 48.269531 81.390625 48.90625 C 80.964844 49.546875 80.605469 50.21875 80.3125 50.929688 C 80.019531 51.636719 79.796875 52.371094 79.648438 53.121094 C 79.496094 53.875 79.421875 54.636719 79.421875 55.402344 C 79.421875 56.171875 79.496094 56.933594 79.648438 57.683594 C 79.796875 58.4375 80.019531 59.167969 80.3125 59.878906 C 80.605469 60.585938 80.964844 61.261719 81.390625 61.898438 C 81.816406 62.539062 82.300781 63.128906 82.839844 63.671875 C 83.382812 64.214844 83.972656 64.699219 84.609375 65.125 C 85.246094 65.550781 85.921875 65.910156 86.628906 66.207031 C 87.335938 66.5 88.066406 66.722656 88.816406 66.871094 C 89.570312 67.019531 90.328125 67.097656 91.09375 67.097656 Z M 91.09375 47.609375 C 91.605469 47.609375 92.113281 47.660156 92.613281 47.757812 C 93.113281 47.859375 93.601562 48.007812 94.074219 48.203125 C 94.542969 48.398438 94.992188 48.636719 95.417969 48.921875 C 95.84375 49.207031 96.234375 49.53125 96.597656 49.890625 C 96.957031 50.253906 97.28125 50.648438 97.566406 51.074219 C 97.847656 51.5 98.089844 51.949219 98.285156 52.421875 C 98.480469 52.894531 98.625 53.382812 98.726562 53.882812 C 98.828125 54.386719 98.875 54.890625 98.875 55.402344 C 98.875 55.914062 98.828125 56.421875 98.726562 56.925781 C 98.625 57.425781 98.480469 57.914062 98.285156 58.386719 C 98.089844 58.859375 97.847656 59.308594 97.566406 59.734375 C 97.28125 60.160156 96.957031 60.554688 96.597656 60.914062 C 96.234375 61.277344 95.84375 61.601562 95.417969 61.886719 C 94.992188 62.167969 94.542969 62.410156 94.074219 62.605469 C 93.601562 62.800781 93.113281 62.949219 92.613281 63.046875 C 92.113281 63.148438 91.605469 63.199219 91.09375 63.199219 C 90.582031 63.199219 90.078125 63.148438 89.578125 63.046875 C 89.074219 62.949219 88.589844 62.800781 88.117188 62.605469 C 87.644531 62.410156 87.195312 62.167969 86.773438 61.886719 C 86.347656 61.601562 85.953125 61.277344 85.59375 60.914062 C 85.230469 60.554688 84.910156 60.160156 84.625 59.734375 C 84.339844 59.308594 84.101562 58.859375 83.90625 58.386719 C 83.710938 57.914062 83.5625 57.425781 83.464844 56.925781 C 83.363281 56.421875 83.3125 55.914062 83.3125 55.402344 C 83.3125 54.890625 83.363281 54.386719 83.464844 53.882812 C 83.5625 53.382812 83.710938 52.894531 83.90625 52.421875 C 84.101562 51.949219 84.339844 51.5 84.625 51.074219 C 84.910156 50.648438 85.230469 50.253906 85.59375 49.890625 C 85.953125 49.53125 86.347656 49.207031 86.773438 48.921875 C 87.195312 48.636719 87.644531 48.398438 88.117188 48.203125 C 88.589844 48.007812 89.074219 47.859375 89.578125 47.757812 C 90.078125 47.660156 90.582031 47.609375 91.09375 47.609375 Z M 91.09375 47.609375 " fill-opacity="1" fill-rule="nonzero"/><g clip-path="url(#1c51a216bf)"><path fill="#ffffff" d="M 116.382812 102.171875 L 111.132812 102.171875 C 112.019531 101.027344 112.476562 99.726562 112.492188 98.273438 L 112.492188 80.738281 C 112.492188 74.285156 106.386719 69.042969 98.875 69.042969 L 83.3125 69.042969 C 76.582031 69.042969 70.980469 73.273438 69.910156 78.789062 L 61.914062 78.789062 C 61.28125 78.785156 60.769531 79.03125 60.378906 79.527344 C 59.988281 80.03125 59.871094 80.589844 60.027344 81.203125 L 65.261719 102.171875 L 46.898438 102.171875 L 52.1875 81.203125 C 52.34375 80.589844 52.226562 80.03125 51.839844 79.527344 C 51.429688 79.011719 50.898438 78.765625 50.242188 78.789062 L 42.25 78.789062 C 41.179688 73.273438 35.574219 69.042969 28.84375 69.042969 L 13.28125 69.042969 C 5.773438 69.042969 -0.335938 74.285156 -0.335938 80.738281 L -0.335938 98.273438 C -0.316406 99.726562 0.136719 101.027344 1.027344 102.171875 L -4.226562 102.171875 C -4.484375 102.171875 -4.730469 102.222656 -4.96875 102.320312 C -5.207031 102.417969 -5.417969 102.5625 -5.601562 102.742188 C -5.785156 102.925781 -5.925781 103.136719 -6.023438 103.375 C -6.121094 103.613281 -6.171875 103.863281 -6.171875 104.121094 C -6.171875 104.378906 -6.121094 104.628906 -6.023438 104.867188 C -5.925781 105.105469 -5.785156 105.316406 -5.601562 105.5 C -5.417969 105.683594 -5.207031 105.824219 -4.96875 105.921875 C -4.730469 106.019531 -4.484375 106.070312 -4.226562 106.070312 L 116.382812 106.070312 C 116.640625 106.070312 116.890625 106.019531 117.128906 105.921875 C 117.367188 105.824219 117.578125 105.683594 117.757812 105.5 C 117.941406 105.316406 118.082031 105.105469 118.179688 104.867188 C 118.28125 104.628906 118.328125 104.378906 118.328125 104.121094 C 118.328125 103.863281 118.28125 103.613281 118.179688 103.375 C 118.082031 103.136719 117.941406 102.925781 117.757812 102.742188 C 117.578125 102.5625 117.367188 102.417969 117.128906 102.320312 C 116.890625 102.222656 116.640625 102.171875 116.382812 102.171875 Z M 26.898438 102.171875 L 9.390625 102.171875 C 6.222656 102.171875 3.554688 100.378906 3.554688 98.273438 L 3.554688 80.738281 C 3.554688 76.429688 7.914062 72.941406 13.28125 72.941406 L 28.84375 72.941406 C 29.832031 72.882812 30.804688 72.976562 31.761719 73.222656 C 32.722656 73.464844 33.621094 73.851562 34.460938 74.375 C 35.300781 74.898438 36.039062 75.535156 36.683594 76.289062 C 37.324219 77.042969 37.835938 77.875 38.222656 78.789062 L 23.007812 78.789062 C 22.785156 78.78125 22.570312 78.8125 22.359375 78.878906 C 22.148438 78.949219 21.953125 79.050781 21.773438 79.183594 C 21.597656 79.320312 21.449219 79.480469 21.328125 79.664062 C 21.203125 79.851562 21.117188 80.054688 21.0625 80.269531 L 17.601562 94.378906 L 13.28125 94.378906 L 13.28125 88.53125 C 13.28125 88.273438 13.234375 88.023438 13.132812 87.785156 C 13.035156 87.546875 12.894531 87.335938 12.710938 87.152344 C 12.53125 86.972656 12.320312 86.832031 12.082031 86.730469 C 11.84375 86.632812 11.59375 86.582031 11.335938 86.582031 C 11.078125 86.582031 10.832031 86.632812 10.59375 86.730469 C 10.355469 86.832031 10.144531 86.972656 9.960938 87.152344 C 9.777344 87.335938 9.636719 87.546875 9.539062 87.785156 C 9.441406 88.023438 9.390625 88.273438 9.390625 88.53125 L 9.390625 96.328125 C 9.390625 96.585938 9.441406 96.832031 9.539062 97.070312 C 9.636719 97.3125 9.777344 97.523438 9.960938 97.703125 C 10.144531 97.886719 10.355469 98.027344 10.59375 98.125 C 10.832031 98.226562 11.078125 98.273438 11.335938 98.273438 L 32.40625 98.273438 C 32.203125 98.84375 31.921875 99.371094 31.554688 99.855469 C 31.191406 100.335938 30.765625 100.75 30.269531 101.101562 C 29.777344 101.449219 29.242188 101.714844 28.667969 101.898438 C 28.09375 102.082031 27.503906 102.171875 26.898438 102.171875 Z M 42.890625 102.171875 L 34.679688 102.171875 C 35.988281 100.445312 36.636719 98.496094 36.625 96.328125 C 36.625 96.066406 36.578125 95.820312 36.476562 95.582031 C 36.378906 95.34375 36.238281 95.132812 36.054688 94.949219 C 35.875 94.765625 35.664062 94.625 35.425781 94.527344 C 35.1875 94.425781 34.9375 94.378906 34.679688 94.378906 L 21.609375 94.378906 L 24.527344 82.683594 L 47.753906 82.683594 Z M 69.269531 102.171875 L 64.40625 82.683594 L 87.632812 82.683594 L 90.550781 94.378906 L 77.476562 94.378906 C 77.21875 94.378906 76.972656 94.425781 76.734375 94.527344 C 76.496094 94.625 76.285156 94.765625 76.101562 94.949219 C 75.917969 95.132812 75.777344 95.34375 75.679688 95.582031 C 75.582031 95.820312 75.53125 96.066406 75.53125 96.328125 C 75.519531 98.496094 76.167969 100.445312 77.476562 102.171875 Z M 108.601562 98.273438 C 108.601562 100.378906 105.9375 102.171875 102.765625 102.171875 L 85.257812 102.171875 C 84.65625 102.171875 84.066406 102.082031 83.492188 101.898438 C 82.914062 101.714844 82.378906 101.449219 81.886719 101.101562 C 81.394531 100.75 80.964844 100.335938 80.601562 99.855469 C 80.238281 99.371094 79.953125 98.84375 79.753906 98.273438 L 100.820312 98.273438 C 101.078125 98.273438 101.328125 98.226562 101.566406 98.125 C 101.804688 98.027344 102.015625 97.886719 102.195312 97.703125 C 102.378906 97.523438 102.519531 97.3125 102.617188 97.070312 C 102.71875 96.832031 102.765625 96.585938 102.765625 96.328125 L 102.765625 88.53125 C 102.765625 88.273438 102.71875 88.023438 102.617188 87.785156 C 102.519531 87.546875 102.378906 87.335938 102.195312 87.152344 C 102.015625 86.972656 101.804688 86.832031 101.566406 86.730469 C 101.328125 86.632812 101.078125 86.582031 100.820312 86.582031 C 100.5625 86.582031 100.316406 86.632812 100.078125 86.730469 C 99.839844 86.832031 99.628906 86.972656 99.445312 87.152344 C 99.261719 87.335938 99.121094 87.546875 99.023438 87.785156 C 98.925781 88.023438 98.875 88.273438 98.875 88.53125 L 98.875 94.378906 L 94.558594 94.378906 L 91.09375 80.269531 C 91.042969 80.054688 90.953125 79.851562 90.832031 79.664062 C 90.710938 79.480469 90.558594 79.320312 90.382812 79.183594 C 90.207031 79.050781 90.011719 78.949219 89.800781 78.878906 C 89.589844 78.8125 89.371094 78.78125 89.148438 78.789062 L 73.9375 78.789062 C 74.320312 77.875 74.835938 77.042969 75.476562 76.289062 C 76.117188 75.535156 76.859375 74.898438 77.699219 74.375 C 78.539062 73.851562 79.4375 73.464844 80.394531 73.222656 C 81.355469 72.976562 82.328125 72.882812 83.3125 72.941406 L 98.875 72.941406 C 104.246094 72.941406 108.601562 76.429688 108.601562 80.738281 Z M 108.601562 98.273438 " fill-opacity="1" fill-rule="nonzero"/></g><g clip-path="url(#9a3b327913)"><path fill="#ffffff" d="M 82.359375 22.277344 C 82.359375 21.703125 82.332031 21.128906 82.277344 20.554688 C 82.21875 19.984375 82.136719 19.417969 82.023438 18.855469 C 81.914062 18.289062 81.773438 17.734375 81.605469 17.183594 C 81.441406 16.636719 81.246094 16.09375 81.027344 15.5625 C 80.808594 15.035156 80.5625 14.515625 80.292969 14.007812 C 80.023438 13.5 79.726562 13.007812 79.410156 12.53125 C 79.089844 12.054688 78.75 11.59375 78.386719 11.148438 C 78.023438 10.707031 77.636719 10.28125 77.234375 9.875 C 76.828125 9.46875 76.402344 9.082031 75.960938 8.71875 C 75.515625 8.355469 75.054688 8.011719 74.578125 7.691406 C 74.101562 7.375 73.613281 7.078125 73.105469 6.808594 C 72.601562 6.539062 72.082031 6.292969 71.550781 6.074219 C 71.023438 5.851562 70.484375 5.660156 69.933594 5.492188 C 69.386719 5.324219 68.832031 5.1875 68.269531 5.074219 C 67.707031 4.960938 67.140625 4.878906 66.570312 4.820312 C 65.996094 4.765625 65.425781 4.738281 64.851562 4.738281 C 62.96875 4.738281 61.132812 5.042969 59.347656 5.652344 C 58.902344 5.21875 58.4375 4.804688 57.949219 4.417969 C 57.460938 4.03125 56.953125 3.671875 56.425781 3.339844 C 55.898438 3.007812 55.359375 2.707031 54.800781 2.429688 C 54.238281 2.15625 53.667969 1.914062 53.082031 1.699219 C 52.5 1.488281 51.90625 1.304688 51.300781 1.15625 C 50.695312 1.003906 50.085938 0.886719 49.46875 0.804688 C 48.855469 0.71875 48.234375 0.667969 47.613281 0.648438 C 46.992188 0.628906 46.371094 0.644531 45.75 0.695312 C 45.128906 0.742188 44.511719 0.820312 43.902344 0.9375 C 43.289062 1.050781 42.683594 1.195312 42.089844 1.375 C 41.492188 1.550781 40.90625 1.761719 40.332031 2 C 39.761719 2.242188 39.199219 2.511719 38.65625 2.8125 C 38.109375 3.113281 37.582031 3.441406 37.074219 3.800781 C 36.5625 4.15625 36.074219 4.539062 35.601562 4.949219 C 35.132812 5.355469 34.6875 5.789062 34.265625 6.246094 C 33.839844 6.703125 33.441406 7.179688 33.070312 7.679688 C 32.699219 8.179688 32.351562 8.699219 32.035156 9.234375 C 31.71875 9.769531 31.429688 10.320312 31.171875 10.886719 C 30.914062 11.453125 30.683594 12.035156 30.488281 12.625 C 30.289062 13.214844 30.125 13.816406 29.992188 14.425781 C 29.859375 15.035156 29.757812 15.648438 29.691406 16.269531 C 29.621094 16.886719 29.585938 17.507812 29.585938 18.132812 C 29.585938 18.753906 29.617188 19.375 29.679688 19.996094 C 29.746094 20.617188 29.84375 21.230469 29.972656 21.839844 C 30.101562 22.449219 30.261719 23.050781 30.457031 23.644531 C 30.652344 24.234375 30.875 24.816406 31.132812 25.382812 C 31.386719 25.953125 31.671875 26.503906 31.988281 27.042969 C 32.300781 27.582031 32.644531 28.101562 33.011719 28.601562 C 33.382812 29.105469 33.777344 29.582031 34.199219 30.042969 C 34.621094 30.5 35.0625 30.9375 35.53125 31.347656 C 35.996094 31.761719 36.484375 32.144531 36.992188 32.503906 C 37.503906 32.867188 38.027344 33.195312 38.570312 33.5 L 37.714844 39.542969 C 37.652344 39.921875 37.695312 40.285156 37.847656 40.640625 C 37.996094 40.992188 38.234375 41.277344 38.550781 41.488281 C 38.882812 41.710938 39.246094 41.820312 39.640625 41.820312 C 39.988281 41.824219 40.3125 41.738281 40.613281 41.566406 L 51.003906 35.605469 C 51.660156 35.460938 52.308594 35.28125 52.949219 35.058594 C 55.316406 37.320312 58.097656 38.800781 61.292969 39.503906 L 71.640625 45.40625 C 71.945312 45.578125 72.269531 45.664062 72.613281 45.660156 C 73.011719 45.660156 73.375 45.550781 73.703125 45.328125 C 74.023438 45.113281 74.257812 44.832031 74.410156 44.476562 C 74.5625 44.125 74.605469 43.757812 74.539062 43.378906 L 73.683594 37.339844 C 75 36.570312 76.191406 35.644531 77.265625 34.5625 C 78.339844 33.480469 79.257812 32.28125 80.015625 30.960938 C 80.777344 29.640625 81.355469 28.242188 81.753906 26.769531 C 82.152344 25.300781 82.351562 23.800781 82.359375 22.277344 Z M 49.875 31.785156 C 49.664062 31.832031 49.460938 31.902344 49.269531 32 L 42.054688 36.152344 L 42.460938 32.703125 C 42.503906 32.292969 42.421875 31.910156 42.222656 31.554688 C 42.023438 31.199219 41.742188 30.929688 41.371094 30.753906 C 40.890625 30.519531 40.425781 30.261719 39.972656 29.972656 C 39.519531 29.6875 39.089844 29.375 38.671875 29.035156 C 38.257812 28.695312 37.867188 28.335938 37.492188 27.949219 C 37.121094 27.566406 36.773438 27.160156 36.449219 26.734375 C 36.125 26.308594 35.824219 25.867188 35.554688 25.40625 C 35.28125 24.945312 35.035156 24.46875 34.820312 23.976562 C 34.605469 23.488281 34.417969 22.988281 34.257812 22.476562 C 34.101562 21.964844 33.976562 21.445312 33.878906 20.917969 C 33.78125 20.390625 33.71875 19.859375 33.683594 19.324219 C 33.648438 18.789062 33.648438 18.253906 33.675781 17.71875 C 33.703125 17.183594 33.765625 16.652344 33.855469 16.125 C 33.949219 15.597656 34.070312 15.078125 34.222656 14.5625 C 34.375 14.050781 34.558594 13.546875 34.769531 13.054688 C 34.980469 12.5625 35.21875 12.085938 35.488281 11.621094 C 35.757812 11.160156 36.050781 10.714844 36.371094 10.285156 C 36.691406 9.855469 37.035156 9.445312 37.40625 9.058594 C 37.773438 8.671875 38.164062 8.304688 38.574219 7.964844 C 38.984375 7.621094 39.417969 7.304688 39.863281 7.011719 C 40.3125 6.722656 40.777344 6.457031 41.257812 6.21875 C 41.738281 5.984375 42.230469 5.777344 42.734375 5.597656 C 43.238281 5.417969 43.75 5.269531 44.273438 5.152344 C 44.792969 5.035156 45.320312 4.949219 45.851562 4.890625 C 46.382812 4.835938 46.917969 4.8125 47.453125 4.820312 C 47.988281 4.824219 48.519531 4.863281 49.050781 4.933594 C 49.582031 5.003906 50.105469 5.105469 50.621094 5.238281 C 51.140625 5.367188 51.648438 5.53125 52.148438 5.722656 C 52.648438 5.914062 53.136719 6.132812 53.609375 6.382812 C 54.082031 6.632812 54.539062 6.910156 54.980469 7.210938 C 55.421875 7.515625 55.84375 7.84375 56.246094 8.195312 C 56.648438 8.550781 57.027344 8.925781 57.386719 9.324219 C 57.742188 9.722656 58.078125 10.136719 58.386719 10.574219 C 58.695312 11.011719 58.976562 11.464844 59.234375 11.9375 C 59.488281 12.40625 59.714844 12.890625 59.914062 13.390625 C 60.113281 13.886719 60.28125 14.394531 60.421875 14.910156 C 60.558594 15.429688 60.667969 15.953125 60.746094 16.480469 C 60.824219 17.011719 60.871094 17.542969 60.886719 18.082031 C 60.898438 18.617188 60.882812 19.148438 60.835938 19.683594 C 60.785156 20.21875 60.707031 20.746094 60.597656 21.269531 C 60.488281 21.792969 60.347656 22.308594 60.175781 22.816406 C 60.003906 23.324219 59.804688 23.820312 59.574219 24.304688 C 59.347656 24.789062 59.089844 25.257812 58.804688 25.710938 C 58.519531 26.164062 58.210938 26.601562 57.875 27.019531 C 57.539062 27.433594 57.179688 27.832031 56.796875 28.207031 C 56.417969 28.582031 56.015625 28.933594 55.589844 29.257812 C 55.167969 29.585938 54.726562 29.886719 54.265625 30.164062 C 53.808594 30.4375 53.335938 30.683594 52.847656 30.902344 C 52.359375 31.125 51.859375 31.3125 51.347656 31.472656 C 50.839844 31.632812 50.320312 31.765625 49.796875 31.863281 Z M 70.746094 34.570312 C 70.378906 34.75 70.09375 35.015625 69.894531 35.375 C 69.695312 35.730469 69.617188 36.113281 69.65625 36.519531 L 70.144531 39.96875 L 62.925781 35.917969 C 62.734375 35.820312 62.535156 35.746094 62.324219 35.703125 C 60.265625 35.300781 58.40625 34.460938 56.742188 33.1875 C 57.226562 32.878906 57.695312 32.546875 58.144531 32.191406 C 58.597656 31.835938 59.03125 31.460938 59.445312 31.0625 C 59.859375 30.664062 60.253906 30.246094 60.628906 29.808594 C 61.003906 29.371094 61.355469 28.917969 61.683594 28.445312 C 62.011719 27.972656 62.316406 27.488281 62.597656 26.984375 C 62.878906 26.484375 63.136719 25.96875 63.367188 25.441406 C 63.597656 24.914062 63.800781 24.378906 63.980469 23.828125 C 64.160156 23.28125 64.308594 22.726562 64.433594 22.164062 C 64.554688 21.605469 64.652344 21.035156 64.71875 20.464844 C 64.789062 19.894531 64.828125 19.320312 64.839844 18.746094 C 64.851562 18.167969 64.832031 17.59375 64.789062 17.019531 C 64.742188 16.449219 64.671875 15.878906 64.570312 15.3125 C 64.46875 14.742188 64.339844 14.183594 64.183594 13.628906 C 64.027344 13.074219 63.84375 12.53125 63.632812 11.996094 C 63.425781 11.460938 63.1875 10.933594 62.929688 10.421875 C 62.667969 9.910156 62.382812 9.410156 62.070312 8.925781 C 62.988281 8.730469 63.914062 8.632812 64.851562 8.632812 C 65.617188 8.636719 66.375 8.707031 67.128906 8.835938 C 67.882812 8.96875 68.621094 9.160156 69.339844 9.417969 C 70.0625 9.671875 70.757812 9.988281 71.425781 10.359375 C 72.09375 10.734375 72.726562 11.160156 73.320312 11.640625 C 73.917969 12.121094 74.46875 12.648438 74.976562 13.21875 C 75.484375 13.792969 75.941406 14.402344 76.347656 15.054688 C 76.75 15.703125 77.097656 16.382812 77.390625 17.09375 C 77.679688 17.800781 77.910156 18.527344 78.078125 19.277344 C 78.246094 20.023438 78.351562 20.78125 78.390625 21.542969 C 78.433594 22.308594 78.410156 23.074219 78.320312 23.835938 C 78.234375 24.59375 78.082031 25.34375 77.871094 26.078125 C 77.65625 26.816406 77.382812 27.527344 77.050781 28.21875 C 76.71875 28.90625 76.328125 29.5625 75.886719 30.1875 C 75.441406 30.8125 74.949219 31.394531 74.40625 31.933594 C 73.867188 32.476562 73.285156 32.96875 72.660156 33.410156 C 72.035156 33.851562 71.378906 34.242188 70.6875 34.570312 Z M 70.746094 34.570312 " fill-opacity="1" fill-rule="nonzero"/></g><path fill="#ffffff" d="M 44.425781 18.378906 C 44.425781 18.765625 44.351562 19.140625 44.203125 19.496094 C 44.054688 19.855469 43.847656 20.171875 43.570312 20.445312 C 43.296875 20.71875 42.984375 20.929688 42.625 21.078125 C 42.269531 21.226562 41.894531 21.300781 41.507812 21.300781 C 41.121094 21.300781 40.75 21.226562 40.390625 21.078125 C 40.035156 20.929688 39.71875 20.71875 39.445312 20.445312 C 39.171875 20.171875 38.960938 19.855469 38.8125 19.496094 C 38.664062 19.140625 38.589844 18.765625 38.589844 18.378906 C 38.589844 17.992188 38.664062 17.617188 38.8125 17.257812 C 38.960938 16.902344 39.171875 16.585938 39.445312 16.3125 C 39.71875 16.039062 40.035156 15.824219 40.390625 15.675781 C 40.75 15.53125 41.121094 15.457031 41.507812 15.457031 C 41.894531 15.457031 42.269531 15.53125 42.625 15.675781 C 42.984375 15.824219 43.296875 16.039062 43.570312 16.3125 C 43.847656 16.585938 44.054688 16.902344 44.203125 17.257812 C 44.351562 17.617188 44.425781 17.992188 44.425781 18.378906 Z M 44.425781 18.378906 " fill-opacity="1" fill-rule="nonzero"/><path fill="#ffffff" d="M 50.261719 18.378906 C 50.261719 18.765625 50.1875 19.140625 50.039062 19.496094 C 49.890625 19.855469 49.683594 20.171875 49.40625 20.445312 C 49.132812 20.71875 48.820312 20.929688 48.460938 21.078125 C 48.105469 21.226562 47.730469 21.300781 47.34375 21.300781 C 46.957031 21.300781 46.585938 21.226562 46.226562 21.078125 C 45.871094 20.929688 45.554688 20.71875 45.28125 20.445312 C 45.007812 20.171875 44.796875 19.855469 44.648438 19.496094 C 44.5 19.140625 44.425781 18.765625 44.425781 18.378906 C 44.425781 17.992188 44.5 17.617188 44.648438 17.257812 C 44.796875 16.902344 45.007812 16.585938 45.28125 16.3125 C 45.554688 16.039062 45.871094 15.824219 46.226562 15.675781 C 46.585938 15.53125 46.957031 15.457031 47.34375 15.457031 C 47.730469 15.457031 48.105469 15.53125 48.460938 15.675781 C 48.820312 15.824219 49.132812 16.039062 49.40625 16.3125 C 49.683594 16.585938 49.890625 16.902344 50.039062 17.257812 C 50.1875 17.617188 50.261719 17.992188 50.261719 18.378906 Z M 50.261719 18.378906 " fill-opacity="1" fill-rule="nonzero"/><path fill="#ffffff" d="M 56.097656 18.378906 C 56.097656 18.765625 56.023438 19.140625 55.875 19.496094 C 55.726562 19.855469 55.519531 20.171875 55.242188 20.445312 C 54.96875 20.71875 54.65625 20.929688 54.296875 21.078125 C 53.941406 21.226562 53.566406 21.300781 53.179688 21.300781 C 52.792969 21.300781 52.421875 21.226562 52.0625 21.078125 C 51.707031 20.929688 51.390625 20.71875 51.117188 20.445312 C 50.84375 20.171875 50.632812 19.855469 50.484375 19.496094 C 50.335938 19.140625 50.261719 18.765625 50.261719 18.378906 C 50.261719 17.992188 50.335938 17.617188 50.484375 17.257812 C 50.632812 16.902344 50.84375 16.585938 51.117188 16.3125 C 51.390625 16.039062 51.707031 15.824219 52.0625 15.675781 C 52.421875 15.53125 52.792969 15.457031 53.179688 15.457031 C 53.566406 15.457031 53.941406 15.53125 54.296875 15.675781 C 54.65625 15.824219 54.96875 16.039062 55.242188 16.3125 C 55.519531 16.585938 55.726562 16.902344 55.875 17.257812 C 56.023438 17.617188 56.097656 17.992188 56.097656 18.378906 Z M 56.097656 18.378906 " fill-opacity="1" fill-rule="nonzero"/></svg>