<svg xmlns="http://www.w3.org/2000/svg" xmlns:xlink="http://www.w3.org/1999/xlink" width="150" zoomAndPan="magnify" viewBox="0 0 112.5 104.999996" height="140" preserveAspectRatio="xMidYMid meet" version="1.0"><defs><clipPath id="e43447d195"><path d="M 0 1.253906 L 112.003906 1.253906 L 112.003906 104.003906 L 0 104.003906 Z M 0 1.253906 " clip-rule="nonzero"/></clipPath></defs><g clip-path="url(#e43447d195)"><path fill="#ffffff" d="M 72.261719 52.628906 C 72.261719 46.324219 67.152344 41.214844 60.839844 41.214844 C 54.53125 41.214844 49.421875 46.324219 49.421875 52.628906 C 49.421875 58.9375 54.53125 64.046875 60.839844 64.046875 C 67.152344 64.046875 72.261719 58.9375 72.261719 52.628906 Z M 60.839844 1.253906 C 32.464844 1.253906 9.457031 24.261719 9.457031 52.628906 L -7.671875 52.628906 L 15.167969 75.464844 L 38.003906 52.628906 L 20.875 52.628906 C 20.875 30.566406 38.773438 12.671875 60.839844 12.671875 C 82.910156 12.671875 100.808594 30.566406 100.808594 52.628906 C 100.808594 74.691406 82.910156 92.589844 60.839844 92.589844 C 52.191406 92.589844 44.226562 89.820312 37.660156 85.140625 L 29.582031 93.332031 C 38.261719 100.007812 49.082031 104.003906 60.839844 104.003906 C 89.21875 104.003906 112.226562 81 112.226562 52.628906 C 112.226562 24.261719 89.21875 1.253906 60.839844 1.253906 Z M 60.839844 1.253906 " fill-opacity="1" fill-rule="nonzero"/></g></svg>