<svg xmlns="http://www.w3.org/2000/svg" xmlns:xlink="http://www.w3.org/1999/xlink" width="150" zoomAndPan="magnify" viewBox="0 0 112.5 104.999996" height="140" preserveAspectRatio="xMidYMid meet" version="1.0"><defs><clipPath id="3b8f3b2e24"><path d="M 17.3125 11 L 93.0625 11 L 93.0625 104.765625 L 17.3125 104.765625 Z M 17.3125 11 " clip-rule="nonzero"/></clipPath><clipPath id="316df9abd9"><path d="M 36 0.230469 L 75 0.230469 L 75 19 L 36 19 Z M 36 0.230469 " clip-rule="nonzero"/></clipPath></defs><g clip-path="url(#3b8f3b2e24)"><path fill="#ffffff" d="M 88.121094 11.714844 L 77.417969 11.714844 L 77.417969 14.996094 L 88.121094 14.996094 C 89.027344 14.996094 89.769531 15.734375 89.769531 16.636719 L 89.769531 100.308594 C 89.769531 101.210938 89.027344 101.949219 88.121094 101.949219 L 22.253906 101.949219 C 21.347656 101.949219 20.605469 101.210938 20.605469 100.308594 L 20.605469 16.636719 C 20.605469 15.734375 21.347656 14.996094 22.253906 14.996094 L 32.957031 14.996094 L 32.957031 11.714844 L 22.253906 11.714844 C 19.535156 11.714844 17.3125 13.929688 17.3125 16.636719 L 17.3125 100.308594 C 17.3125 103.015625 19.535156 105.230469 22.253906 105.230469 L 88.121094 105.230469 C 90.839844 105.230469 93.0625 103.015625 93.0625 100.308594 L 93.0625 16.636719 C 93.0625 13.929688 90.839844 11.714844 88.121094 11.714844 Z M 88.121094 11.714844 " fill-opacity="1" fill-rule="nonzero"/></g><g clip-path="url(#316df9abd9)"><path fill="#ffffff" d="M 37.894531 18.277344 C 38.800781 18.277344 39.542969 17.539062 39.542969 16.636719 L 39.542969 10.15625 C 39.542969 10.15625 48.929688 10.15625 48.929688 10.15625 C 49.917969 10.15625 50.660156 9.335938 50.574219 8.351562 C 50.574219 8.269531 50.574219 8.105469 50.574219 8.023438 C 50.574219 5.5625 52.632812 3.511719 55.1875 3.511719 C 57.738281 3.511719 59.796875 5.5625 59.796875 8.023438 C 59.796875 8.105469 59.796875 8.269531 59.796875 8.351562 C 59.714844 9.253906 60.457031 10.15625 61.445312 10.15625 L 70.832031 10.15625 L 70.832031 16.636719 C 70.832031 17.539062 71.570312 18.277344 72.476562 18.277344 C 73.382812 18.277344 74.125 17.539062 74.125 16.636719 L 74.125 10.15625 C 74.125 8.351562 72.640625 6.875 70.832031 6.875 L 63.007812 6.875 C 62.433594 3.101562 59.140625 0.230469 55.1875 0.230469 C 51.234375 0.230469 47.941406 3.101562 47.363281 6.875 L 39.542969 6.875 C 37.730469 6.875 36.25 8.351562 36.25 10.15625 L 36.25 16.636719 C 36.25 17.539062 36.992188 18.277344 37.894531 18.277344 Z M 37.894531 18.277344 " fill-opacity="1" fill-rule="nonzero"/></g><path fill="#ffffff" d="M 56.832031 14.175781 C 56.832031 14.394531 56.792969 14.605469 56.707031 14.804688 C 56.625 15.007812 56.503906 15.183594 56.351562 15.335938 C 56.195312 15.492188 56.019531 15.609375 55.816406 15.691406 C 55.617188 15.777344 55.40625 15.816406 55.1875 15.816406 C 54.96875 15.816406 54.757812 15.777344 54.558594 15.691406 C 54.355469 15.609375 54.175781 15.492188 54.023438 15.335938 C 53.867188 15.183594 53.75 15.007812 53.664062 14.804688 C 53.582031 14.605469 53.539062 14.394531 53.539062 14.175781 C 53.539062 13.960938 53.582031 13.75 53.664062 13.550781 C 53.75 13.347656 53.867188 13.171875 54.023438 13.015625 C 54.175781 12.863281 54.355469 12.746094 54.558594 12.660156 C 54.757812 12.578125 54.96875 12.535156 55.1875 12.535156 C 55.40625 12.535156 55.617188 12.578125 55.816406 12.660156 C 56.019531 12.746094 56.195312 12.863281 56.351562 13.015625 C 56.503906 13.171875 56.625 13.347656 56.707031 13.550781 C 56.792969 13.75 56.832031 13.960938 56.832031 14.175781 Z M 56.832031 14.175781 " fill-opacity="1" fill-rule="nonzero"/><path fill="#ffffff" d="M 30.484375 25.660156 C 29.582031 25.660156 28.839844 26.398438 28.839844 27.300781 C 28.839844 28.203125 29.582031 28.941406 30.484375 28.941406 L 32.132812 28.941406 C 33.039062 28.941406 33.78125 28.203125 33.78125 27.300781 C 33.78125 26.398438 33.039062 25.660156 32.132812 25.660156 Z M 30.484375 25.660156 " fill-opacity="1" fill-rule="nonzero"/><path fill="#ffffff" d="M 79.886719 25.660156 L 38.71875 25.660156 C 37.8125 25.660156 37.074219 26.398438 37.074219 27.300781 C 37.074219 28.203125 37.8125 28.941406 38.71875 28.941406 L 79.886719 28.941406 C 80.792969 28.941406 81.535156 28.203125 81.535156 27.300781 C 81.535156 26.398438 80.792969 25.660156 79.886719 25.660156 Z M 79.886719 25.660156 " fill-opacity="1" fill-rule="nonzero"/><path fill="#ffffff" d="M 30.484375 37.144531 L 32.132812 37.144531 C 33.039062 37.144531 33.78125 36.40625 33.78125 35.503906 C 33.78125 34.601562 33.039062 33.863281 32.132812 33.863281 L 30.484375 33.863281 C 29.582031 33.863281 28.839844 34.601562 28.839844 35.503906 C 28.839844 36.40625 29.582031 37.144531 30.484375 37.144531 Z M 30.484375 37.144531 " fill-opacity="1" fill-rule="nonzero"/><path fill="#ffffff" d="M 79.886719 33.863281 L 38.71875 33.863281 C 37.8125 33.863281 37.074219 34.601562 37.074219 35.503906 C 37.074219 36.40625 37.8125 37.144531 38.71875 37.144531 L 79.886719 37.144531 C 80.792969 37.144531 81.535156 36.40625 81.535156 35.503906 C 81.535156 34.601562 80.792969 33.863281 79.886719 33.863281 Z M 79.886719 33.863281 " fill-opacity="1" fill-rule="nonzero"/><path fill="#ffffff" d="M 30.484375 45.347656 L 32.132812 45.347656 C 33.039062 45.347656 33.78125 44.609375 33.78125 43.707031 C 33.78125 42.804688 33.039062 42.066406 32.132812 42.066406 L 30.484375 42.066406 C 29.582031 42.066406 28.839844 42.804688 28.839844 43.707031 C 28.839844 44.609375 29.582031 45.347656 30.484375 45.347656 Z M 30.484375 45.347656 " fill-opacity="1" fill-rule="nonzero"/><path fill="#ffffff" d="M 79.886719 42.066406 L 38.71875 42.066406 C 37.8125 42.066406 37.074219 42.804688 37.074219 43.707031 C 37.074219 44.609375 37.8125 45.347656 38.71875 45.347656 L 79.886719 45.347656 C 80.792969 45.347656 81.535156 44.609375 81.535156 43.707031 C 81.535156 42.804688 80.792969 42.066406 79.886719 42.066406 Z M 79.886719 42.066406 " fill-opacity="1" fill-rule="nonzero"/><path fill="#ffffff" d="M 30.484375 53.550781 L 32.132812 53.550781 C 33.039062 53.550781 33.78125 52.8125 33.78125 51.910156 C 33.78125 51.007812 33.039062 50.269531 32.132812 50.269531 L 30.484375 50.269531 C 29.582031 50.269531 28.839844 51.007812 28.839844 51.910156 C 28.839844 52.8125 29.582031 53.550781 30.484375 53.550781 Z M 30.484375 53.550781 " fill-opacity="1" fill-rule="nonzero"/><path fill="#ffffff" d="M 79.886719 50.269531 L 38.71875 50.269531 C 37.8125 50.269531 37.074219 51.007812 37.074219 51.910156 C 37.074219 52.8125 37.8125 53.550781 38.71875 53.550781 L 79.886719 53.550781 C 80.792969 53.550781 81.535156 52.8125 81.535156 51.910156 C 81.535156 51.007812 80.792969 50.269531 79.886719 50.269531 Z M 79.886719 50.269531 " fill-opacity="1" fill-rule="nonzero"/><path fill="#ffffff" d="M 30.484375 61.753906 L 32.132812 61.753906 C 33.039062 61.753906 33.78125 61.015625 33.78125 60.113281 C 33.78125 59.210938 33.039062 58.472656 32.132812 58.472656 L 30.484375 58.472656 C 29.582031 58.472656 28.839844 59.210938 28.839844 60.113281 C 28.839844 61.015625 29.582031 61.753906 30.484375 61.753906 Z M 30.484375 61.753906 " fill-opacity="1" fill-rule="nonzero"/><path fill="#ffffff" d="M 79.886719 58.472656 L 38.71875 58.472656 C 37.8125 58.472656 37.074219 59.210938 37.074219 60.113281 C 37.074219 61.015625 37.8125 61.753906 38.71875 61.753906 L 79.886719 61.753906 C 80.792969 61.753906 81.535156 61.015625 81.535156 60.113281 C 81.535156 59.210938 80.792969 58.472656 79.886719 58.472656 Z M 79.886719 58.472656 " fill-opacity="1" fill-rule="nonzero"/><path fill="#ffffff" d="M 30.484375 69.957031 L 32.132812 69.957031 C 33.039062 69.957031 33.78125 69.21875 33.78125 68.316406 C 33.78125 67.414062 33.039062 66.675781 32.132812 66.675781 L 30.484375 66.675781 C 29.582031 66.675781 28.839844 67.414062 28.839844 68.316406 C 28.839844 69.21875 29.582031 69.957031 30.484375 69.957031 Z M 30.484375 69.957031 " fill-opacity="1" fill-rule="nonzero"/><path fill="#ffffff" d="M 79.886719 66.675781 L 38.71875 66.675781 C 37.8125 66.675781 37.074219 67.414062 37.074219 68.316406 C 37.074219 69.21875 37.8125 69.957031 38.71875 69.957031 L 79.886719 69.957031 C 80.792969 69.957031 81.535156 69.21875 81.535156 68.316406 C 81.535156 67.414062 80.792969 66.675781 79.886719 66.675781 Z M 79.886719 66.675781 " fill-opacity="1" fill-rule="nonzero"/><path fill="#ffffff" d="M 35.425781 91.285156 L 74.949219 91.285156 C 75.851562 91.285156 76.59375 90.546875 76.59375 89.644531 C 76.59375 88.742188 75.851562 88.003906 74.949219 88.003906 L 71.65625 88.003906 L 71.65625 85.542969 C 71.65625 84.640625 70.914062 83.902344 70.007812 83.902344 C 69.101562 83.902344 68.359375 84.640625 68.359375 85.542969 L 68.359375 88.003906 L 61.773438 88.003906 L 61.773438 82.261719 C 61.773438 81.359375 61.03125 80.621094 60.128906 80.621094 C 59.222656 80.621094 58.480469 81.359375 58.480469 82.261719 L 58.480469 88.003906 L 51.894531 88.003906 L 51.894531 78.980469 C 51.894531 78.078125 51.152344 77.339844 50.246094 77.339844 C 49.339844 77.339844 48.601562 78.078125 48.601562 78.980469 L 48.601562 88.003906 L 42.011719 88.003906 L 42.011719 76.519531 C 42.011719 75.617188 41.273438 74.878906 40.367188 74.878906 C 39.460938 74.878906 38.71875 75.617188 38.71875 76.519531 L 38.71875 88.003906 L 35.425781 88.003906 C 34.519531 88.003906 33.78125 88.742188 33.78125 89.644531 C 33.78125 90.546875 34.519531 91.285156 35.425781 91.285156 Z M 35.425781 91.285156 " fill-opacity="1" fill-rule="nonzero"/></svg>