<svg xmlns="http://www.w3.org/2000/svg" xmlns:xlink="http://www.w3.org/1999/xlink" width="150" zoomAndPan="magnify" viewBox="0 0 112.5 104.999996" height="140" preserveAspectRatio="xMidYMid meet" version="1.0"><defs><clipPath id="95d3663eb2"><path d="M 0.0078125 15.535156 L 112.003906 15.535156 L 112.003906 89.785156 L 0.0078125 89.785156 Z M 0.0078125 15.535156 " clip-rule="nonzero"/></clipPath></defs><g clip-path="url(#95d3663eb2)"><path fill="#ffffff" d="M 50.832031 33.898438 C 47.3125 27.582031 41.558594 23.285156 35.097656 21.464844 C 31.78125 20.53125 28.28125 20.257812 24.808594 20.683594 C 21.449219 21.097656 18.121094 22.179688 14.996094 23.957031 C 14.660156 24.148438 14.308594 24.363281 13.957031 24.585938 C 13.609375 24.804688 13.269531 25.03125 12.953125 25.246094 C 6.710938 29.496094 3.292969 33.832031 1.5625 37.933594 C -1.273438 44.644531 0.394531 50.734375 1.671875 54.859375 C 1.738281 55.074219 1.933594 55.59375 2.199219 56.269531 C 2.855469 57.921875 3.925781 60.523438 4.394531 61.703125 C 4.519531 62.019531 4.636719 62.746094 4.777344 63.730469 C 5.085938 65.929688 5.449219 69.34375 5.964844 72.386719 C 6.164062 73.574219 6.355469 75.371094 6.96875 76.578125 C 7.328125 77.285156 7.832031 77.804688 8.515625 77.984375 C 9.050781 78.125 9.46875 78.109375 9.96875 77.929688 C 10.40625 77.777344 10.917969 77.484375 11.671875 77.042969 C 12.117188 76.785156 12.4375 76.570312 12.691406 76.433594 C 12.859375 76.34375 12.964844 76.265625 13.085938 76.328125 C 13.324219 76.441406 13.5625 76.78125 13.996094 77.382812 C 14.699219 78.359375 15.808594 79.980469 17.851562 82.503906 C 20.6875 86.003906 22.34375 87.742188 23.886719 88.136719 C 24.714844 88.34375 25.523438 88.195312 26.460938 87.710938 C 27.652344 87.09375 29.074219 85.910156 31.089844 84.28125 C 31.515625 83.941406 31.855469 83.773438 32.171875 83.789062 C 32.519531 83.800781 32.820312 84.03125 33.152344 84.410156 C 34.027344 85.398438 35.023438 87.339844 36.941406 89.707031 C 37.015625 89.800781 37.148438 89.8125 37.242188 89.742188 C 37.332031 89.667969 37.347656 89.535156 37.273438 89.441406 C 35.375 87.042969 34.394531 85.082031 33.53125 84.082031 C 33.089844 83.570312 32.664062 83.296875 32.195312 83.273438 C 31.78125 83.25 31.316406 83.429688 30.757812 83.867188 C 28.765625 85.441406 27.363281 86.589844 26.1875 87.183594 C 25.402344 87.578125 24.730469 87.71875 24.042969 87.535156 C 22.578125 87.148438 21.070312 85.425781 18.402344 82.066406 C 15.863281 78.859375 14.789062 77.105469 14.140625 76.277344 C 13.863281 75.925781 13.640625 75.722656 13.433594 75.621094 C 13.148438 75.476562 12.875 75.484375 12.523438 75.632812 C 12.230469 75.757812 11.851562 76.015625 11.269531 76.34375 C 10.570312 76.742188 10.101562 77.011719 9.699219 77.148438 C 9.363281 77.265625 9.085938 77.269531 8.734375 77.175781 C 8.121094 77.007812 7.777344 76.402344 7.523438 75.6875 C 7.132812 74.589844 7 73.203125 6.847656 72.242188 C 6.367188 69.203125 6.035156 65.796875 5.746094 63.597656 C 5.601562 62.5 5.457031 61.691406 5.320312 61.339844 C 4.921875 60.308594 4.074219 58.195312 3.4375 56.570312 C 3.0625 55.609375 2.761719 54.824219 2.679688 54.554688 C 1.492188 50.605469 -0.09375 44.785156 2.640625 38.390625 C 4.320312 34.457031 7.625 30.3125 13.628906 26.242188 L 15.589844 24.984375 C 18.5625 23.253906 21.742188 22.195312 24.949219 21.75 C 28.285156 21.285156 31.65625 21.492188 34.871094 22.304688 C 41.242188 23.921875 47.003906 27.933594 50.648438 34.003906 C 50.675781 34.054688 50.742188 34.074219 50.792969 34.042969 C 50.84375 34.015625 50.863281 33.949219 50.832031 33.898438 Z M 56.15625 53.523438 C 55.285156 51.746094 54.621094 49.855469 54.175781 47.878906 C 53.746094 45.96875 53.527344 43.984375 53.550781 41.941406 C 53.609375 34.890625 56.53125 28.542969 61.1875 23.945312 C 65.824219 19.371094 72.183594 16.527344 79.21875 16.546875 C 79.585938 16.546875 79.984375 16.558594 80.378906 16.578125 C 80.78125 16.597656 81.179688 16.621094 81.550781 16.648438 C 88.816406 17.179688 93.773438 19.121094 97.207031 21.699219 C 102.800781 25.894531 104.34375 31.75 105.289062 35.78125 C 105.355469 36.058594 105.488281 36.890625 105.644531 37.914062 C 105.902344 39.636719 106.226562 41.890625 106.394531 42.984375 C 106.449219 43.355469 106.730469 44.121094 107.148438 45.136719 C 107.996094 47.1875 109.410156 50.304688 110.511719 53.179688 C 110.859375 54.09375 111.4375 55.359375 111.648438 56.511719 C 111.789062 57.273438 111.785156 57.984375 111.328125 58.441406 C 111.066406 58.707031 110.816406 58.84375 110.460938 58.910156 C 110.042969 58.992188 109.496094 58.992188 108.6875 58.996094 C 108.019531 58.996094 107.566406 58.964844 107.246094 59 C 106.882812 59.042969 106.648438 59.171875 106.476562 59.429688 C 106.351562 59.617188 106.261719 59.898438 106.199219 60.335938 C 106.046875 61.378906 105.996094 63.433594 105.390625 67.472656 C 104.757812 71.714844 104.3125 73.960938 103.234375 75.023438 C 102.726562 75.523438 102.074219 75.738281 101.195312 75.785156 C 99.882812 75.855469 98.097656 75.554688 95.582031 75.183594 C 94.871094 75.078125 94.378906 75.15625 94.027344 75.382812 C 93.628906 75.640625 93.390625 76.09375 93.261719 76.761719 C 93.011719 78.0625 93.140625 80.25 92.691406 83.273438 C 92.667969 83.410156 92.765625 83.535156 92.902344 83.558594 C 93.039062 83.578125 93.164062 83.484375 93.1875 83.347656 C 93.65625 80.339844 93.542969 78.160156 93.800781 76.867188 C 93.894531 76.382812 94.035156 76.035156 94.324219 75.851562 C 94.589844 75.683594 94.964844 75.660156 95.496094 75.742188 C 98.0625 76.140625 99.886719 76.449219 101.226562 76.386719 C 102.28125 76.339844 103.054688 76.0625 103.667969 75.464844 C 104.804688 74.355469 105.363281 72.023438 106.054688 67.574219 C 106.554688 64.371094 106.703125 62.410156 106.816406 61.214844 C 106.890625 60.46875 106.925781 60.050781 107.078125 59.832031 C 107.160156 59.710938 107.296875 59.714844 107.5 59.710938 C 107.789062 59.703125 108.175781 59.726562 108.6875 59.730469 C 109.5625 59.730469 110.148438 59.726562 110.601562 59.644531 C 111.117188 59.546875 111.480469 59.355469 111.863281 58.972656 C 112.355469 58.484375 112.527344 57.796875 112.484375 57.015625 C 112.410156 55.667969 111.671875 54.023438 111.25 52.898438 C 110.164062 50.011719 108.765625 46.878906 107.925781 44.816406 C 107.550781 43.890625 107.285156 43.195312 107.238281 42.859375 C 107.074219 41.765625 106.765625 39.507812 106.511719 37.785156 C 106.359375 36.726562 106.222656 35.867188 106.15625 35.582031 C 105.195312 31.386719 103.585938 25.308594 97.789062 20.929688 C 94.25 18.253906 89.136719 16.207031 81.625 15.640625 C 81.246094 15.613281 80.835938 15.585938 80.429688 15.566406 C 80.015625 15.550781 79.601562 15.539062 79.21875 15.539062 C 71.921875 15.558594 65.308594 18.511719 60.550781 23.3125 C 55.816406 28.09375 52.929688 34.691406 52.988281 41.941406 C 53.011719 44.023438 53.273438 46.042969 53.753906 47.976562 C 54.253906 49.96875 54.984375 51.867188 55.914062 53.648438 C 55.949219 53.714844 56.03125 53.742188 56.097656 53.707031 C 56.164062 53.675781 56.191406 53.59375 56.15625 53.523438 Z M 65.273438 73.40625 C 65.53125 72.726562 65.796875 71.980469 65.980469 71.1875 C 66.152344 70.425781 66.246094 69.628906 66.230469 68.828125 C 66.21875 68.292969 66.148438 67.757812 66.015625 67.234375 C 65.882812 66.714844 65.679688 66.210938 65.410156 65.722656 C 65.039062 65.0625 64.140625 63.898438 63.140625 62.699219 C 61.519531 60.753906 59.636719 58.699219 59.457031 58.496094 C 59.242188 58.253906 59.03125 58.011719 58.824219 57.761719 C 58.617188 57.511719 58.414062 57.261719 58.214844 57.003906 C 58.1875 56.964844 58.132812 56.957031 58.09375 56.984375 C 58.054688 57.011719 58.046875 57.066406 58.074219 57.105469 C 58.257812 57.375 58.445312 57.644531 58.636719 57.90625 C 58.828125 58.171875 59.027344 58.429688 59.230469 58.6875 C 59.417969 58.925781 61.597656 61.628906 63.207031 63.828125 C 63.882812 64.75 64.457031 65.578125 64.722656 66.09375 C 64.949219 66.527344 65.109375 66.980469 65.230469 67.4375 C 65.355469 67.910156 65.433594 68.386719 65.472656 68.867188 C 65.535156 69.621094 65.507812 70.371094 65.4375 71.097656 C 65.359375 71.894531 65.246094 72.660156 65.105469 73.359375 C 65.09375 73.40625 65.121094 73.453125 65.164062 73.464844 C 65.210938 73.480469 65.257812 73.453125 65.273438 73.40625 Z M 31.863281 54.851562 C 31.652344 54.894531 31.4375 54.925781 31.230469 54.945312 C 30.410156 55.019531 29.636719 54.898438 29.066406 54.523438 C 29.015625 54.488281 28.957031 54.453125 28.886719 54.410156 C 28.5625 55.441406 28 56.398438 27.039062 57.1875 C 26.914062 57.292969 26.652344 57.496094 26.289062 57.710938 C 26.515625 57.878906 26.710938 58.042969 26.875 58.199219 C 27.308594 58.613281 27.546875 58.988281 27.652344 59.308594 C 27.855469 59.9375 27.589844 60.398438 27.117188 60.65625 C 26.671875 60.894531 26.015625 60.9375 25.429688 60.726562 C 25.085938 60.605469 24.738281 60.417969 24.382812 60.183594 C 23.621094 61.535156 22.316406 62.550781 20.265625 62.96875 C 19 63.226562 18.066406 63.183594 17.238281 62.808594 C 16.667969 62.550781 16.144531 62.132812 15.601562 61.53125 C 14.769531 61.976562 13.941406 62.324219 13.1875 62.523438 C 11.578125 62.945312 10.285156 62.695312 9.78125 61.535156 C 9.644531 61.210938 9.574219 60.628906 9.589844 59.886719 C 9.613281 58.882812 9.792969 57.570312 10.125 56.25 C 9.757812 55.445312 9.566406 54.441406 9.558594 53.445312 L 9.558594 53.367188 C 9.441406 53.382812 9.320312 53.394531 9.207031 53.40625 C 7.519531 53.542969 6.371094 53.054688 6.101562 51.648438 C 5.996094 51.105469 5.707031 49.226562 5.984375 48.074219 C 6.097656 47.621094 6.300781 47.273438 6.597656 47.101562 C 6.902344 46.925781 7.320312 46.910156 7.882812 47.214844 C 9.480469 48.078125 10.910156 48.5625 12.199219 48.785156 C 12.488281 48.585938 12.726562 48.398438 12.929688 48.21875 C 11.929688 47.742188 10.9375 47.222656 10.070312 46.636719 C 8.582031 45.628906 7.441406 44.417969 7.125 42.886719 C 6.910156 41.855469 7.058594 40.675781 7.738281 39.308594 C 8.070312 38.636719 8.570312 37.75 9.207031 37.066406 C 9.652344 36.585938 10.164062 36.203125 10.726562 36.042969 C 11.492188 35.824219 12.382812 36.0625 13.265625 36.539062 C 13.808594 36.023438 14.445312 35.652344 14.789062 35.457031 C 15.761719 34.894531 16.511719 34.835938 17.113281 35.054688 C 17.675781 35.265625 18.117188 35.730469 18.488281 36.324219 L 18.589844 35.730469 C 18.609375 35.617188 18.628906 35.503906 18.648438 35.390625 L 18.683594 35.195312 C 17.765625 34.652344 16.941406 34.25 16.363281 33.863281 C 15.597656 33.351562 15.25 32.832031 15.464844 32.179688 C 15.648438 31.617188 16.074219 31.234375 16.695312 31.007812 C 17.253906 30.804688 17.976562 30.730469 18.800781 30.761719 C 19.054688 30.769531 19.320312 30.789062 19.59375 30.816406 C 19.621094 30.714844 19.648438 30.617188 19.675781 30.519531 C 20.066406 29.128906 20.542969 28.179688 21.054688 27.578125 C 21.613281 26.921875 22.226562 26.65625 22.839844 26.667969 C 23.925781 26.679688 25.050781 27.601562 25.9375 28.886719 C 26.105469 29.128906 26.261719 29.382812 26.410156 29.648438 C 26.707031 29.03125 27.058594 28.511719 27.429688 28.136719 C 28.164062 27.394531 28.984375 27.214844 29.664062 27.816406 C 30.371094 28.4375 31.042969 28.898438 31.667969 29.246094 C 32.003906 28.410156 32.984375 28.144531 34.304688 28.304688 C 36.601562 28.582031 39.953125 30.125 41.980469 31.417969 C 42.886719 32 43.53125 32.539062 43.738281 32.894531 C 43.894531 33.167969 43.933594 33.5 43.847656 33.878906 C 43.742188 34.363281 43.429688 34.933594 42.957031 35.519531 C 42.683594 35.855469 42.363281 36.199219 42 36.539062 C 42.925781 37.355469 43.925781 38.609375 43.996094 39.816406 C 44.070312 41.039062 43.871094 41.804688 43.519531 42.300781 C 43.308594 42.597656 43.042969 42.808594 42.738281 42.960938 C 43.191406 43.601562 43.535156 44.222656 43.738281 44.808594 C 44.164062 46.058594 43.980469 47.167969 42.859375 48.074219 C 42.121094 48.664062 41.433594 48.972656 40.78125 49.078125 C 40.71875 49.089844 40.660156 49.097656 40.597656 49.101562 C 40.082031 49.871094 39.402344 50.574219 38.65625 51.160156 C 38.871094 52.089844 38.644531 52.875 38.242188 53.429688 C 37.792969 54.039062 36.933594 54.886719 35.667969 55.128906 C 35.121094 55.234375 34.5 55.230469 33.800781 55.035156 C 35.226562 56.152344 36.644531 58.402344 39.253906 59.59375 C 42.191406 60.9375 45.03125 60.875 47.71875 60.066406 C 49.648438 59.484375 51.492188 58.519531 53.25 57.414062 C 54.433594 56.671875 55.574219 55.867188 56.667969 55.066406 C 58.507812 53.714844 60.214844 52.375 61.746094 51.355469 C 63.214844 50.375 64.53125 49.695312 65.664062 49.542969 C 65.6875 49.539062 65.714844 49.539062 65.738281 49.539062 C 67.207031 49.371094 68.046875 50.222656 68.835938 51.28125 C 69.601562 52.308594 70.308594 53.5625 71.75 53.921875 C 72.445312 54.09375 73.289062 53.875 74.089844 53.542969 C 75.351562 53.019531 76.273438 52.378906 76.773438 51.960938 C 76.773438 51.960938 76.777344 51.953125 76.792969 51.941406 C 77.148438 51.921875 77.507812 51.890625 77.867188 51.851562 C 77.46875 52.269531 77.210938 52.484375 77.210938 52.484375 C 76.914062 52.734375 75.695312 53.617188 74.351562 54.175781 C 73.410156 54.566406 72.402344 54.789062 71.585938 54.585938 C 69.972656 54.183594 69.140625 52.835938 68.285156 51.6875 C 67.558594 50.714844 66.808594 49.902344 65.292969 50.324219 C 65.273438 50.328125 65.253906 50.335938 65.238281 50.339844 C 64.328125 50.617188 63.3125 51.226562 62.195312 52.007812 C 60.695312 53.0625 59.03125 54.433594 57.214844 55.800781 C 56.113281 56.632812 54.957031 57.460938 53.753906 58.214844 C 51.921875 59.359375 49.984375 60.335938 47.96875 60.910156 C 45.089844 61.734375 42.054688 61.742188 38.945312 60.253906 C 36.230469 58.949219 34.808594 56.550781 33.335938 55.410156 C 32.867188 55.050781 32.398438 54.824219 31.863281 54.851562 Z M 21.863281 57.957031 C 21.570312 58.34375 21.324219 58.632812 21.109375 58.839844 C 20.652344 59.277344 20.292969 59.378906 19.996094 59.3125 C 19.808594 59.269531 19.632812 59.15625 19.464844 58.976562 C 19.421875 58.929688 19.378906 58.882812 19.335938 58.828125 C 18.375 59.738281 17.238281 60.585938 16.09375 61.253906 C 16.546875 61.742188 16.984375 62.089844 17.464844 62.308594 C 18.199219 62.640625 19.03125 62.660156 20.15625 62.433594 C 22.042969 62.046875 23.230469 61.105469 23.921875 59.855469 C 23.242188 59.335938 22.546875 58.667969 21.863281 57.957031 Z M 15.113281 55.175781 C 14.710938 55.753906 14.28125 56.402344 13.820312 56.914062 C 13.03125 57.789062 12.144531 58.253906 11.179688 57.601562 C 10.933594 57.433594 10.714844 57.210938 10.523438 56.945312 C 10.285156 58.027344 10.160156 59.070312 10.140625 59.902344 C 10.125 60.539062 10.167969 61.039062 10.285156 61.316406 C 10.6875 62.246094 11.757812 62.332031 13.046875 61.992188 C 13.734375 61.8125 14.480469 61.503906 15.238281 61.105469 C 15.121094 60.964844 15.003906 60.816406 14.886719 60.65625 C 14.425781 60.050781 14.257812 59.433594 14.109375 58.714844 C 13.925781 57.804688 14.355469 56.980469 14.953125 56.304688 C 15.289062 55.929688 15.621094 55.65625 15.957031 55.464844 C 15.699219 55.355469 15.417969 55.257812 15.113281 55.175781 Z M 16.582031 55.777344 C 16.175781 55.925781 15.773438 56.210938 15.367188 56.667969 C 14.882812 57.214844 14.496094 57.867188 14.648438 58.605469 C 14.777344 59.242188 14.914062 59.789062 15.324219 60.328125 C 15.460938 60.507812 15.59375 60.679688 15.726562 60.835938 C 16.890625 60.167969 18.050781 59.300781 19.015625 58.375 C 18.957031 58.28125 18.894531 58.1875 18.828125 58.085938 C 18.367188 57.375 17.742188 56.449219 16.582031 55.777344 Z M 25.746094 57.988281 C 25.546875 58.078125 25.324219 58.160156 25.089844 58.226562 C 24.984375 58.742188 24.832031 59.234375 24.628906 59.695312 C 24.960938 59.917969 25.289062 60.09375 25.613281 60.210938 C 26.046875 60.367188 26.527344 60.347656 26.855469 60.171875 C 27.007812 60.089844 27.121094 59.972656 27.15625 59.8125 C 27.199219 59.632812 27.136719 59.414062 26.972656 59.15625 C 26.753906 58.8125 26.363281 58.421875 25.746094 57.988281 Z M 22.941406 58.269531 C 23.351562 58.671875 23.761719 59.042969 24.164062 59.359375 C 24.300781 59.039062 24.410156 58.703125 24.496094 58.355469 C 24.015625 58.421875 23.492188 58.414062 22.941406 58.269531 Z M 20.78125 57.214844 C 20.476562 57.625 20.125 58.039062 19.730469 58.441406 C 19.746094 58.464844 19.765625 58.484375 19.78125 58.507812 C 19.894531 58.644531 19.996094 58.75 20.117188 58.777344 C 20.183594 58.792969 20.25 58.777344 20.328125 58.742188 C 20.445312 58.6875 20.578125 58.589844 20.726562 58.445312 C 20.933594 58.25 21.167969 57.972656 21.441406 57.609375 C 21.222656 57.484375 21 57.351562 20.78125 57.214844 Z M 17.394531 55.652344 C 18.316406 56.324219 18.867188 57.136719 19.289062 57.789062 L 19.414062 57.980469 C 19.75 57.628906 20.054688 57.277344 20.320312 56.925781 C 19.789062 56.589844 19.257812 56.261719 18.730469 56.015625 C 18.285156 55.8125 17.839844 55.667969 17.394531 55.652344 Z M 22.984375 56.332031 C 22.714844 56.746094 22.472656 57.105469 22.25 57.421875 C 22.394531 57.492188 22.539062 57.554688 22.683594 57.609375 C 23.378906 57.882812 24.035156 57.894531 24.613281 57.785156 C 24.636719 57.632812 24.65625 57.476562 24.675781 57.320312 C 24.328125 57.125 23.945312 56.925781 23.515625 56.71875 C 23.339844 56.636719 23.160156 56.503906 22.984375 56.332031 Z M 25.101562 52.648438 C 25.042969 52.777344 24.984375 52.90625 24.921875 53.039062 C 25.160156 54.1875 25.296875 55.359375 25.277344 56.472656 C 25.273438 56.65625 25.265625 56.839844 25.25 57.023438 C 25.445312 57.136719 25.628906 57.25 25.796875 57.363281 C 26.238281 57.128906 26.554688 56.878906 26.6875 56.765625 C 27.59375 56.023438 28.105469 55.113281 28.398438 54.136719 C 27.582031 53.695312 26.296875 53.082031 25.101562 52.648438 Z M 16.511719 51.078125 C 15 51.730469 13.492188 52.332031 12.121094 52.761719 C 11.875 53.152344 11.648438 53.582031 11.449219 54.039062 C 11.148438 54.726562 10.898438 55.46875 10.703125 56.210938 C 10.910156 56.605469 11.171875 56.929688 11.492188 57.148438 C 11.910156 57.433594 12.304688 57.398438 12.675781 57.179688 C 13.113281 56.929688 13.515625 56.460938 13.902344 55.945312 C 14.121094 55.648438 14.335938 55.339844 14.539062 55.039062 C 13.585938 54.804688 13.226562 54.078125 13.222656 53.511719 C 13.21875 53.222656 13.308594 52.972656 13.445312 52.816406 C 13.808594 52.410156 14.535156 51.765625 17.136719 53.007812 C 17.382812 52.910156 17.585938 52.800781 17.75 52.683594 C 18.039062 52.476562 18.199219 52.25 18.246094 51.992188 C 18.289062 51.746094 18.238281 51.480469 18.128906 51.203125 C 17.542969 51.167969 16.996094 51.121094 16.511719 51.078125 Z M 21.921875 54.617188 C 21.921875 54.667969 21.917969 54.71875 21.914062 54.769531 C 21.847656 55.316406 21.613281 55.90625 21.253906 56.507812 C 21.390625 56.65625 21.527344 56.800781 21.664062 56.949219 C 21.714844 57 21.761719 57.050781 21.808594 57.101562 C 22.046875 56.761719 22.3125 56.363281 22.609375 55.902344 C 22.351562 55.558594 22.117188 55.140625 21.949219 54.691406 C 21.9375 54.667969 21.929688 54.640625 21.921875 54.617188 Z M 24.515625 53.835938 C 24.34375 54.15625 24.152344 54.480469 23.949219 54.808594 C 23.714844 55.191406 23.492188 55.542969 23.285156 55.867188 C 23.4375 56.027344 23.597656 56.152344 23.753906 56.226562 C 24.101562 56.394531 24.421875 56.558594 24.71875 56.71875 C 24.722656 56.632812 24.726562 56.546875 24.726562 56.460938 C 24.746094 55.605469 24.664062 54.722656 24.515625 53.835938 Z M 17.105469 53.601562 C 16.875 53.683594 16.621094 53.757812 16.332031 53.824219 C 16.222656 53.851562 16.113281 53.933594 15.996094 54.046875 C 15.847656 54.1875 15.691406 54.371094 15.53125 54.585938 C 15.503906 54.621094 15.476562 54.660156 15.449219 54.699219 C 15.894531 54.832031 16.292969 54.996094 16.648438 55.183594 C 16.753906 55.15625 16.859375 55.136719 16.96875 55.125 C 17.628906 55.039062 18.292969 55.210938 18.960938 55.519531 C 19.398438 55.722656 19.835938 55.984375 20.277344 56.257812 C 19.320312 55.226562 18.425781 54.308594 17.664062 53.894531 C 17.46875 53.785156 17.28125 53.691406 17.105469 53.601562 Z M 18.742188 51.328125 C 18.8125 51.59375 18.828125 51.847656 18.785156 52.089844 C 18.703125 52.542969 18.398438 52.96875 17.753906 53.320312 C 17.808594 53.347656 17.867188 53.378906 17.925781 53.414062 C 18.773438 53.875 19.789062 54.929688 20.871094 56.09375 C 21.140625 55.613281 21.3125 55.144531 21.367188 54.707031 C 21.394531 54.46875 21.296875 54.226562 21.15625 53.996094 C 20.90625 53.585938 20.515625 53.210938 20.261719 52.945312 C 19.769531 52.441406 19.28125 51.847656 18.742188 51.328125 Z M 24.203125 52.355469 C 24.0625 52.3125 23.925781 52.277344 23.792969 52.246094 C 23.425781 52.160156 23.101562 52.113281 22.839844 52.125 C 22.667969 52.136719 22.527344 52.15625 22.460938 52.253906 C 22.066406 52.851562 22.167969 53.722656 22.460938 54.5 C 22.585938 54.824219 22.746094 55.140625 22.925781 55.410156 C 23.101562 55.132812 23.285156 54.839844 23.480469 54.523438 C 23.8125 53.984375 24.101562 53.46875 24.347656 52.96875 C 24.300781 52.765625 24.253906 52.558594 24.203125 52.355469 Z M 11.351562 52.992188 C 10.917969 53.109375 10.503906 53.207031 10.109375 53.28125 C 10.109375 53.335938 10.109375 53.390625 10.109375 53.441406 C 10.113281 54.105469 10.199219 54.773438 10.375 55.371094 C 10.539062 54.839844 10.730469 54.316406 10.945312 53.820312 C 11.074219 53.53125 11.207031 53.253906 11.351562 52.992188 Z M 77.898438 54.082031 C 77.035156 53.933594 76.667969 53.824219 76.585938 53.804688 C 76.304688 53.980469 75.957031 54.152344 75.742188 54.269531 C 77.210938 54.734375 78.769531 54.988281 80.390625 54.988281 C 88.820312 54.988281 95.667969 48.15625 95.667969 39.738281 C 95.667969 31.324219 88.820312 24.492188 80.390625 24.492188 C 71.957031 24.492188 65.113281 31.324219 65.113281 39.738281 C 65.113281 45.53125 68.355469 50.574219 73.128906 53.15625 C 73.398438 53.078125 73.746094 52.9375 74.003906 52.828125 C 73.503906 52.582031 73.375 52.523438 72.75 52.136719 C 72.054688 51.710938 71.398438 51.226562 70.789062 50.695312 C 73.566406 51.472656 77.097656 51.519531 80.640625 50.667969 C 84.128906 49.828125 87.625 48.117188 90.398438 45.394531 L 90.386719 45.398438 C 90.0625 45.550781 89.734375 45.699219 89.40625 45.835938 C 89.082031 45.972656 88.753906 46.097656 88.425781 46.222656 L 88.417969 46.222656 C 86.027344 48.105469 83.25 49.335938 80.480469 50.003906 C 76.464844 50.96875 72.457031 50.75 69.644531 49.578125 C 69.140625 49.027344 68.675781 48.441406 68.261719 47.820312 C 72.773438 49.359375 78.078125 49.367188 82.722656 47.5625 C 81.789062 47.667969 80.863281 47.710938 79.957031 47.707031 C 75.84375 48.6875 71.429688 48.347656 67.679688 46.878906 C 67.328125 46.253906 67.019531 45.601562 66.757812 44.921875 C 68.117188 45.703125 69.828125 46.175781 71.71875 46.347656 C 71.914062 46.367188 72.113281 46.382812 72.3125 46.394531 C 71.453125 46.09375 70.636719 45.75 69.871094 45.371094 C 68.53125 45.066406 67.34375 44.574219 66.40625 43.878906 C 66.203125 43.203125 66.050781 42.503906 65.949219 41.785156 L 65.960938 41.800781 C 66.421875 42.265625 66.914062 42.691406 67.4375 43.085938 C 67.851562 43.398438 68.28125 43.691406 68.726562 43.960938 C 69.363281 44.351562 70.019531 44.703125 70.695312 45.011719 C 71.476562 45.371094 72.28125 45.683594 73.101562 45.945312 C 74.1875 46.289062 75.296875 46.550781 76.421875 46.730469 C 78.40625 47.046875 80.429688 47.105469 82.425781 46.90625 C 83.332031 46.8125 84.234375 46.667969 85.128906 46.472656 C 85.984375 46.28125 86.828125 46.042969 87.65625 45.761719 C 89.066406 45.277344 90.433594 44.660156 91.730469 43.925781 C 92.410156 43.542969 93.066406 43.128906 93.707031 42.6875 C 94.082031 42.429688 94.445312 42.164062 94.804688 41.886719 L 94.816406 41.878906 C 94.691406 42.710938 94.5 43.523438 94.242188 44.304688 C 93.484375 44.496094 92.746094 44.617188 92.019531 44.671875 C 91.8125 44.921875 91.59375 45.160156 91.375 45.390625 C 92.214844 45.371094 93.078125 45.265625 93.960938 45.074219 C 93.863281 45.320312 93.757812 45.566406 93.644531 45.8125 C 92.683594 45.941406 91.730469 45.996094 90.792969 45.980469 C 90.558594 46.207031 90.320312 46.425781 90.078125 46.640625 C 91.128906 46.695312 92.199219 46.664062 93.28125 46.542969 C 93.074219 46.9375 92.847656 47.316406 92.609375 47.683594 C 91.597656 47.816406 90.601562 47.867188 89.625 47.851562 C 89.53125 48.078125 89.4375 48.304688 89.34375 48.527344 C 90.242188 48.554688 91.160156 48.523438 92.085938 48.433594 C 91.800781 48.8125 91.5 49.175781 91.183594 49.523438 C 90.402344 49.550781 89.632812 49.546875 88.882812 49.519531 C 88.777344 49.734375 88.667969 49.945312 88.558594 50.152344 C 88.550781 50.164062 88.542969 50.175781 88.535156 50.191406 C 89.179688 50.21875 89.835938 50.230469 90.503906 50.222656 C 90.167969 50.542969 89.820312 50.847656 89.457031 51.136719 C 88.957031 51.15625 88.460938 51.164062 87.972656 51.164062 C 87.824219 51.398438 87.675781 51.625 87.523438 51.84375 C 87.84375 51.847656 88.164062 51.847656 88.488281 51.84375 C 87.480469 52.515625 86.382812 53.066406 85.222656 53.476562 C 86.183594 52.601562 87.125 51.351562 87.945312 49.824219 C 88.332031 49.109375 88.691406 48.332031 89.015625 47.507812 C 88.667969 47.769531 88.316406 48.019531 87.957031 48.257812 C 87.199219 49.933594 86.300781 51.347656 85.355469 52.382812 C 84.597656 53.210938 83.820312 53.792969 83.066406 54.050781 C 82.683594 54.121094 82.300781 54.175781 81.910156 54.21875 C 83.402344 52.777344 84.558594 51.257812 85.4375 49.691406 C 85.074219 49.867188 84.710938 50.03125 84.34375 50.183594 C 83.441406 51.609375 82.285156 52.988281 80.828125 54.289062 C 80.679688 54.292969 80.535156 54.296875 80.390625 54.296875 C 79.839844 54.296875 79.296875 54.265625 78.761719 54.207031 C 79.328125 53.644531 80.265625 52.632812 81.246094 51.230469 C 81.097656 51.269531 80.949219 51.304688 80.800781 51.339844 C 80.613281 51.386719 80.421875 51.429688 80.230469 51.46875 C 79.167969 52.886719 78.222656 53.789062 77.898438 54.082031 Z M 38.167969 51.523438 C 37.191406 52.203125 36.144531 52.683594 35.222656 52.878906 C 35.070312 53.164062 34.816406 53.449219 34.484375 53.707031 C 34.1875 53.9375 33.828125 54.152344 33.433594 54.335938 C 34.25 54.660156 34.960938 54.707031 35.566406 54.59375 C 36.664062 54.382812 37.40625 53.636719 37.796875 53.105469 C 38.09375 52.699219 38.257812 52.15625 38.167969 51.523438 Z M 16.355469 53.253906 C 15.84375 53.039062 15.429688 52.917969 15.09375 52.863281 C 14.34375 52.738281 14.039062 52.976562 13.859375 53.179688 C 13.792969 53.253906 13.769531 53.371094 13.769531 53.503906 C 13.773438 53.898438 14.054688 54.382812 14.746094 54.523438 C 14.789062 54.535156 14.835938 54.542969 14.878906 54.550781 C 15.011719 54.363281 15.140625 54.1875 15.269531 54.03125 C 15.59375 53.628906 15.917969 53.359375 16.207031 53.292969 C 16.257812 53.28125 16.308594 53.269531 16.355469 53.253906 Z M 30.554688 49.109375 C 30.144531 49.339844 29.726562 49.566406 29.308594 49.769531 C 29.320312 50.875 29.34375 52.066406 29.164062 53.214844 C 29.128906 53.433594 29.085938 53.648438 29.035156 53.863281 C 29.171875 53.941406 29.285156 54.011719 29.371094 54.066406 C 29.84375 54.378906 30.496094 54.460938 31.179688 54.398438 C 31.476562 54.371094 31.777344 54.320312 32.074219 54.242188 C 30.308594 53.105469 29.699219 51.605469 29.667969 51.09375 C 29.621094 50.335938 29.996094 49.640625 30.554688 49.109375 Z M 33.800781 48.917969 C 33.433594 48.550781 32.789062 48.558594 32.164062 48.769531 C 31.15625 49.105469 30.152344 49.988281 30.214844 51.0625 C 30.246094 51.546875 30.917969 53.003906 32.773438 54.019531 C 33.296875 53.824219 33.773438 53.5625 34.148438 53.273438 C 34.273438 53.175781 34.390625 53.074219 34.488281 52.96875 C 33.628906 53 32.953125 52.707031 32.628906 52.0625 C 32.5 51.8125 32.527344 51.578125 32.679688 51.335938 C 32.785156 51.164062 32.972656 50.984375 33.203125 50.789062 C 33.382812 50.640625 33.59375 50.484375 33.8125 50.304688 C 33.808594 50.191406 33.804688 50.082031 33.808594 49.972656 C 33.8125 49.648438 33.839844 49.332031 33.828125 49.097656 C 33.824219 49.027344 33.804688 48.9375 33.800781 48.917969 Z M 23.792969 50.917969 C 23.648438 50.949219 23.503906 50.984375 23.355469 51.011719 C 22.128906 51.25 20.746094 51.296875 19.441406 51.261719 C 19.863281 51.699219 20.261719 52.160156 20.65625 52.566406 C 20.933594 52.855469 21.355469 53.265625 21.625 53.710938 C 21.660156 53.769531 21.691406 53.824219 21.722656 53.882812 C 21.59375 53.179688 21.65625 52.480469 22.003906 51.953125 C 22.125 51.769531 22.335938 51.644531 22.625 51.597656 C 22.949219 51.546875 23.402344 51.589844 23.917969 51.710938 C 23.957031 51.722656 24 51.730469 24.039062 51.742188 C 23.960938 51.464844 23.878906 51.1875 23.792969 50.917969 Z M 28.761719 50.027344 C 28.730469 50.039062 28.699219 50.054688 28.671875 50.066406 C 27.632812 50.527344 26.609375 50.832031 25.707031 50.84375 C 25.613281 51.257812 25.480469 51.691406 25.308594 52.140625 C 26.464844 52.566406 27.699219 53.148438 28.535156 53.589844 C 28.570312 53.4375 28.597656 53.285156 28.621094 53.128906 C 28.785156 52.097656 28.777344 51.03125 28.761719 50.027344 Z M 11.535156 49.21875 C 10.34375 48.949219 9.046875 48.464844 7.621094 47.695312 C 7.289062 47.519531 7.050781 47.472656 6.871094 47.578125 C 6.6875 47.683594 6.589844 47.917969 6.519531 48.203125 C 6.257812 49.28125 6.542969 51.039062 6.640625 51.546875 C 6.855469 52.664062 7.816406 52.96875 9.160156 52.859375 C 9.296875 52.847656 9.4375 52.832031 9.578125 52.8125 C 9.636719 52.027344 9.804688 51.28125 10.085938 50.679688 C 10.335938 50.140625 10.679688 49.71875 11.105469 49.472656 C 11.253906 49.386719 11.398438 49.300781 11.535156 49.21875 Z M 12.316406 49.367188 C 12.042969 49.554688 11.730469 49.746094 11.378906 49.949219 C 11.042969 50.140625 10.78125 50.484375 10.582031 50.914062 C 10.34375 51.425781 10.195312 52.054688 10.136719 52.71875 C 10.648438 52.621094 11.195312 52.480469 11.765625 52.304688 C 12 51.960938 12.25 51.652344 12.519531 51.390625 C 13.175781 50.746094 13.941406 50.371094 14.8125 50.394531 C 15.167969 50.40625 15.734375 50.460938 16.429688 50.523438 C 16.675781 50.417969 16.921875 50.308594 17.167969 50.199219 C 16.652344 49.925781 16.078125 49.65625 15.46875 49.378906 C 14.515625 49.523438 13.472656 49.546875 12.316406 49.367188 Z M 33.910156 50.925781 C 33.636719 51.144531 33.394531 51.332031 33.234375 51.507812 C 33.140625 51.617188 33.0625 51.707031 33.117188 51.8125 C 33.292969 52.164062 33.628906 52.34375 34.046875 52.402344 C 34.285156 52.4375 34.550781 52.429688 34.835938 52.390625 C 34.847656 52.332031 34.851562 52.277344 34.847656 52.21875 C 34.832031 52 34.679688 51.796875 34.394531 51.609375 C 34.152344 51.449219 34 51.210938 33.910156 50.925781 Z M 35.863281 48.304688 C 35.625 49.300781 35 49.996094 34.386719 50.53125 L 34.394531 50.582031 C 34.433594 50.816406 34.511719 51.03125 34.699219 51.152344 C 35.167969 51.460938 35.367188 51.820312 35.394531 52.179688 C 35.394531 52.210938 35.398438 52.242188 35.394531 52.273438 C 35.507812 52.242188 35.617188 52.210938 35.734375 52.171875 C 36.480469 51.921875 37.28125 51.5 38.03125 50.957031 C 37.75 50.164062 37.089844 49.257812 35.863281 48.304688 Z M 15.363281 50.980469 C 15.140625 50.960938 14.949219 50.949219 14.796875 50.945312 C 14.074219 50.925781 13.445312 51.25 12.902344 51.78125 C 12.828125 51.855469 12.757812 51.929688 12.6875 52.007812 C 13.546875 51.710938 14.449219 51.359375 15.363281 50.980469 Z M 24.566406 50.691406 C 24.484375 50.71875 24.402344 50.746094 24.320312 50.769531 C 24.441406 51.148438 24.554688 51.53125 24.65625 51.917969 C 24.699219 51.933594 24.746094 51.949219 24.789062 51.960938 C 24.945312 51.5625 25.066406 51.175781 25.152344 50.808594 C 25.082031 50.800781 25.015625 50.789062 24.949219 50.773438 C 24.820312 50.746094 24.695312 50.71875 24.566406 50.691406 Z M 20.578125 49.253906 C 19.855469 49.582031 19.105469 49.925781 18.34375 50.269531 C 18.523438 50.402344 18.695312 50.542969 18.867188 50.699219 C 20.300781 50.761719 21.875 50.742188 23.25 50.472656 C 23.328125 50.457031 23.40625 50.441406 23.484375 50.425781 C 22.371094 50.125 21.386719 49.757812 20.617188 49.28125 Z M 17.753906 50.53125 L 17.558594 50.617188 L 17.847656 50.640625 Z M 35.945312 47.046875 C 35.964844 47.273438 35.96875 47.484375 35.953125 47.6875 C 37.34375 48.714844 38.121094 49.710938 38.480469 50.609375 C 39.023438 50.164062 39.519531 49.65625 39.929688 49.105469 C 38.761719 49 37.6875 48.308594 36.597656 47.523438 C 36.382812 47.367188 36.164062 47.207031 35.945312 47.046875 Z M 24.183594 43.820312 C 24.132812 44.011719 24.105469 44.195312 24.105469 44.378906 C 24.109375 44.761719 23.988281 45.035156 23.789062 45.226562 C 23.59375 45.410156 23.316406 45.515625 22.96875 45.542969 C 22.640625 45.5625 22.242188 45.515625 21.796875 45.402344 C 21.953125 45.636719 22.101562 45.875 22.246094 46.113281 C 22.976562 45.929688 23.640625 45.984375 24.277344 46.433594 C 24.476562 46.578125 24.660156 46.730469 24.820312 46.890625 C 25.039062 46.820312 25.242188 46.757812 25.433594 46.707031 C 25.953125 46.574219 26.371094 46.527344 26.664062 46.578125 C 26.878906 46.613281 27.039062 46.703125 27.144531 46.828125 C 27.257812 46.957031 27.324219 47.128906 27.316406 47.359375 C 27.28125 48.597656 26.71875 49.472656 25.832031 50.074219 C 25.824219 50.144531 25.816406 50.21875 25.804688 50.296875 C 26.703125 50.265625 27.722656 49.910156 28.753906 49.425781 C 28.753906 49.277344 28.753906 49.128906 28.753906 48.984375 C 28.757812 48.101562 28.808594 47.300781 29.019531 46.652344 C 27.386719 45.96875 25.722656 44.945312 24.183594 43.820312 Z M 24.652344 47.527344 C 24.234375 47.675781 23.773438 47.859375 23.28125 48.066406 C 23.550781 48.660156 23.816406 49.316406 24.0625 50.011719 C 24.21875 50.046875 24.375 50.085938 24.535156 50.121094 C 24.808594 50.019531 25.066406 49.898438 25.304688 49.757812 C 25.34375 48.886719 25.132812 48.136719 24.652344 47.527344 Z M 22.777344 48.277344 C 22.273438 48.496094 21.742188 48.730469 21.191406 48.980469 C 21.820312 49.324219 22.578125 49.601562 23.417969 49.839844 C 23.214844 49.289062 22.996094 48.761719 22.777344 48.277344 Z M 19.308594 48.070312 C 18.691406 48.375 18.023438 48.675781 17.296875 48.925781 C 17.539062 49.234375 17.773438 49.539062 17.980469 49.835938 C 18.6875 49.519531 19.390625 49.199219 20.066406 48.890625 C 19.761719 48.640625 19.507812 48.371094 19.308594 48.070312 Z M 33.835938 47.148438 C 33.3125 47.453125 32.703125 47.832031 32.046875 48.230469 C 32.882812 47.96875 33.71875 48.046875 34.203125 48.546875 C 34.269531 48.617188 34.324219 48.71875 34.351562 48.855469 C 34.390625 49.050781 34.378906 49.339844 34.367188 49.660156 C 34.363281 49.710938 34.363281 49.761719 34.359375 49.8125 C 34.824219 49.34375 35.242188 48.75 35.367188 47.945312 C 34.929688 47.660156 34.394531 47.40625 33.835938 47.148438 Z M 16.734375 49.097656 C 16.617188 49.132812 16.496094 49.164062 16.371094 49.195312 C 16.617188 49.3125 16.855469 49.425781 17.082031 49.542969 C 16.96875 49.394531 16.855469 49.246094 16.734375 49.097656 Z M 25.855469 49.363281 C 26.402344 48.875 26.742188 48.222656 26.769531 47.34375 C 26.769531 47.285156 26.765625 47.238281 26.742188 47.203125 C 26.714844 47.15625 26.660156 47.136719 26.59375 47.121094 C 26.511719 47.105469 26.414062 47.101562 26.304688 47.105469 C 26.011719 47.125 25.640625 47.207031 25.203125 47.34375 C 25.609375 47.917969 25.824219 48.59375 25.855469 49.363281 Z M 29.53125 46.855469 C 29.34375 47.449219 29.304688 48.183594 29.300781 48.988281 C 29.300781 49.042969 29.300781 49.101562 29.300781 49.160156 C 30.382812 48.613281 31.453125 47.957031 32.394531 47.382812 C 32.035156 47.441406 31.703125 47.449219 31.394531 47.394531 C 30.789062 47.277344 30.164062 47.09375 29.53125 46.855469 Z M 13.464844 48.46875 C 13.324219 48.605469 13.164062 48.746094 12.980469 48.890625 C 13.496094 48.941406 13.988281 48.949219 14.460938 48.921875 C 14.132812 48.773438 13.796875 48.625 13.464844 48.46875 Z M 15.792969 42.914062 C 15.75 42.917969 15.703125 42.921875 15.660156 42.921875 C 15 42.953125 14.292969 42.828125 13.664062 42.738281 C 13.277344 42.6875 12.925781 42.644531 12.632812 42.675781 C 12.464844 42.695312 12.320312 42.734375 12.21875 42.828125 C 12.117188 42.921875 12.066406 43.066406 12.046875 43.269531 C 12.015625 43.675781 12.191406 44.019531 12.4375 44.339844 C 12.71875 44.707031 13.09375 45.035156 13.421875 45.371094 C 13.878906 45.832031 14.242188 46.308594 14.273438 46.851562 C 14.296875 47.210938 14.1875 47.605469 13.84375 48.046875 C 14.414062 48.308594 14.980469 48.558594 15.519531 48.804688 C 15.808594 48.757812 16.089844 48.695312 16.359375 48.625 C 15.667969 47.753906 14.992188 46.859375 14.667969 46.003906 C 14.417969 45.347656 14.375 44.710938 14.644531 44.121094 C 14.835938 43.695312 15.199219 43.289062 15.792969 42.914062 Z M 21.996094 46.761719 C 21.375 46.980469 20.695312 47.351562 19.933594 47.75 C 19.890625 47.773438 19.847656 47.792969 19.804688 47.816406 C 20.015625 48.121094 20.296875 48.390625 20.632812 48.632812 C 21.300781 48.328125 21.941406 48.042969 22.542969 47.78125 C 22.375 47.445312 22.191406 47.101562 21.996094 46.761719 Z M 37.996094 44.539062 C 37.214844 44.996094 36.382812 45.53125 35.554688 46.015625 C 35.585938 46.03125 35.617188 46.050781 35.644531 46.070312 C 35.710938 46.121094 35.765625 46.1875 35.804688 46.277344 C 36.179688 46.539062 36.550781 46.8125 36.921875 47.078125 C 38.019531 47.871094 39.089844 48.597656 40.289062 48.574219 C 40.472656 48.269531 40.628906 47.953125 40.75 47.628906 C 40.875 47.289062 40.90625 47.03125 40.847656 46.828125 C 40.785156 46.601562 40.613281 46.449219 40.394531 46.3125 C 40.121094 46.140625 39.777344 45.996094 39.417969 45.824219 C 38.703125 45.476562 38.269531 45.046875 38.011719 44.570312 Z M 42.210938 43.160156 C 42.144531 43.179688 42.074219 43.199219 42.003906 43.214844 C 41.285156 43.386719 40.441406 43.410156 39.679688 43.695312 C 39.308594 43.835938 38.902344 44.035156 38.476562 44.265625 C 38.6875 44.671875 39.054688 45.039062 39.660156 45.332031 C 40.039062 45.515625 40.398438 45.667969 40.6875 45.851562 C 41.03125 46.066406 41.277344 46.324219 41.375 46.679688 C 41.457031 46.972656 41.441406 47.335938 41.261719 47.816406 C 41.179688 48.042969 41.082031 48.261719 40.96875 48.476562 C 41.457031 48.347656 41.96875 48.082031 42.511719 47.644531 C 43.425781 46.910156 43.566406 46.003906 43.21875 44.988281 C 43.019531 44.40625 42.667969 43.796875 42.210938 43.160156 Z M 16.777344 43.015625 C 15.878906 43.414062 15.367188 43.855469 15.144531 44.347656 C 14.878906 44.929688 15.03125 45.566406 15.367188 46.222656 C 15.730469 46.949219 16.316406 47.691406 16.894531 48.417969 L 16.929688 48.460938 C 17.703125 48.21875 18.402344 47.90625 19.042969 47.585938 C 18.871094 47.191406 18.785156 46.75 18.796875 46.257812 C 18.804688 45.695312 18.945312 45.078125 19.234375 44.398438 C 18.425781 43.996094 17.582031 43.519531 16.777344 43.015625 Z M 12.882812 36.953125 C 12.179688 36.589844 11.488281 36.394531 10.878906 36.570312 C 10.40625 36.707031 9.984375 37.035156 9.609375 37.4375 C 9.011719 38.082031 8.542969 38.917969 8.230469 39.550781 C 7.617188 40.785156 7.46875 41.84375 7.660156 42.773438 C 7.953125 44.175781 9.019531 45.265625 10.375 46.183594 C 11.273438 46.789062 12.300781 47.320312 13.332031 47.808594 C 13.628906 47.460938 13.746094 47.164062 13.726562 46.886719 C 13.699219 46.464844 13.386719 46.113281 13.03125 45.753906 C 12.6875 45.40625 12.296875 45.058594 12 44.675781 C 11.671875 44.246094 11.457031 43.773438 11.5 43.222656 C 11.53125 42.851562 11.660156 42.597656 11.847656 42.425781 C 12.027344 42.257812 12.277344 42.164062 12.574219 42.132812 C 12.902344 42.097656 13.304688 42.136719 13.738281 42.199219 C 14.335938 42.28125 15.007812 42.40625 15.632812 42.375 C 15.683594 42.375 15.730469 42.371094 15.777344 42.367188 C 15.164062 41.949219 14.597656 41.527344 14.109375 41.128906 C 13.234375 40.417969 12.625 39.765625 12.449219 39.335938 C 12.109375 38.503906 12.304688 37.773438 12.722656 37.164062 C 12.773438 37.09375 12.824219 37.019531 12.882812 36.953125 Z M 24.234375 47.097656 C 24.148438 47.023438 24.058594 46.953125 23.960938 46.882812 C 23.511719 46.566406 23.042969 46.511719 22.539062 46.609375 C 22.722656 46.929688 22.894531 47.25 23.046875 47.566406 C 23.46875 47.390625 23.867188 47.234375 24.234375 47.097656 Z M 19.726562 44.632812 C 19.476562 45.226562 19.355469 45.769531 19.34375 46.269531 C 19.335938 46.660156 19.40625 47.015625 19.539062 47.335938 C 19.585938 47.3125 19.632812 47.289062 19.683594 47.261719 C 20.425781 46.875 21.09375 46.515625 21.707031 46.28125 C 21.472656 45.902344 21.222656 45.519531 20.957031 45.144531 C 20.566406 45.003906 20.152344 44.828125 19.726562 44.632812 Z M 35.183594 46.515625 C 35.128906 46.527344 35.074219 46.542969 35.007812 46.5625 C 34.925781 46.59375 34.835938 46.628906 34.734375 46.671875 C 34.636719 46.714844 34.535156 46.769531 34.421875 46.824219 C 34.769531 46.988281 35.105469 47.152344 35.410156 47.328125 C 35.402344 47.105469 35.378906 46.867188 35.324219 46.613281 L 35.292969 46.589844 C 35.269531 46.574219 35.246094 46.558594 35.222656 46.542969 Z M 31.058594 45.480469 C 30.921875 45.519531 30.785156 45.5625 30.644531 45.613281 C 30.230469 45.769531 29.945312 46.023438 29.75 46.355469 C 30.34375 46.578125 30.929688 46.746094 31.5 46.855469 C 31.914062 46.933594 32.386719 46.863281 32.894531 46.699219 C 32.535156 46.523438 32.1875 46.335938 31.867188 46.125 C 31.570312 45.929688 31.296875 45.71875 31.058594 45.480469 Z M 34.398438 46.035156 L 34.367188 46.015625 C 33.558594 45.574219 32.699219 45.28125 31.746094 45.363281 C 31.878906 45.46875 32.019531 45.570312 32.167969 45.667969 C 32.605469 45.953125 33.09375 46.199219 33.585938 46.433594 C 33.851562 46.316406 34.125 46.179688 34.398438 46.035156 Z M 76.519531 25.703125 C 77.152344 25.507812 77.726562 25.410156 78.347656 25.324219 C 82.433594 30.316406 84.035156 34.902344 84.265625 38.878906 C 84.332031 40.003906 84.285156 41.082031 84.15625 42.105469 C 84.40625 41.953125 84.65625 41.796875 84.898438 41.636719 C 84.984375 40.738281 85.003906 39.808594 84.949219 38.839844 C 84.71875 34.839844 83.152344 30.238281 79.15625 25.234375 C 79.339844 25.214844 79.917969 25.1875 80.226562 25.183594 C 80.566406 25.179688 81.160156 25.195312 81.441406 25.21875 C 82.722656 26.28125 84.769531 29.460938 86.019531 33.5625 C 86.605469 35.496094 87.015625 37.636719 87.078125 39.859375 C 87.304688 39.632812 87.523438 39.398438 87.734375 39.160156 C 87.613281 37.117188 87.21875 35.15625 86.675781 33.363281 C 85.570312 29.738281 83.84375 26.816406 82.53125 25.339844 C 83.335938 25.457031 84.121094 25.640625 84.878906 25.886719 C 85.132812 25.96875 85.320312 26.035156 85.566406 26.128906 C 85.808594 26.21875 86.046875 26.316406 86.28125 26.421875 C 88.34375 29.261719 89.445312 32.386719 89.855469 35.488281 C 90.035156 34.941406 90.171875 34.367188 90.253906 33.773438 C 89.773438 31.476562 88.902344 29.199219 87.535156 27.050781 C 87.933594 27.273438 88.316406 27.515625 88.6875 27.773438 C 88.890625 27.910156 89.125 28.085938 89.160156 28.113281 C 89.703125 28.519531 90.21875 28.96875 90.699219 29.445312 C 92.34375 36.417969 87.992188 41.304688 82.386719 43.804688 C 80.644531 44.582031 78.777344 45.132812 76.925781 45.441406 C 77.667969 45.550781 78.425781 45.621094 79.203125 45.648438 C 80.382812 45.335938 81.550781 44.929688 82.667969 44.429688 C 88.261719 41.933594 92.621094 37.15625 91.585938 30.414062 C 92.246094 31.203125 92.824219 32.066406 93.308594 32.984375 C 92.472656 38.339844 89.929688 42.179688 86.578125 44.667969 C 87.210938 44.46875 87.847656 44.242188 88.484375 43.980469 C 91.03125 41.597656 92.964844 38.316406 93.816406 34.050781 C 94.171875 34.882812 94.449219 35.753906 94.644531 36.65625 C 94.121094 38.65625 93.328125 40.414062 92.332031 41.953125 C 92.785156 41.660156 93.234375 41.34375 93.683594 41.011719 C 94.148438 40.140625 94.554688 39.207031 94.894531 38.210938 C 94.945312 38.710938 94.972656 39.222656 94.972656 39.738281 C 94.972656 40.152344 94.957031 40.5625 94.921875 40.96875 C 94.875 40.980469 94.828125 41 94.785156 41.035156 C 83.632812 49.941406 70.347656 46.132812 65.832031 40.636719 C 65.816406 40.339844 65.804688 40.039062 65.804688 39.738281 C 65.804688 39.5 65.8125 39.261719 65.824219 39.023438 C 65.910156 39.328125 66.011719 39.636719 66.125 39.941406 C 66.191406 39.992188 66.25 40.050781 66.300781 40.117188 C 66.667969 40.574219 67.101562 41.019531 67.589844 41.449219 C 66.703125 39.890625 66.203125 38.273438 66.125 36.699219 C 66.253906 36.089844 66.421875 35.496094 66.628906 34.914062 C 67.003906 37 68.023438 39.183594 69.617188 41.21875 C 69.691406 40.949219 69.769531 40.675781 69.855469 40.402344 C 68.21875 38.183594 67.28125 35.8125 67.160156 33.609375 C 67.554688 32.761719 68.03125 31.953125 68.578125 31.203125 C 68.75 33.347656 69.550781 35.59375 70.851562 37.734375 C 70.960938 37.480469 71.078125 37.230469 71.195312 36.980469 C 69.945312 34.796875 69.238281 32.519531 69.226562 30.375 C 69.707031 29.804688 70.234375 29.269531 70.796875 28.777344 C 70.761719 30.820312 71.289062 32.941406 72.277344 34.976562 C 72.414062 34.746094 72.558594 34.515625 72.707031 34.289062 C 71.796875 32.273438 71.355469 30.1875 71.507812 28.195312 C 72.285156 27.597656 73.125 27.078125 74.015625 26.644531 C 73.886719 27.425781 73.921875 28.378906 74.117188 29.4375 C 74.246094 30.132812 74.441406 30.875 74.703125 31.648438 C 74.875 31.449219 75.050781 31.257812 75.234375 31.066406 C 75.039062 30.457031 74.894531 29.867188 74.789062 29.3125 C 74.570312 28.117188 74.558594 27.070312 74.796875 26.292969 C 75.128906 26.15625 75.46875 26.027344 75.8125 25.914062 C 80.964844 32.3125 82.164062 37.753906 81.726562 41.996094 C 81.675781 42.488281 81.601562 42.96875 81.511719 43.425781 C 81.710938 43.34375 81.910156 43.261719 82.105469 43.171875 C 82.160156 43.148438 82.214844 43.125 82.269531 43.097656 C 82.324219 42.761719 82.371094 42.417969 82.40625 42.066406 C 82.851562 37.746094 81.679688 32.199219 76.519531 25.703125 Z M 27.816406 40.230469 C 27.6875 40.234375 27.566406 40.238281 27.457031 40.246094 C 27.082031 40.28125 26.609375 40.351562 26.074219 40.449219 C 26.03125 40.523438 25.988281 40.597656 25.941406 40.671875 C 25.4375 41.496094 24.867188 42.289062 24.492188 43.042969 C 24.449219 43.125 24.410156 43.207031 24.375 43.289062 C 25.914062 44.425781 27.59375 45.46875 29.234375 46.152344 C 29.492188 45.675781 29.878906 45.316406 30.453125 45.101562 C 30.523438 45.074219 30.597656 45.046875 30.667969 45.027344 C 30.480469 44.765625 30.335938 44.476562 30.242188 44.15625 C 30.183594 43.953125 30.148438 43.742188 30.132812 43.511719 C 28.292969 44.035156 27.054688 44.148438 26.3125 44.015625 C 25.492188 43.867188 25.1875 43.433594 25.21875 42.917969 C 25.253906 42.417969 25.671875 41.773438 26.414062 41.15625 C 26.800781 40.835938 27.273438 40.519531 27.816406 40.230469 Z M 37.417969 39.339844 C 36.710938 39.578125 36.007812 39.730469 35.335938 39.757812 C 35.960938 41.328125 36.242188 42.296875 36.285156 42.851562 C 36.3125 43.246094 36.21875 43.480469 36.089844 43.609375 C 35.945312 43.75 35.730469 43.800781 35.453125 43.730469 C 35.191406 43.664062 34.839844 43.476562 34.449219 43.226562 C 34.042969 42.96875 33.578125 42.640625 33.117188 42.355469 C 32.878906 42.539062 32.507812 42.730469 31.976562 42.921875 C 31.515625 43.082031 31.085938 43.226562 30.679688 43.351562 C 30.679688 43.585938 30.710938 43.800781 30.769531 44.003906 C 30.867188 44.332031 31.03125 44.621094 31.242188 44.875 C 32.492188 44.636719 33.597656 44.972656 34.628906 45.535156 C 34.742188 45.597656 34.851562 45.660156 34.960938 45.726562 C 35.914062 45.1875 36.890625 44.550781 37.796875 44.027344 C 37.640625 43.46875 37.660156 42.867188 37.722656 42.261719 C 37.785156 41.652344 37.890625 41.042969 37.867188 40.492188 C 37.84375 40.054688 37.738281 39.65625 37.417969 39.339844 Z M 21.625 41.769531 C 21.117188 42.355469 20.699219 42.90625 20.367188 43.429688 C 20.691406 43.839844 21.003906 44.261719 21.304688 44.683594 C 21.425781 44.726562 21.546875 44.761719 21.660156 44.796875 C 22.152344 44.941406 22.585938 45.019531 22.929688 44.996094 C 23.132812 44.980469 23.296875 44.933594 23.410156 44.828125 C 23.511719 44.730469 23.558594 44.578125 23.558594 44.378906 C 23.554688 44.085938 23.613281 43.785156 23.714844 43.472656 C 22.976562 42.914062 22.273438 42.339844 21.625 41.769531 Z M 80.460938 35.816406 C 80.539062 36.097656 80.613281 36.378906 80.675781 36.65625 C 79.027344 38.929688 77.8125 41.546875 77.054688 44.078125 C 76.988281 44.304688 76.921875 44.527344 76.863281 44.753906 C 76.617188 44.792969 76.371094 44.832031 76.125 44.863281 C 76.207031 44.539062 76.300781 44.210938 76.398438 43.882812 C 77.226562 41.113281 78.59375 38.253906 80.460938 35.816406 Z M 73.375 44.617188 C 73.152344 44.546875 72.933594 44.46875 72.71875 44.390625 C 73.460938 39.835938 75.664062 35.539062 79.132812 32.339844 C 79.238281 32.558594 79.339844 32.777344 79.4375 32.996094 C 76.144531 36.101562 74.0625 40.238281 73.375 44.617188 Z M 20.066406 43.933594 C 20.027344 44.003906 19.992188 44.070312 19.957031 44.136719 C 20.09375 44.199219 20.226562 44.261719 20.359375 44.316406 C 20.261719 44.1875 20.164062 44.0625 20.066406 43.933594 Z M 18.75 42.324219 C 18.226562 42.488281 17.769531 42.636719 17.410156 42.765625 C 18.09375 43.179688 18.792969 43.570312 19.46875 43.902344 C 19.542969 43.761719 19.621094 43.621094 19.707031 43.472656 C 19.390625 43.082031 19.070312 42.699219 18.75 42.324219 Z M 38.382812 38.957031 C 38.292969 38.996094 38.203125 39.035156 38.113281 39.074219 C 38.066406 39.09375 38.015625 39.113281 37.96875 39.132812 C 38.480469 39.789062 38.460938 40.65625 38.355469 41.578125 C 38.273438 42.296875 38.132812 43.0625 38.292969 43.75 C 38.714844 43.519531 39.117188 43.320312 39.488281 43.183594 C 40.085938 42.960938 40.726562 42.882812 41.328125 42.785156 C 41.511719 42.757812 41.6875 42.726562 41.859375 42.6875 C 41.527344 42.265625 41.15625 41.832031 40.757812 41.390625 C 40.035156 40.59375 39.21875 39.777344 38.382812 38.957031 Z M 28.96875 40.296875 C 28.082031 40.65625 27.324219 41.113281 26.761719 41.578125 C 26.171875 42.070312 25.792969 42.554688 25.769531 42.953125 C 25.75 43.230469 25.972656 43.398438 26.410156 43.476562 C 27.128906 43.605469 28.339844 43.472656 30.148438 42.941406 C 30.175781 42.683594 30.230469 42.410156 30.316406 42.117188 C 30.449219 41.671875 30.667969 41.40625 30.933594 41.265625 C 31.199219 41.125 31.515625 41.101562 31.871094 41.179688 C 32.210938 41.253906 32.59375 41.429688 32.984375 41.648438 C 32.980469 41.59375 32.949219 41.546875 32.90625 41.496094 C 32.832031 41.414062 32.726562 41.335938 32.601562 41.257812 C 31.824219 40.789062 30.273438 40.433594 28.96875 40.296875 Z M 70.527344 43.425781 C 70.3125 43.316406 70.101562 43.199219 69.894531 43.082031 C 70.113281 41.964844 70.417969 40.828125 70.820312 39.691406 C 72.109375 36.050781 74.363281 32.441406 77.6875 29.722656 C 77.808594 29.921875 77.929688 30.121094 78.046875 30.316406 C 74.867188 32.941406 72.703125 36.417969 71.464844 39.917969 C 71.050781 41.09375 70.738281 42.277344 70.527344 43.425781 Z M 34.742188 39.753906 C 34.582031 39.742188 34.425781 39.722656 34.269531 39.695312 C 32.800781 39.433594 31.363281 39.566406 30.101562 39.914062 C 31.1875 40.109375 32.265625 40.417969 32.886719 40.789062 C 33.296875 41.039062 33.515625 41.332031 33.53125 41.617188 C 33.535156 41.722656 33.519531 41.828125 33.46875 41.9375 C 33.914062 42.214844 34.351562 42.515625 34.746094 42.765625 C 35.0625 42.964844 35.339844 43.128906 35.5625 43.191406 C 35.617188 43.207031 35.691406 43.210938 35.707031 43.210938 C 35.714844 43.199219 35.726562 43.171875 35.730469 43.148438 C 35.742188 43.082031 35.746094 42.996094 35.734375 42.894531 C 35.691406 42.34375 35.394531 41.363281 34.742188 39.753906 Z M 20.996094 41.667969 C 20.40625 41.832031 19.839844 41.996094 19.320312 42.152344 C 19.554688 42.421875 19.785156 42.699219 20.011719 42.980469 C 20.289062 42.5625 20.613281 42.125 20.996094 41.667969 Z M 25.34375 40.59375 C 24.328125 40.804688 23.164062 41.089844 22.023438 41.390625 C 22.617188 41.910156 23.257812 42.4375 23.925781 42.949219 C 23.949219 42.898438 23.976562 42.847656 24 42.796875 C 24.347656 42.09375 24.867188 41.355469 25.34375 40.59375 Z M 32.59375 42.050781 C 32.296875 41.894531 32.011719 41.773438 31.75 41.714844 C 31.542969 41.667969 31.351562 41.664062 31.191406 41.75 C 31.035156 41.832031 30.921875 42.003906 30.84375 42.269531 C 30.792969 42.441406 30.753906 42.605469 30.726562 42.761719 C 31.0625 42.65625 31.417969 42.535156 31.792969 42.402344 C 32.132812 42.285156 32.394531 42.167969 32.59375 42.050781 Z M 41.585938 36.90625 C 40.804688 37.574219 39.878906 38.207031 38.90625 38.703125 C 39.703125 39.488281 40.476562 40.265625 41.167969 41.023438 C 41.625 41.527344 42.042969 42.023438 42.414062 42.511719 C 42.601562 42.425781 42.777344 42.316406 42.921875 42.164062 C 43.324219 41.753906 43.523438 41.0625 43.449219 39.847656 C 43.382812 38.753906 42.429688 37.632812 41.585938 36.90625 Z M 13.363281 37.226562 C 12.929688 37.738281 12.652344 38.378906 12.957031 39.128906 C 13.113281 39.511719 13.679688 40.070312 14.457031 40.707031 C 15.039062 41.183594 15.746094 41.695312 16.503906 42.191406 C 16.609375 42.144531 16.714844 42.089844 16.808594 42.019531 C 17.109375 41.800781 17.355469 41.460938 17.523438 40.960938 C 17.324219 40.75 17.128906 40.546875 16.9375 40.347656 C 16.292969 39.679688 14.929688 38.230469 13.488281 37.304688 C 13.445312 37.28125 13.40625 37.253906 13.363281 37.226562 Z M 17.9375 41.414062 C 17.804688 41.722656 17.644531 41.96875 17.460938 42.167969 C 17.722656 42.078125 18.023438 41.980469 18.355469 41.875 C 18.214844 41.71875 18.078125 41.5625 17.9375 41.414062 Z M 18.738281 38.019531 C 18.554688 39.019531 18.359375 39.96875 18.136719 40.816406 C 18.398438 41.101562 18.664062 41.398438 18.929688 41.699219 C 19.535156 41.515625 20.207031 41.320312 20.910156 41.125 C 20.625 40.863281 20.351562 40.605469 20.097656 40.351562 C 19.753906 40.015625 19.46875 39.539062 19.203125 39.011719 C 19.042969 38.695312 18.894531 38.355469 18.738281 38.019531 Z M 19.1875 35.5 C 19.09375 36.03125 19 36.566406 18.90625 37.089844 C 19.117188 37.515625 19.3125 37.960938 19.511719 38.386719 C 19.800781 39.007812 20.097656 39.585938 20.484375 39.960938 C 20.808594 40.285156 21.160156 40.617188 21.535156 40.957031 L 21.648438 40.925781 C 21.863281 40.691406 22.09375 40.457031 22.335938 40.214844 C 23.476562 39.078125 24.746094 38.039062 25.726562 36.789062 C 25.324219 36.867188 24.929688 36.9375 24.542969 36.992188 C 22.929688 37.230469 21.484375 37.210938 20.53125 36.449219 C 20.078125 36.089844 19.625 35.777344 19.1875 35.5 Z M 26.402344 36.796875 C 25.371094 38.207031 23.976562 39.351562 22.722656 40.601562 L 22.664062 40.660156 C 23.746094 40.386719 24.8125 40.136719 25.726562 39.960938 C 26.316406 38.933594 26.734375 37.871094 26.402344 36.796875 Z M 18.335938 37.175781 C 18.253906 37.015625 18.171875 36.859375 18.082031 36.710938 C 17.765625 36.183594 17.40625 35.75 16.921875 35.570312 C 16.4375 35.394531 15.84375 35.480469 15.0625 35.929688 C 14.769531 36.097656 14.234375 36.40625 13.757812 36.828125 L 13.785156 36.84375 C 15.265625 37.792969 16.667969 39.28125 17.332031 39.964844 C 17.449219 40.089844 17.570312 40.214844 17.691406 40.34375 C 17.929688 39.378906 18.136719 38.300781 18.335938 37.175781 Z M 30.875 36.214844 C 29.6875 36.058594 28.292969 36.289062 26.902344 36.558594 C 27.273438 37.667969 26.964844 38.769531 26.417969 39.835938 C 26.792969 39.769531 27.128906 39.726562 27.410156 39.703125 C 27.796875 39.667969 28.316406 39.683594 28.886719 39.742188 C 29.332031 39.566406 29.808594 39.417969 30.308594 39.296875 C 30.109375 39.179688 29.949219 38.910156 29.945312 38.371094 C 29.945312 37.84375 30.210938 37.132812 30.875 36.214844 Z M 31.472656 36.328125 C 30.792969 37.214844 30.492188 37.878906 30.496094 38.367188 C 30.496094 38.53125 30.507812 38.652344 30.539062 38.746094 C 30.554688 38.78125 30.5625 38.8125 30.585938 38.824219 C 30.640625 38.855469 30.707031 38.828125 30.792969 38.804688 C 30.945312 38.753906 31.125 38.664062 31.320312 38.558594 C 31.78125 38.3125 32.324219 37.988281 32.855469 37.839844 C 33.257812 37.726562 33.660156 37.710938 34.027344 37.867188 C 34.410156 38.03125 34.769531 38.382812 35.046875 39.046875 L 35.117188 39.21875 C 35.695312 39.214844 36.300781 39.109375 36.910156 38.925781 C 35.914062 38.164062 34.089844 36.96875 31.472656 36.328125 Z M 34.503906 39.175781 C 34.308594 38.738281 34.078125 38.484375 33.8125 38.371094 C 33.488281 38.234375 33.128906 38.308594 32.769531 38.441406 C 32.351562 38.601562 31.941406 38.847656 31.578125 39.042969 C 31.554688 39.054688 31.53125 39.070312 31.503906 39.082031 C 32.421875 38.972656 33.386719 38.980469 34.367188 39.15625 C 34.414062 39.164062 34.460938 39.171875 34.503906 39.175781 Z M 33.75 34.238281 C 33.074219 34.617188 32.34375 35.304688 31.855469 35.863281 C 34.703125 36.609375 36.613281 37.980469 37.53125 38.714844 C 37.65625 38.671875 37.777344 38.621094 37.902344 38.570312 L 37.960938 38.542969 C 36.464844 37.085938 34.933594 35.621094 33.75 34.238281 Z M 41.132812 36.574219 C 40.65625 36.304688 40.171875 36.289062 39.675781 36.285156 C 38.964844 36.28125 38.230469 36.292969 37.425781 35.847656 C 37.160156 35.703125 36.855469 35.269531 36.464844 34.824219 C 35.980469 34.277344 35.320312 33.714844 34.277344 34.011719 C 35.476562 35.390625 37.007812 36.851562 38.492188 38.296875 C 39.445312 37.828125 40.359375 37.222656 41.132812 36.574219 Z M 20.007812 31.414062 C 19.734375 32.519531 19.503906 33.714844 19.289062 34.917969 C 19.804688 35.234375 20.339844 35.59375 20.871094 36.019531 C 21.726562 36.699219 23.023438 36.660156 24.464844 36.449219 C 25.003906 36.371094 25.5625 36.269531 26.125 36.160156 C 25.632812 35.097656 25.492188 33.890625 25.585938 32.722656 C 23.757812 32.164062 21.742188 31.636719 20.007812 31.414062 Z M 41.566406 36.195312 C 41.933594 35.855469 42.257812 35.511719 42.527344 35.175781 C 42.871094 34.75 43.125 34.335938 43.253906 33.960938 C 43.363281 33.652344 43.382812 33.378906 43.261719 33.167969 C 43.078125 32.851562 42.488281 32.394531 41.683594 31.882812 C 39.71875 30.625 36.46875 29.117188 34.238281 28.847656 C 33.207031 28.722656 32.394531 28.84375 32.160156 29.503906 C 33.449219 30.136719 34.46875 30.304688 34.996094 30.546875 C 35.25 30.664062 35.410156 30.804688 35.492188 30.972656 C 35.578125 31.148438 35.589844 31.367188 35.46875 31.664062 C 35.347656 31.957031 35.042969 32.300781 34.625 32.632812 C 34.347656 32.851562 34.019531 33.070312 33.664062 33.277344 L 33.683594 33.300781 C 33.722656 33.347656 33.757812 33.390625 33.792969 33.4375 L 33.898438 33.5625 C 33.972656 33.53125 34.046875 33.503906 34.121094 33.484375 C 35.429688 33.109375 36.269531 33.777344 36.878906 34.464844 C 37.097656 34.710938 37.28125 34.960938 37.449219 35.148438 C 37.535156 35.246094 37.613281 35.328125 37.691406 35.371094 C 38.402344 35.761719 39.054688 35.734375 39.679688 35.738281 C 40.324219 35.742188 40.945312 35.78125 41.566406 36.195312 Z M 27.652344 33.382812 C 27.691406 33.902344 27.648438 34.371094 27.511719 34.746094 C 27.351562 35.195312 27.152344 35.613281 26.921875 36.007812 C 28.453125 35.71875 29.984375 35.480469 31.253906 35.71875 C 31.75 35.121094 32.597656 34.296875 33.398438 33.816406 C 33.320312 33.722656 33.25 33.632812 33.175781 33.539062 C 32.945312 33.65625 32.710938 33.765625 32.480469 33.863281 C 31.957031 34.082031 31.449219 34.234375 31.03125 34.296875 C 30.714844 34.339844 30.441406 34.328125 30.242188 34.261719 C 29.648438 34.066406 28.738281 33.742188 27.652344 33.382812 Z M 26.125 32.886719 C 26.0625 33.820312 26.164062 34.773438 26.5 35.640625 C 26.691406 35.300781 26.859375 34.941406 26.996094 34.5625 C 27.128906 34.191406 27.148438 33.71875 27.085938 33.195312 C 26.773438 33.09375 26.453125 32.992188 26.125 32.886719 Z M 19.457031 31.351562 C 19.226562 31.332031 19 31.316406 18.78125 31.308594 C 18.039062 31.28125 17.386719 31.339844 16.882812 31.523438 C 16.4375 31.6875 16.117188 31.945312 15.984375 32.351562 C 15.910156 32.578125 15.972656 32.769531 16.121094 32.949219 C 16.253906 33.105469 16.441406 33.253906 16.667969 33.40625 C 17.203125 33.765625 17.949219 34.136719 18.785156 34.621094 C 18.988281 33.5 19.203125 32.386719 19.457031 31.351562 Z M 31.542969 29.800781 C 30.855469 29.433594 30.097656 28.929688 29.300781 28.226562 C 28.84375 27.824219 28.3125 28.027344 27.816406 28.523438 C 27.410156 28.933594 27.03125 29.542969 26.734375 30.261719 C 27.105469 31.03125 27.386719 31.835938 27.539062 32.578125 C 27.554688 32.648438 27.566406 32.714844 27.578125 32.78125 C 28.769531 33.175781 29.773438 33.53125 30.414062 33.742188 C 30.550781 33.789062 30.738281 33.785156 30.953125 33.753906 C 31.332031 33.699219 31.792969 33.554688 32.269531 33.359375 C 32.460938 33.277344 32.652344 33.191406 32.84375 33.09375 C 31.988281 31.90625 31.480469 30.785156 31.542969 29.808594 Z M 32.089844 30.074219 C 32.121094 30.914062 32.597656 31.84375 33.328125 32.835938 C 33.679688 32.636719 34.007812 32.421875 34.285156 32.203125 C 34.613281 31.941406 34.863281 31.6875 34.960938 31.453125 C 35 31.351562 35.027344 31.277344 35 31.214844 C 34.976562 31.152344 34.910156 31.117188 34.824219 31.074219 C 34.703125 31.011719 34.546875 30.957031 34.363281 30.894531 C 33.8125 30.71875 33.027344 30.515625 32.089844 30.074219 Z M 26.46875 31.007812 C 26.386719 31.285156 26.316406 31.570312 26.257812 31.867188 C 26.226562 32.019531 26.203125 32.175781 26.179688 32.335938 C 26.453125 32.417969 26.71875 32.503906 26.980469 32.589844 C 26.871094 32.078125 26.695312 31.539062 26.46875 31.007812 Z M 26.136719 30.292969 C 25.941406 29.910156 25.722656 29.539062 25.484375 29.199219 C 24.714844 28.082031 23.773438 27.226562 22.832031 27.214844 C 22.363281 27.207031 21.902344 27.429688 21.472656 27.933594 C 20.996094 28.492188 20.566406 29.378906 20.203125 30.667969 C 20.183594 30.738281 20.164062 30.808594 20.144531 30.878906 C 21.867188 31.109375 23.847656 31.628906 25.648438 32.171875 C 25.667969 32.035156 25.691406 31.898438 25.71875 31.761719 C 25.820312 31.246094 25.960938 30.75 26.136719 30.292969 " fill-opacity="1" fill-rule="evenodd"/></g></svg>