<svg xmlns="http://www.w3.org/2000/svg" xmlns:xlink="http://www.w3.org/1999/xlink" width="150" zoomAndPan="magnify" viewBox="0 0 112.5 104.999996" height="140" preserveAspectRatio="xMidYMid meet" version="1.0"><defs><clipPath id="017a250097"><path d="M 0.683594 4.824219 L 111.683594 4.824219 L 111.683594 102.324219 L 0.683594 102.324219 Z M 0.683594 4.824219 " clip-rule="nonzero"/></clipPath></defs><g clip-path="url(#017a250097)"><path fill="#ffffff" d="M 108.210938 91.878906 L 107.34375 91.878906 L 107.34375 88.398438 C 107.34375 86.480469 105.785156 84.914062 103.875 84.914062 L 101.277344 84.914062 L 101.277344 81.433594 C 101.277344 79.515625 99.714844 77.949219 97.808594 77.949219 L 89.136719 77.949219 L 89.136719 6.566406 C 89.136719 5.609375 88.355469 4.824219 87.402344 4.824219 L 76.996094 4.824219 C 76.042969 4.824219 75.261719 5.609375 75.261719 6.566406 L 75.261719 29.898438 C 74.132812 28.9375 72.746094 28.15625 71.359375 27.808594 C 70.753906 29.027344 69.972656 30.070312 69.019531 30.941406 C 70.667969 31.027344 72.226562 31.636719 73.355469 32.769531 C 74.566406 33.988281 75.261719 35.640625 75.261719 37.296875 L 75.261719 69.332031 C 75.261719 73.511719 71.792969 76.210938 68.757812 77.253906 C 65.03125 78.558594 60.519531 77.777344 57.3125 75.25 C 54.277344 72.902344 53.0625 69.246094 51.761719 65.414062 C 51.414062 64.28125 50.984375 63.152344 50.550781 62.105469 C 50.117188 61.0625 48.988281 60.367188 47.949219 60.277344 C 46.90625 60.105469 45.78125 60.453125 45 61.234375 C 45 61.234375 44.914062 61.324219 44.914062 61.324219 C 44.914062 61.324219 29.824219 75.6875 29.824219 75.6875 C 29.132812 76.296875 28.265625 76.820312 27.398438 76.730469 C 25.402344 76.558594 24.449219 74.121094 25.75 72.554688 L 47.773438 50.789062 C 48.382812 50.179688 49.335938 50.179688 50.027344 50.617188 L 59.394531 62.890625 C 59.828125 63.5 60.609375 63.761719 61.300781 63.5 C 61.996094 63.238281 62.515625 62.628906 62.515625 61.84375 L 62.515625 42.433594 L 64.25 41.300781 C 65.03125 40.777344 65.289062 39.648438 64.769531 38.863281 C 64.25 38.078125 63.121094 37.820312 62.339844 38.339844 L 50.550781 46.261719 C 50.550781 46.261719 50.460938 46.261719 50.460938 46.351562 C 50.117188 46.609375 49.769531 46.699219 49.421875 46.609375 C 49.074219 46.4375 48.640625 45.914062 48.554688 44.957031 C 48.554688 44.957031 46.90625 27.808594 46.90625 27.808594 C 46.820312 26.851562 47.515625 25.804688 48.554688 25.804688 C 49.421875 25.804688 50.203125 26.5 50.289062 27.371094 L 50.460938 28.679688 L 51.414062 36.859375 C 51.503906 37.46875 51.9375 37.992188 52.457031 38.253906 C 52.976562 38.515625 53.757812 38.429688 54.191406 38.078125 L 58.960938 34.421875 C 57.574219 34.164062 56.183594 33.726562 54.972656 33.117188 L 54.449219 33.464844 L 53.757812 27.546875 C 55.316406 29.722656 57.917969 31.117188 60.78125 31.117188 C 65.550781 31.117188 69.453125 27.199219 69.453125 22.410156 C 69.453125 17.621094 65.550781 13.703125 60.78125 13.703125 C 56.011719 13.703125 52.109375 17.621094 52.109375 22.410156 C 52.109375 22.933594 52.195312 23.453125 52.28125 23.976562 C 51.070312 22.84375 49.769531 22.234375 48.382812 22.234375 C 46.992188 22.234375 45.605469 22.84375 44.566406 23.976562 C 43.523438 25.109375 43.089844 26.589844 43.179688 28.15625 L 44.914062 45.21875 C 45 46.261719 45.347656 47.132812 45.78125 47.917969 C 45.605469 48.089844 45.347656 48.179688 45.171875 48.4375 L 23.0625 70.203125 C 23.0625 70.203125 22.972656 70.289062 22.972656 70.289062 C 21.414062 72.117188 20.980469 74.554688 22.019531 76.730469 C 22.195312 77.167969 22.453125 77.515625 22.714844 77.949219 L 14.5625 77.949219 C 12.65625 77.949219 11.09375 79.515625 11.09375 81.433594 L 11.09375 84.914062 L 8.492188 84.914062 C 6.585938 84.914062 5.023438 86.480469 5.023438 88.398438 L 5.023438 91.878906 L 4.15625 91.878906 C 2.25 91.878906 0.6875 93.445312 0.6875 95.359375 L 0.6875 100.585938 C 0.6875 101.542969 1.46875 102.324219 2.421875 102.324219 L 109.945312 102.324219 C 110.902344 102.324219 111.679688 101.542969 111.679688 100.585938 L 111.679688 95.359375 C 111.679688 93.445312 110.121094 91.878906 108.210938 91.878906 Z M 58.785156 44.78125 L 58.785156 56.882812 L 52.714844 48.875 Z M 60.519531 17.011719 C 63.382812 17.011719 65.722656 19.363281 65.722656 22.234375 C 65.722656 25.109375 63.382812 27.460938 60.519531 27.460938 C 57.660156 27.460938 55.316406 25.109375 55.316406 22.234375 C 55.316406 19.363281 57.660156 17.011719 60.519531 17.011719 Z M 78.730469 69.417969 L 78.730469 8.308594 L 85.667969 8.308594 L 85.667969 77.949219 L 78.730469 77.949219 Z M 75.261719 77.339844 L 75.261719 77.949219 L 74.566406 77.949219 C 74.828125 77.777344 75.089844 77.515625 75.261719 77.339844 Z M 49.941406 70.726562 C 51.070312 73.421875 52.542969 75.949219 55.058594 77.949219 L 42.484375 77.949219 Z M 47.339844 63.847656 C 47.425781 63.761719 47.425781 63.761719 47.425781 63.671875 C 47.773438 64.632812 48.121094 65.589844 48.46875 66.632812 C 48.554688 66.808594 48.554688 66.980469 48.640625 67.15625 L 39.796875 75.601562 C 39.710938 75.6875 39.710938 75.6875 39.625 75.773438 C 39.101562 76.382812 38.410156 76.730469 37.628906 76.730469 C 36.589844 76.730469 35.722656 76.121094 35.289062 75.25 Z M 32.6875 77.6875 C 32.773438 77.777344 32.773438 77.863281 32.859375 77.949219 L 32.425781 77.949219 Z M 14.5625 81.433594 L 97.808594 81.433594 L 97.808594 84.914062 L 14.5625 84.914062 Z M 8.492188 88.398438 L 103.875 88.398438 L 103.875 91.878906 L 8.492188 91.878906 Z M 108.210938 98.84375 L 4.15625 98.84375 L 4.15625 95.359375 L 108.210938 95.359375 Z M 108.210938 98.84375 " fill-opacity="1" fill-rule="nonzero"/></g></svg>