<svg xmlns="http://www.w3.org/2000/svg" xmlns:xlink="http://www.w3.org/1999/xlink" width="50" zoomAndPan="magnify" viewBox="0 0 37.5 37.499999" height="50" preserveAspectRatio="xMidYMid meet" version="1.0"><defs><clipPath id="id1"><path d="M 1.007812 1.101562 L 36.257812 1.101562 L 36.257812 36.351562 L 1.007812 36.351562 Z M 1.007812 1.101562 " clip-rule="nonzero"/></clipPath><clipPath id="id2"><path d="M 0 0 L 37.007812 0 L 37.007812 37.007812 L 0 37.007812 Z M 0 0 " clip-rule="nonzero"/></clipPath><clipPath id="id3"><path d="M 3.75 6.476562 L 33.75 6.476562 L 33.75 31.226562 L 3.75 31.226562 Z M 3.75 6.476562 " clip-rule="nonzero"/></clipPath><clipPath id="id4"><path d="M 30.128906 20.105469 C 30.128906 19.085938 30.9375 18.265625 31.941406 18.265625 C 32.941406 18.265625 33.75 19.089844 33.75 20.105469 C 33.75 21.125 32.9375 21.941406 31.941406 21.941406 C 31.628906 21.941406 31.328125 21.863281 31.074219 21.71875 L 29.769531 23.671875 C 30.074219 23.945312 30.273438 24.347656 30.273438 24.804688 C 30.273438 25.632812 29.609375 26.304688 28.792969 26.304688 C 27.976562 26.304688 27.316406 25.632812 27.316406 24.804688 C 27.316406 24.234375 27.628906 23.738281 28.089844 23.484375 L 27.722656 22.539062 C 27.636719 22.558594 27.546875 22.566406 27.460938 22.566406 C 26.8125 22.566406 26.289062 22.03125 26.289062 21.378906 C 26.289062 20.71875 26.816406 20.183594 27.460938 20.183594 C 27.566406 20.183594 27.675781 20.199219 27.773438 20.226562 L 28.53125 18.511719 C 28.347656 18.367188 28.226562 18.140625 28.226562 17.882812 C 28.226562 17.441406 28.574219 17.089844 29.007812 17.089844 C 29.199219 17.089844 29.371094 17.15625 29.507812 17.273438 L 30.867188 16.222656 C 30.769531 16.042969 30.714844 15.828125 30.714844 15.605469 C 30.714844 15.238281 30.875 14.898438 31.121094 14.667969 L 30.28125 13.414062 C 30.121094 13.488281 29.945312 13.53125 29.757812 13.53125 C 29.320312 13.53125 28.9375 13.292969 28.726562 12.945312 L 27.449219 13.488281 C 27.449219 13.507812 27.457031 13.527344 27.457031 13.539062 C 27.457031 13.839844 27.242188 14.085938 26.960938 14.132812 L 26.789062 15.394531 C 27.21875 15.53125 27.523438 15.9375 27.523438 16.414062 C 27.523438 17.007812 27.050781 17.492188 26.46875 17.492188 C 26.074219 17.492188 25.734375 17.273438 25.546875 16.949219 L 24.03125 17.519531 C 24.03125 17.523438 24.03125 17.527344 24.03125 17.539062 C 24.03125 17.855469 23.78125 18.109375 23.46875 18.109375 C 23.4375 18.109375 23.398438 18.105469 23.367188 18.101562 L 22.597656 19.523438 C 22.691406 19.609375 22.769531 19.710938 22.820312 19.832031 L 24.945312 19.375 C 24.980469 19.089844 25.21875 18.867188 25.507812 18.867188 C 25.820312 18.867188 26.070312 19.125 26.070312 19.441406 C 26.070312 19.734375 25.851562 19.976562 25.570312 20.011719 L 24.945312 23.042969 C 25.609375 23.257812 26.085938 23.890625 26.085938 24.632812 C 26.085938 25.554688 25.347656 26.308594 24.433594 26.308594 C 24.40625 26.308594 24.378906 26.308594 24.351562 26.308594 L 24.101562 27.863281 C 24.328125 27.964844 24.484375 28.199219 24.484375 28.46875 C 24.484375 28.773438 24.289062 29.023438 24.019531 29.109375 L 24.042969 30.28125 C 24.214844 30.347656 24.339844 30.523438 24.339844 30.722656 C 24.339844 30.984375 24.128906 31.195312 23.875 31.195312 C 23.617188 31.195312 23.40625 30.984375 23.40625 30.722656 C 23.40625 30.675781 23.417969 30.628906 23.429688 30.582031 L 22.617188 29.890625 C 22.511719 29.960938 22.386719 30.003906 22.246094 30.003906 C 21.886719 30.003906 21.597656 29.710938 21.597656 29.34375 C 21.597656 29.085938 21.75 28.863281 21.960938 28.753906 L 21.824219 27.964844 C 21.8125 27.964844 21.800781 27.964844 21.789062 27.964844 C 21.136719 27.964844 20.605469 27.425781 20.605469 26.761719 C 20.605469 26.101562 21.136719 25.5625 21.789062 25.5625 C 22.101562 25.5625 22.382812 25.683594 22.59375 25.882812 L 23.042969 25.519531 C 22.882812 25.257812 22.789062 24.953125 22.789062 24.621094 C 22.789062 24.304688 22.875 24.007812 23.03125 23.75 L 21.875 22.851562 C 21.785156 22.914062 21.679688 22.949219 21.5625 22.949219 C 21.4375 22.949219 21.320312 22.910156 21.226562 22.835938 L 20.492188 23.355469 C 20.625 23.59375 20.695312 23.871094 20.695312 24.164062 C 20.695312 25.101562 19.949219 25.859375 19.023438 25.859375 C 18.242188 25.859375 17.589844 25.3125 17.40625 24.574219 L 16.15625 24.75 C 16.144531 25.351562 15.660156 25.835938 15.0625 25.835938 C 14.457031 25.835938 13.964844 25.339844 13.964844 24.722656 C 13.964844 24.105469 14.457031 23.609375 15.0625 23.609375 C 15.171875 23.609375 15.28125 23.628906 15.378906 23.65625 L 16.710938 20.914062 C 16.371094 20.683594 16.140625 20.304688 16.097656 19.867188 L 14.996094 19.832031 C 14.917969 20.039062 14.722656 20.183594 14.488281 20.183594 C 14.425781 20.183594 14.371094 20.175781 14.316406 20.15625 L 13.433594 21.316406 C 13.710938 21.59375 13.878906 21.972656 13.878906 22.390625 C 13.878906 23.226562 13.210938 23.902344 12.390625 23.902344 C 11.699219 23.902344 11.117188 23.421875 10.949219 22.769531 L 9.929688 22.910156 C 9.910156 23.5 9.429688 23.980469 8.839844 23.980469 C 8.238281 23.980469 7.753906 23.484375 7.753906 22.875 C 7.753906 22.296875 8.195312 21.824219 8.753906 21.777344 L 8.851562 20.5625 C 8.65625 20.480469 8.519531 20.28125 8.519531 20.046875 C 8.519531 19.738281 8.765625 19.484375 9.074219 19.484375 C 9.144531 19.484375 9.207031 19.5 9.265625 19.519531 L 11.351562 16.914062 C 11.300781 16.828125 11.265625 16.722656 11.265625 16.613281 C 11.265625 16.464844 11.328125 16.324219 11.421875 16.226562 L 11.097656 15.589844 C 10.933594 15.652344 10.761719 15.6875 10.582031 15.6875 C 10.320312 15.6875 10.074219 15.617188 9.863281 15.496094 L 8.609375 17.261719 C 8.738281 17.410156 8.820312 17.609375 8.820312 17.828125 C 8.820312 18.292969 8.445312 18.667969 7.988281 18.667969 C 7.894531 18.667969 7.800781 18.65625 7.71875 18.621094 L 6.40625 20.792969 C 6.707031 21.039062 6.894531 21.410156 6.894531 21.832031 C 6.894531 22.578125 6.300781 23.179688 5.570312 23.179688 C 4.835938 23.179688 4.246094 22.578125 4.246094 21.832031 C 4.246094 21.226562 4.640625 20.714844 5.179688 20.546875 L 5.078125 19.90625 C 5.070312 19.90625 5.066406 19.90625 5.054688 19.90625 C 4.375 19.90625 3.824219 19.347656 3.824219 18.65625 C 3.824219 17.96875 4.371094 17.410156 5.046875 17.40625 L 5.121094 16.851562 C 4.332031 16.65625 3.746094 15.933594 3.746094 15.070312 C 3.746094 14.0625 4.550781 13.242188 5.546875 13.242188 C 6.371094 13.242188 7.070312 13.804688 7.28125 14.578125 L 9.09375 14.25 C 9.09375 14.222656 9.09375 14.199219 9.09375 14.171875 C 9.09375 13.914062 9.160156 13.671875 9.265625 13.460938 L 7.929688 12.507812 C 7.777344 12.652344 7.578125 12.734375 7.359375 12.734375 C 6.898438 12.734375 6.519531 12.351562 6.519531 11.882812 C 6.519531 11.414062 6.898438 11.03125 7.359375 11.03125 C 7.820312 11.03125 8.199219 11.414062 8.199219 11.882812 C 8.199219 12 8.175781 12.109375 8.132812 12.210938 L 9.472656 13.160156 C 9.664062 12.945312 9.917969 12.785156 10.203125 12.707031 L 10.199219 11.328125 C 9.695312 11.242188 9.3125 10.804688 9.3125 10.269531 C 9.3125 9.675781 9.789062 9.195312 10.371094 9.195312 C 10.714844 9.195312 11.019531 9.359375 11.210938 9.613281 L 12.902344 8.714844 C 12.859375 8.585938 12.835938 8.453125 12.835938 8.3125 C 12.835938 7.636719 13.378906 7.082031 14.050781 7.082031 C 14.714844 7.082031 15.261719 7.628906 15.261719 8.3125 C 15.261719 8.761719 15.023438 9.160156 14.664062 9.375 L 15.226562 10.773438 C 15.3125 10.757812 15.402344 10.742188 15.5 10.742188 C 15.71875 10.742188 15.929688 10.804688 16.105469 10.914062 L 17.375 9.351562 C 17.085938 9.046875 16.902344 8.632812 16.902344 8.179688 C 16.902344 7.257812 17.640625 6.503906 18.554688 6.503906 C 19.464844 6.503906 20.203125 7.25 20.203125 8.179688 C 20.203125 8.59375 20.054688 8.972656 19.8125 9.257812 L 21.070312 10.605469 C 21.148438 10.566406 21.230469 10.546875 21.320312 10.546875 C 21.34375 10.546875 21.367188 10.546875 21.382812 10.550781 L 22.054688 9.078125 C 21.78125 8.886719 21.597656 8.5625 21.597656 8.195312 C 21.597656 7.601562 22.074219 7.117188 22.65625 7.117188 C 23.238281 7.117188 23.714844 7.601562 23.714844 8.195312 C 23.714844 8.328125 23.691406 8.453125 23.652344 8.566406 L 24.71875 9.199219 C 24.984375 8.84375 25.410156 8.609375 25.878906 8.609375 C 26.6875 8.609375 27.339844 9.273438 27.339844 10.09375 C 27.339844 10.292969 27.300781 10.480469 27.230469 10.652344 L 28.808594 11.546875 C 29.027344 11.257812 29.371094 11.070312 29.761719 11.070312 C 30.429688 11.070312 30.972656 11.617188 30.972656 12.296875 C 30.972656 12.652344 30.820312 12.972656 30.585938 13.195312 L 31.421875 14.449219 C 31.585938 14.371094 31.773438 14.324219 31.96875 14.324219 C 32.660156 14.324219 33.21875 14.890625 33.21875 15.589844 C 33.21875 16.292969 32.660156 16.859375 31.96875 16.859375 C 31.628906 16.859375 31.316406 16.722656 31.09375 16.496094 L 29.730469 17.546875 C 29.773438 17.648438 29.796875 17.757812 29.796875 17.871094 C 29.796875 18.308594 29.445312 18.664062 29.011719 18.664062 C 28.960938 18.664062 28.910156 18.660156 28.863281 18.652344 L 28.101562 20.367188 C 28.425781 20.578125 28.640625 20.949219 28.640625 21.363281 C 28.640625 21.800781 28.40625 22.183594 28.0625 22.390625 L 28.429688 23.339844 C 28.550781 23.304688 28.671875 23.292969 28.804688 23.292969 C 29.046875 23.292969 29.277344 23.355469 29.480469 23.457031 L 30.785156 21.507812 C 30.386719 21.171875 30.136719 20.664062 30.136719 20.09375 Z M 10.5625 12.667969 L 10.558594 11.335938 C 11.054688 11.25 11.433594 10.804688 11.433594 10.273438 C 11.433594 10.160156 11.414062 10.046875 11.382812 9.941406 L 13.074219 9.042969 C 13.292969 9.351562 13.652344 9.546875 14.054688 9.546875 C 14.152344 9.546875 14.246094 9.539062 14.339844 9.515625 L 14.898438 10.917969 C 14.554688 11.125 14.320312 11.507812 14.320312 11.949219 C 14.320312 12.480469 14.660156 12.929688 15.132812 13.089844 L 14.878906 14.605469 C 14.847656 14.605469 14.816406 14.601562 14.777344 14.601562 C 13.855469 14.601562 13.109375 15.359375 13.109375 16.296875 C 13.109375 17.234375 13.855469 17.992188 14.777344 17.992188 C 15.652344 17.992188 16.371094 17.304688 16.441406 16.433594 L 17.40625 16.40625 C 17.488281 16.621094 17.6875 16.769531 17.925781 16.769531 C 18.09375 16.769531 18.242188 16.695312 18.34375 16.570312 L 19.609375 17.082031 C 19.59375 17.160156 19.585938 17.234375 19.585938 17.3125 C 19.585938 17.90625 20.066406 18.394531 20.652344 18.394531 C 21.238281 18.394531 21.71875 17.90625 21.71875 17.3125 C 21.71875 17.050781 21.625 16.808594 21.476562 16.621094 L 22.816406 15.046875 C 23.050781 15.203125 23.328125 15.296875 23.628906 15.296875 C 24.433594 15.296875 25.085938 14.636719 25.085938 13.816406 C 25.085938 12.996094 24.433594 12.332031 23.628906 12.332031 C 23.324219 12.332031 23.039062 12.429688 22.804688 12.589844 L 21.808594 11.429688 C 21.859375 11.34375 21.886719 11.238281 21.886719 11.128906 C 21.886719 10.964844 21.816406 10.8125 21.707031 10.703125 L 22.371094 9.230469 C 22.460938 9.253906 22.554688 9.269531 22.648438 9.269531 C 22.972656 9.269531 23.269531 9.117188 23.460938 8.878906 L 24.527344 9.511719 C 24.453125 9.691406 24.410156 9.886719 24.410156 10.09375 C 24.410156 10.914062 25.0625 11.574219 25.871094 11.574219 C 25.949219 11.574219 26.027344 11.570312 26.101562 11.554688 L 26.523438 13.03125 C 26.363281 13.136719 26.261719 13.320312 26.261719 13.527344 C 26.261719 13.769531 26.402344 13.972656 26.597656 14.070312 L 26.425781 15.332031 C 25.855469 15.351562 25.398438 15.824219 25.398438 16.40625 C 25.398438 16.472656 25.402344 16.539062 25.417969 16.605469 L 23.902344 17.171875 C 23.800781 17.039062 23.640625 16.960938 23.464844 16.960938 C 23.152344 16.960938 22.898438 17.214844 22.898438 17.535156 C 22.898438 17.683594 22.957031 17.816406 23.050781 17.921875 L 22.28125 19.34375 C 22.199219 19.320312 22.117188 19.304688 22.03125 19.304688 C 21.558594 19.304688 21.175781 19.691406 21.175781 20.175781 C 21.175781 20.660156 21.558594 21.046875 22.03125 21.046875 C 22.507812 21.046875 22.890625 20.660156 22.890625 20.175781 L 25.015625 19.714844 C 25.066406 19.800781 25.132812 19.871094 25.21875 19.921875 L 24.59375 22.949219 C 24.542969 22.945312 24.484375 22.941406 24.429688 22.941406 C 23.964844 22.941406 23.539062 23.140625 23.234375 23.457031 L 22.078125 22.558594 C 22.097656 22.5 22.113281 22.433594 22.113281 22.375 C 22.113281 22.054688 21.859375 21.800781 21.546875 21.800781 C 21.234375 21.800781 20.984375 22.054688 20.984375 22.375 C 20.984375 22.429688 20.992188 22.480469 21.007812 22.535156 L 20.273438 23.050781 C 19.96875 22.691406 19.515625 22.464844 19.011719 22.464844 C 18.089844 22.464844 17.34375 23.222656 17.34375 24.160156 C 17.34375 24.175781 17.34375 24.195312 17.34375 24.210938 L 16.09375 24.386719 C 16.023438 24.152344 15.875 23.949219 15.683594 23.8125 L 17.015625 21.070312 C 17.15625 21.117188 17.308594 21.148438 17.46875 21.148438 C 18.238281 21.148438 18.863281 20.511719 18.863281 19.730469 C 18.863281 18.949219 18.238281 18.320312 17.46875 18.320312 C 16.777344 18.320312 16.203125 18.832031 16.09375 19.503906 L 14.992188 19.464844 C 14.921875 19.238281 14.714844 19.078125 14.472656 19.078125 C 14.175781 19.078125 13.929688 19.324219 13.929688 19.632812 C 13.929688 19.746094 13.960938 19.84375 14.015625 19.933594 L 13.136719 21.09375 C 12.914062 20.957031 12.652344 20.882812 12.375 20.882812 C 11.554688 20.882812 10.886719 21.558594 10.886719 22.390625 C 10.886719 22.398438 10.886719 22.40625 10.886719 22.410156 L 9.867188 22.546875 C 9.753906 22.183594 9.460938 21.894531 9.09375 21.800781 L 9.191406 20.589844 C 9.433594 20.527344 9.609375 20.304688 9.609375 20.042969 C 9.609375 19.933594 9.578125 19.832031 9.527344 19.746094 L 11.613281 17.140625 C 11.671875 17.164062 11.738281 17.171875 11.800781 17.171875 C 12.109375 17.171875 12.355469 16.921875 12.355469 16.609375 C 12.355469 16.300781 12.109375 16.046875 11.800781 16.046875 C 11.773438 16.046875 11.746094 16.046875 11.722656 16.050781 L 11.402344 15.417969 C 11.792969 15.144531 12.054688 14.6875 12.054688 14.167969 C 12.054688 13.332031 11.386719 12.65625 10.566406 12.65625 C 10.558594 12.65625 10.554688 12.65625 10.546875 12.65625 Z M 15.230469 14.667969 L 15.480469 13.152344 C 15.484375 13.152344 15.496094 13.152344 15.5 13.152344 C 15.929688 13.152344 16.300781 12.921875 16.511719 12.574219 L 18.238281 13.300781 C 18.214844 13.398438 18.199219 13.5 18.199219 13.605469 C 18.199219 14.296875 18.75 14.859375 19.429688 14.859375 C 20.113281 14.859375 20.660156 14.296875 20.660156 13.605469 C 20.660156 13.269531 20.53125 12.96875 20.320312 12.742188 L 21.128906 11.683594 C 21.1875 11.707031 21.253906 11.71875 21.320312 11.71875 C 21.398438 11.71875 21.472656 11.703125 21.542969 11.671875 L 22.539062 12.832031 C 22.308594 13.089844 22.167969 13.441406 22.167969 13.820312 C 22.167969 14.203125 22.3125 14.550781 22.546875 14.816406 L 21.207031 16.386719 C 21.042969 16.289062 20.859375 16.230469 20.652344 16.230469 C 20.265625 16.230469 19.929688 16.4375 19.738281 16.75 L 18.476562 16.242188 C 18.476562 16.230469 18.476562 16.222656 18.476562 16.210938 C 18.476562 15.898438 18.226562 15.648438 17.921875 15.648438 C 17.671875 15.648438 17.464844 15.8125 17.394531 16.046875 L 16.429688 16.074219 C 16.339844 15.398438 15.859375 14.851562 15.226562 14.667969 Z M 19.550781 9.515625 L 20.8125 10.859375 C 20.769531 10.941406 20.742188 11.035156 20.742188 11.136719 C 20.742188 11.253906 20.777344 11.367188 20.839844 11.460938 L 20.03125 12.519531 C 19.855469 12.414062 19.644531 12.355469 19.425781 12.355469 C 18.976562 12.355469 18.585938 12.601562 18.371094 12.964844 L 16.648438 12.234375 C 16.671875 12.144531 16.679688 12.042969 16.679688 11.945312 C 16.679688 11.636719 16.5625 11.359375 16.375 11.144531 L 17.644531 9.582031 C 17.90625 9.757812 18.214844 9.855469 18.550781 9.855469 C 18.925781 9.855469 19.273438 9.730469 19.550781 9.511719 Z M 26.867188 12.941406 L 26.449219 11.460938 C 26.691406 11.359375 26.894531 11.1875 27.050781 10.972656 L 28.625 11.871094 C 28.574219 12 28.546875 12.148438 28.546875 12.300781 C 28.546875 12.40625 28.558594 12.503906 28.582031 12.601562 L 27.304688 13.148438 C 27.199219 13.019531 27.046875 12.941406 26.867188 12.933594 Z M 24.003906 26.242188 L 23.757812 27.796875 C 23.429688 27.832031 23.175781 28.117188 23.175781 28.457031 C 23.175781 28.773438 23.382812 29.03125 23.667969 29.109375 L 23.691406 30.28125 C 23.683594 30.285156 23.667969 30.292969 23.660156 30.296875 L 22.84375 29.605469 C 22.882812 29.523438 22.898438 29.433594 22.898438 29.339844 C 22.898438 29 22.644531 28.71875 22.316406 28.6875 L 22.175781 27.898438 C 22.644531 27.738281 22.980469 27.289062 22.980469 26.761719 C 22.980469 26.546875 22.921875 26.34375 22.820312 26.167969 L 23.273438 25.800781 C 23.472656 26.003906 23.726562 26.160156 24.007812 26.238281 Z M 9.574219 15.289062 L 8.320312 17.054688 C 8.21875 17.011719 8.105469 16.984375 7.988281 16.984375 C 7.53125 16.984375 7.160156 17.363281 7.160156 17.828125 C 7.160156 18.0625 7.257812 18.28125 7.414062 18.433594 L 6.105469 20.601562 C 5.941406 20.527344 5.757812 20.488281 5.570312 20.488281 C 5.554688 20.488281 5.546875 20.488281 5.53125 20.488281 L 5.429688 19.847656 C 5.925781 19.6875 6.285156 19.214844 6.285156 18.660156 C 6.285156 18.09375 5.914062 17.613281 5.402344 17.460938 L 5.476562 16.90625 C 5.5 16.90625 5.523438 16.90625 5.550781 16.90625 C 6.542969 16.90625 7.351562 16.089844 7.351562 15.082031 C 7.351562 15.03125 7.351562 14.988281 7.34375 14.941406 L 9.160156 14.621094 C 9.238281 14.882812 9.382812 15.113281 9.574219 15.292969 Z M 10.933594 18.972656 C 10.933594 18.382812 11.410156 17.898438 11.992188 17.898438 C 12.578125 17.898438 13.050781 18.382812 13.050781 18.972656 C 13.050781 19.566406 12.578125 20.046875 11.992188 20.046875 C 11.410156 20.046875 10.933594 19.566406 10.933594 18.972656 Z M 12.066406 11.761719 C 12.066406 11.449219 12.316406 11.195312 12.625 11.195312 C 12.929688 11.195312 13.179688 11.449219 13.179688 11.761719 C 13.179688 12.066406 12.929688 12.324219 12.625 12.324219 C 12.320312 12.324219 12.066406 12.074219 12.066406 11.761719 Z M 12.066406 11.761719 " clip-rule="evenodd"/></clipPath><linearGradient x1="39.985145" gradientTransform="matrix(0.466273, 0, 0, 0.473588, 3.75, 6.508183)" y1="-0.154479" x2="39.673595" gradientUnits="userSpaceOnUse" y2="52.365337" id="id5"><stop stop-opacity="1" stop-color="rgb(28.199768%, 79.199219%, 48.999023%)" offset="0"/><stop stop-opacity="1" stop-color="rgb(28.199768%, 79.199219%, 48.999023%)" offset="0.00726688"/><stop stop-opacity="1" stop-color="rgb(28.199768%, 79.199219%, 48.999023%)" offset="0.0625"/><stop stop-opacity="1" stop-color="rgb(28.199768%, 79.199219%, 48.999023%)" offset="0.09375"/><stop stop-opacity="1" stop-color="rgb(28.199768%, 79.199219%, 48.999023%)" offset="0.109375"/><stop stop-opacity="1" stop-color="rgb(28.125%, 79.171753%, 49.116516%)" offset="0.117187"/><stop stop-opacity="1" stop-color="rgb(27.919006%, 79.093933%, 49.443054%)" offset="0.121094"/><stop stop-opacity="1" stop-color="rgb(27.787781%, 79.043579%, 49.6521%)" offset="0.125"/><stop stop-opacity="1" stop-color="rgb(27.655029%, 78.993225%, 49.861145%)" offset="0.128906"/><stop stop-opacity="1" stop-color="rgb(27.523804%, 78.944397%, 50.07019%)" offset="0.132812"/><stop stop-opacity="1" stop-color="rgb(27.391052%, 78.894043%, 50.279236%)" offset="0.136719"/><stop stop-opacity="1" stop-color="rgb(27.259827%, 78.845215%, 50.489807%)" offset="0.140625"/><stop stop-opacity="1" stop-color="rgb(27.127075%, 78.794861%, 50.698853%)" offset="0.144531"/><stop stop-opacity="1" stop-color="rgb(26.99585%, 78.746033%, 50.907898%)" offset="0.148437"/><stop stop-opacity="1" stop-color="rgb(26.863098%, 78.695679%, 51.116943%)" offset="0.152344"/><stop stop-opacity="1" stop-color="rgb(26.731873%, 78.646851%, 51.325989%)" offset="0.15625"/><stop stop-opacity="1" stop-color="rgb(26.599121%, 78.596497%, 51.535034%)" offset="0.160156"/><stop stop-opacity="1" stop-color="rgb(26.467896%, 78.547668%, 51.74408%)" offset="0.164062"/><stop stop-opacity="1" stop-color="rgb(26.335144%, 78.497314%, 51.953125%)" offset="0.167969"/><stop stop-opacity="1" stop-color="rgb(26.203918%, 78.448486%, 52.163696%)" offset="0.171875"/><stop stop-opacity="1" stop-color="rgb(26.071167%, 78.398132%, 52.372742%)" offset="0.175781"/><stop stop-opacity="1" stop-color="rgb(25.939941%, 78.349304%, 52.581787%)" offset="0.179687"/><stop stop-opacity="1" stop-color="rgb(25.80719%, 78.29895%, 52.790833%)" offset="0.183594"/><stop stop-opacity="1" stop-color="rgb(25.675964%, 78.250122%, 52.999878%)" offset="0.1875"/><stop stop-opacity="1" stop-color="rgb(25.543213%, 78.199768%, 53.208923%)" offset="0.191406"/><stop stop-opacity="1" stop-color="rgb(25.410461%, 78.15094%, 53.417969%)" offset="0.195312"/><stop stop-opacity="1" stop-color="rgb(25.27771%, 78.100586%, 53.627014%)" offset="0.199219"/><stop stop-opacity="1" stop-color="rgb(25.146484%, 78.051758%, 53.837585%)" offset="0.203125"/><stop stop-opacity="1" stop-color="rgb(25.013733%, 78.001404%, 54.046631%)" offset="0.207031"/><stop stop-opacity="1" stop-color="rgb(24.882507%, 77.952576%, 54.255676%)" offset="0.210938"/><stop stop-opacity="1" stop-color="rgb(24.749756%, 77.902222%, 54.464722%)" offset="0.214844"/><stop stop-opacity="1" stop-color="rgb(24.61853%, 77.853394%, 54.673767%)" offset="0.21875"/><stop stop-opacity="1" stop-color="rgb(24.485779%, 77.80304%, 54.882812%)" offset="0.222656"/><stop stop-opacity="1" stop-color="rgb(24.354553%, 77.754211%, 55.091858%)" offset="0.226562"/><stop stop-opacity="1" stop-color="rgb(24.221802%, 77.703857%, 55.300903%)" offset="0.230469"/><stop stop-opacity="1" stop-color="rgb(24.090576%, 77.655029%, 55.511475%)" offset="0.234375"/><stop stop-opacity="1" stop-color="rgb(23.957825%, 77.604675%, 55.72052%)" offset="0.238281"/><stop stop-opacity="1" stop-color="rgb(23.826599%, 77.555847%, 55.929565%)" offset="0.242188"/><stop stop-opacity="1" stop-color="rgb(23.693848%, 77.505493%, 56.138611%)" offset="0.246094"/><stop stop-opacity="1" stop-color="rgb(23.562622%, 77.456665%, 56.347656%)" offset="0.25"/><stop stop-opacity="1" stop-color="rgb(23.429871%, 77.406311%, 56.556702%)" offset="0.253906"/><stop stop-opacity="1" stop-color="rgb(23.298645%, 77.357483%, 56.765747%)" offset="0.257812"/><stop stop-opacity="1" stop-color="rgb(23.165894%, 77.307129%, 56.974792%)" offset="0.261719"/><stop stop-opacity="1" stop-color="rgb(23.034668%, 77.258301%, 57.185364%)" offset="0.265625"/><stop stop-opacity="1" stop-color="rgb(22.901917%, 77.207947%, 57.394409%)" offset="0.269531"/><stop stop-opacity="1" stop-color="rgb(22.770691%, 77.159119%, 57.603455%)" offset="0.273437"/><stop stop-opacity="1" stop-color="rgb(22.637939%, 77.108765%, 57.8125%)" offset="0.277344"/><stop stop-opacity="1" stop-color="rgb(22.506714%, 77.059937%, 58.021545%)" offset="0.28125"/><stop stop-opacity="1" stop-color="rgb(22.373962%, 77.009583%, 58.230591%)" offset="0.285156"/><stop stop-opacity="1" stop-color="rgb(22.242737%, 76.960754%, 58.439636%)" offset="0.289062"/><stop stop-opacity="1" stop-color="rgb(22.109985%, 76.9104%, 58.648682%)" offset="0.292969"/><stop stop-opacity="1" stop-color="rgb(21.97876%, 76.861572%, 58.857727%)" offset="0.296875"/><stop stop-opacity="1" stop-color="rgb(21.846008%, 76.811218%, 59.066772%)" offset="0.300781"/><stop stop-opacity="1" stop-color="rgb(21.714783%, 76.76239%, 59.277344%)" offset="0.304688"/><stop stop-opacity="1" stop-color="rgb(21.582031%, 76.712036%, 59.486389%)" offset="0.308594"/><stop stop-opacity="1" stop-color="rgb(21.450806%, 76.663208%, 59.695435%)" offset="0.3125"/><stop stop-opacity="1" stop-color="rgb(21.318054%, 76.612854%, 59.90448%)" offset="0.316406"/><stop stop-opacity="1" stop-color="rgb(21.186829%, 76.564026%, 60.113525%)" offset="0.320312"/><stop stop-opacity="1" stop-color="rgb(21.054077%, 76.513672%, 60.322571%)" offset="0.324219"/><stop stop-opacity="1" stop-color="rgb(20.922852%, 76.464844%, 60.531616%)" offset="0.328125"/><stop stop-opacity="1" stop-color="rgb(20.7901%, 76.41449%, 60.740662%)" offset="0.332031"/><stop stop-opacity="1" stop-color="rgb(20.658875%, 76.365662%, 60.951233%)" offset="0.335938"/><stop stop-opacity="1" stop-color="rgb(20.526123%, 76.315308%, 61.160278%)" offset="0.339844"/><stop stop-opacity="1" stop-color="rgb(20.394897%, 76.266479%, 61.369324%)" offset="0.34375"/><stop stop-opacity="1" stop-color="rgb(20.262146%, 76.216125%, 61.578369%)" offset="0.347656"/><stop stop-opacity="1" stop-color="rgb(20.13092%, 76.167297%, 61.787415%)" offset="0.351562"/><stop stop-opacity="1" stop-color="rgb(19.998169%, 76.116943%, 61.99646%)" offset="0.355469"/><stop stop-opacity="1" stop-color="rgb(19.866943%, 76.068115%, 62.205505%)" offset="0.359375"/><stop stop-opacity="1" stop-color="rgb(19.734192%, 76.017761%, 62.414551%)" offset="0.363281"/><stop stop-opacity="1" stop-color="rgb(19.602966%, 75.968933%, 62.625122%)" offset="0.367187"/><stop stop-opacity="1" stop-color="rgb(19.470215%, 75.918579%, 62.834167%)" offset="0.371094"/><stop stop-opacity="1" stop-color="rgb(19.338989%, 75.868225%, 63.043213%)" offset="0.375"/><stop stop-opacity="1" stop-color="rgb(19.206238%, 75.817871%, 63.252258%)" offset="0.378906"/><stop stop-opacity="1" stop-color="rgb(19.075012%, 75.769043%, 63.461304%)" offset="0.382812"/><stop stop-opacity="1" stop-color="rgb(18.942261%, 75.718689%, 63.670349%)" offset="0.386719"/><stop stop-opacity="1" stop-color="rgb(18.811035%, 75.669861%, 63.879395%)" offset="0.390625"/><stop stop-opacity="1" stop-color="rgb(18.678284%, 75.619507%, 64.08844%)" offset="0.394531"/><stop stop-opacity="1" stop-color="rgb(18.547058%, 75.570679%, 64.299011%)" offset="0.398438"/><stop stop-opacity="1" stop-color="rgb(18.414307%, 75.520325%, 64.508057%)" offset="0.402344"/><stop stop-opacity="1" stop-color="rgb(18.283081%, 75.471497%, 64.717102%)" offset="0.40625"/><stop stop-opacity="1" stop-color="rgb(18.15033%, 75.421143%, 64.926147%)" offset="0.410156"/><stop stop-opacity="1" stop-color="rgb(18.019104%, 75.372314%, 65.135193%)" offset="0.414062"/><stop stop-opacity="1" stop-color="rgb(17.886353%, 75.32196%, 65.344238%)" offset="0.417969"/><stop stop-opacity="1" stop-color="rgb(17.755127%, 75.273132%, 65.553284%)" offset="0.421875"/><stop stop-opacity="1" stop-color="rgb(17.622375%, 75.222778%, 65.762329%)" offset="0.425781"/><stop stop-opacity="1" stop-color="rgb(17.49115%, 75.17395%, 65.9729%)" offset="0.429688"/><stop stop-opacity="1" stop-color="rgb(17.358398%, 75.123596%, 66.181946%)" offset="0.433594"/><stop stop-opacity="1" stop-color="rgb(17.227173%, 75.074768%, 66.390991%)" offset="0.4375"/><stop stop-opacity="1" stop-color="rgb(17.094421%, 75.024414%, 66.600037%)" offset="0.441406"/><stop stop-opacity="1" stop-color="rgb(16.963196%, 74.975586%, 66.809082%)" offset="0.445312"/><stop stop-opacity="1" stop-color="rgb(16.830444%, 74.925232%, 67.018127%)" offset="0.449219"/><stop stop-opacity="1" stop-color="rgb(16.699219%, 74.876404%, 67.227173%)" offset="0.453125"/><stop stop-opacity="1" stop-color="rgb(16.566467%, 74.82605%, 67.436218%)" offset="0.457031"/><stop stop-opacity="1" stop-color="rgb(16.435242%, 74.777222%, 67.64679%)" offset="0.460937"/><stop stop-opacity="1" stop-color="rgb(16.30249%, 74.726868%, 67.855835%)" offset="0.464844"/><stop stop-opacity="1" stop-color="rgb(16.171265%, 74.67804%, 68.06488%)" offset="0.46875"/><stop stop-opacity="1" stop-color="rgb(16.038513%, 74.627686%, 68.273926%)" offset="0.472656"/><stop stop-opacity="1" stop-color="rgb(15.907288%, 74.578857%, 68.482971%)" offset="0.476562"/><stop stop-opacity="1" stop-color="rgb(15.774536%, 74.528503%, 68.692017%)" offset="0.480469"/><stop stop-opacity="1" stop-color="rgb(15.643311%, 74.479675%, 68.901062%)" offset="0.484375"/><stop stop-opacity="1" stop-color="rgb(15.510559%, 74.429321%, 69.110107%)" offset="0.488281"/><stop stop-opacity="1" stop-color="rgb(15.379333%, 74.380493%, 69.319153%)" offset="0.492187"/><stop stop-opacity="1" stop-color="rgb(15.246582%, 74.330139%, 69.528198%)" offset="0.496094"/><stop stop-opacity="1" stop-color="rgb(15.115356%, 74.281311%, 69.73877%)" offset="0.5"/><stop stop-opacity="1" stop-color="rgb(14.982605%, 74.230957%, 69.947815%)" offset="0.503906"/><stop stop-opacity="1" stop-color="rgb(14.851379%, 74.182129%, 70.15686%)" offset="0.507812"/><stop stop-opacity="1" stop-color="rgb(14.718628%, 74.131775%, 70.365906%)" offset="0.511719"/><stop stop-opacity="1" stop-color="rgb(14.587402%, 74.082947%, 70.574951%)" offset="0.515625"/><stop stop-opacity="1" stop-color="rgb(14.454651%, 74.032593%, 70.783997%)" offset="0.519531"/><stop stop-opacity="1" stop-color="rgb(14.323425%, 73.983765%, 70.993042%)" offset="0.523438"/><stop stop-opacity="1" stop-color="rgb(14.190674%, 73.933411%, 71.202087%)" offset="0.527344"/><stop stop-opacity="1" stop-color="rgb(14.059448%, 73.884583%, 71.412659%)" offset="0.53125"/><stop stop-opacity="1" stop-color="rgb(13.926697%, 73.834229%, 71.621704%)" offset="0.535156"/><stop stop-opacity="1" stop-color="rgb(13.795471%, 73.7854%, 71.83075%)" offset="0.539062"/><stop stop-opacity="1" stop-color="rgb(13.66272%, 73.735046%, 72.039795%)" offset="0.542969"/><stop stop-opacity="1" stop-color="rgb(13.531494%, 73.686218%, 72.24884%)" offset="0.546875"/><stop stop-opacity="1" stop-color="rgb(13.398743%, 73.635864%, 72.457886%)" offset="0.550781"/><stop stop-opacity="1" stop-color="rgb(13.267517%, 73.587036%, 72.666931%)" offset="0.554688"/><stop stop-opacity="1" stop-color="rgb(13.134766%, 73.536682%, 72.875977%)" offset="0.558594"/><stop stop-opacity="1" stop-color="rgb(13.00354%, 73.487854%, 73.086548%)" offset="0.5625"/><stop stop-opacity="1" stop-color="rgb(12.870789%, 73.4375%, 73.295593%)" offset="0.566406"/><stop stop-opacity="1" stop-color="rgb(12.739563%, 73.388672%, 73.504639%)" offset="0.570312"/><stop stop-opacity="1" stop-color="rgb(12.606812%, 73.338318%, 73.713684%)" offset="0.574219"/><stop stop-opacity="1" stop-color="rgb(12.475586%, 73.28949%, 73.922729%)" offset="0.578125"/><stop stop-opacity="1" stop-color="rgb(12.342834%, 73.239136%, 74.131775%)" offset="0.582031"/><stop stop-opacity="1" stop-color="rgb(12.211609%, 73.190308%, 74.34082%)" offset="0.585938"/><stop stop-opacity="1" stop-color="rgb(12.078857%, 73.139954%, 74.549866%)" offset="0.589844"/><stop stop-opacity="1" stop-color="rgb(11.947632%, 73.091125%, 74.760437%)" offset="0.59375"/><stop stop-opacity="1" stop-color="rgb(11.81488%, 73.040771%, 74.969482%)" offset="0.597656"/><stop stop-opacity="1" stop-color="rgb(11.683655%, 72.991943%, 75.178528%)" offset="0.601562"/><stop stop-opacity="1" stop-color="rgb(11.550903%, 72.941589%, 75.387573%)" offset="0.605469"/><stop stop-opacity="1" stop-color="rgb(11.419678%, 72.892761%, 75.596619%)" offset="0.609375"/><stop stop-opacity="1" stop-color="rgb(11.286926%, 72.842407%, 75.805664%)" offset="0.613281"/><stop stop-opacity="1" stop-color="rgb(11.155701%, 72.792053%, 76.014709%)" offset="0.617188"/><stop stop-opacity="1" stop-color="rgb(11.022949%, 72.741699%, 76.223755%)" offset="0.621094"/><stop stop-opacity="1" stop-color="rgb(10.891724%, 72.692871%, 76.434326%)" offset="0.625"/><stop stop-opacity="1" stop-color="rgb(10.758972%, 72.642517%, 76.643372%)" offset="0.628906"/><stop stop-opacity="1" stop-color="rgb(10.627747%, 72.593689%, 76.852417%)" offset="0.632812"/><stop stop-opacity="1" stop-color="rgb(10.494995%, 72.543335%, 77.061462%)" offset="0.636719"/><stop stop-opacity="1" stop-color="rgb(10.36377%, 72.494507%, 77.270508%)" offset="0.640625"/><stop stop-opacity="1" stop-color="rgb(10.231018%, 72.444153%, 77.479553%)" offset="0.644531"/><stop stop-opacity="1" stop-color="rgb(10.099792%, 72.395325%, 77.688599%)" offset="0.648438"/><stop stop-opacity="1" stop-color="rgb(9.967041%, 72.344971%, 77.897644%)" offset="0.652344"/><stop stop-opacity="1" stop-color="rgb(9.835815%, 72.296143%, 78.106689%)" offset="0.65625"/><stop stop-opacity="1" stop-color="rgb(9.703064%, 72.245789%, 78.315735%)" offset="0.660156"/><stop stop-opacity="1" stop-color="rgb(9.571838%, 72.19696%, 78.526306%)" offset="0.664062"/><stop stop-opacity="1" stop-color="rgb(9.439087%, 72.146606%, 78.735352%)" offset="0.667969"/><stop stop-opacity="1" stop-color="rgb(9.307861%, 72.097778%, 78.944397%)" offset="0.671875"/><stop stop-opacity="1" stop-color="rgb(9.17511%, 72.047424%, 79.153442%)" offset="0.675781"/><stop stop-opacity="1" stop-color="rgb(9.043884%, 71.998596%, 79.362488%)" offset="0.679688"/><stop stop-opacity="1" stop-color="rgb(8.911133%, 71.948242%, 79.571533%)" offset="0.683594"/><stop stop-opacity="1" stop-color="rgb(8.779907%, 71.899414%, 79.780579%)" offset="0.6875"/><stop stop-opacity="1" stop-color="rgb(8.647156%, 71.84906%, 79.989624%)" offset="0.691406"/><stop stop-opacity="1" stop-color="rgb(8.51593%, 71.800232%, 80.200195%)" offset="0.695312"/><stop stop-opacity="1" stop-color="rgb(8.383179%, 71.749878%, 80.409241%)" offset="0.699219"/><stop stop-opacity="1" stop-color="rgb(8.251953%, 71.70105%, 80.618286%)" offset="0.703125"/><stop stop-opacity="1" stop-color="rgb(8.119202%, 71.650696%, 80.827332%)" offset="0.707031"/><stop stop-opacity="1" stop-color="rgb(7.987976%, 71.601868%, 81.036377%)" offset="0.710938"/><stop stop-opacity="1" stop-color="rgb(7.855225%, 71.551514%, 81.245422%)" offset="0.714844"/><stop stop-opacity="1" stop-color="rgb(7.723999%, 71.502686%, 81.454468%)" offset="0.71875"/><stop stop-opacity="1" stop-color="rgb(7.591248%, 71.452332%, 81.663513%)" offset="0.722656"/><stop stop-opacity="1" stop-color="rgb(7.460022%, 71.403503%, 81.874084%)" offset="0.726562"/><stop stop-opacity="1" stop-color="rgb(7.327271%, 71.353149%, 82.08313%)" offset="0.730469"/><stop stop-opacity="1" stop-color="rgb(7.196045%, 71.304321%, 82.292175%)" offset="0.734375"/><stop stop-opacity="1" stop-color="rgb(7.063293%, 71.253967%, 82.501221%)" offset="0.738281"/><stop stop-opacity="1" stop-color="rgb(6.932068%, 71.205139%, 82.710266%)" offset="0.742188"/><stop stop-opacity="1" stop-color="rgb(6.799316%, 71.154785%, 82.919312%)" offset="0.746094"/><stop stop-opacity="1" stop-color="rgb(6.668091%, 71.105957%, 83.128357%)" offset="0.75"/><stop stop-opacity="1" stop-color="rgb(6.535339%, 71.055603%, 83.337402%)" offset="0.753906"/><stop stop-opacity="1" stop-color="rgb(6.404114%, 71.006775%, 83.547974%)" offset="0.757812"/><stop stop-opacity="1" stop-color="rgb(6.271362%, 70.956421%, 83.757019%)" offset="0.761719"/><stop stop-opacity="1" stop-color="rgb(6.140137%, 70.907593%, 83.966064%)" offset="0.765625"/><stop stop-opacity="1" stop-color="rgb(6.007385%, 70.857239%, 84.17511%)" offset="0.769531"/><stop stop-opacity="1" stop-color="rgb(5.87616%, 70.808411%, 84.384155%)" offset="0.773438"/><stop stop-opacity="1" stop-color="rgb(5.743408%, 70.758057%, 84.593201%)" offset="0.777344"/><stop stop-opacity="1" stop-color="rgb(5.612183%, 70.709229%, 84.802246%)" offset="0.78125"/><stop stop-opacity="1" stop-color="rgb(5.479431%, 70.658875%, 85.011292%)" offset="0.785156"/><stop stop-opacity="1" stop-color="rgb(5.348206%, 70.610046%, 85.221863%)" offset="0.789062"/><stop stop-opacity="1" stop-color="rgb(5.215454%, 70.559692%, 85.430908%)" offset="0.792969"/><stop stop-opacity="1" stop-color="rgb(5.084229%, 70.510864%, 85.639954%)" offset="0.796875"/><stop stop-opacity="1" stop-color="rgb(4.951477%, 70.46051%, 85.848999%)" offset="0.800781"/><stop stop-opacity="1" stop-color="rgb(4.820251%, 70.411682%, 86.058044%)" offset="0.804688"/><stop stop-opacity="1" stop-color="rgb(4.6875%, 70.361328%, 86.26709%)" offset="0.808594"/><stop stop-opacity="1" stop-color="rgb(4.556274%, 70.3125%, 86.476135%)" offset="0.8125"/><stop stop-opacity="1" stop-color="rgb(4.423523%, 70.262146%, 86.685181%)" offset="0.816406"/><stop stop-opacity="1" stop-color="rgb(4.292297%, 70.213318%, 86.895752%)" offset="0.820312"/><stop stop-opacity="1" stop-color="rgb(4.159546%, 70.162964%, 87.104797%)" offset="0.824219"/><stop stop-opacity="1" stop-color="rgb(4.02832%, 70.114136%, 87.313843%)" offset="0.828125"/><stop stop-opacity="1" stop-color="rgb(3.895569%, 70.063782%, 87.522888%)" offset="0.832031"/><stop stop-opacity="1" stop-color="rgb(3.764343%, 70.014954%, 87.731934%)" offset="0.835938"/><stop stop-opacity="1" stop-color="rgb(3.631592%, 69.9646%, 87.940979%)" offset="0.839844"/><stop stop-opacity="1" stop-color="rgb(3.500366%, 69.915771%, 88.150024%)" offset="0.84375"/><stop stop-opacity="1" stop-color="rgb(3.367615%, 69.865417%, 88.35907%)" offset="0.847656"/><stop stop-opacity="1" stop-color="rgb(3.236389%, 69.816589%, 88.568115%)" offset="0.851562"/><stop stop-opacity="1" stop-color="rgb(3.103638%, 69.766235%, 88.777161%)" offset="0.855469"/><stop stop-opacity="1" stop-color="rgb(2.972412%, 69.715881%, 88.987732%)" offset="0.859375"/><stop stop-opacity="1" stop-color="rgb(2.839661%, 69.665527%, 89.196777%)" offset="0.863281"/><stop stop-opacity="1" stop-color="rgb(2.708435%, 69.616699%, 89.405823%)" offset="0.867188"/><stop stop-opacity="1" stop-color="rgb(2.575684%, 69.566345%, 89.614868%)" offset="0.871094"/><stop stop-opacity="1" stop-color="rgb(2.444458%, 69.517517%, 89.823914%)" offset="0.875"/><stop stop-opacity="1" stop-color="rgb(2.311707%, 69.467163%, 90.032959%)" offset="0.878906"/><stop stop-opacity="1" stop-color="rgb(2.180481%, 69.418335%, 90.242004%)" offset="0.882812"/><stop stop-opacity="1" stop-color="rgb(2.047729%, 69.367981%, 90.45105%)" offset="0.886719"/><stop stop-opacity="1" stop-color="rgb(1.916504%, 69.319153%, 90.661621%)" offset="0.890625"/><stop stop-opacity="1" stop-color="rgb(1.783752%, 69.268799%, 90.870667%)" offset="0.894531"/><stop stop-opacity="1" stop-color="rgb(1.652527%, 69.219971%, 91.079712%)" offset="0.898437"/><stop stop-opacity="1" stop-color="rgb(1.519775%, 69.169617%, 91.288757%)" offset="0.902344"/><stop stop-opacity="1" stop-color="rgb(1.38855%, 69.120789%, 91.497803%)" offset="0.90625"/><stop stop-opacity="1" stop-color="rgb(1.255798%, 69.070435%, 91.706848%)" offset="0.910156"/><stop stop-opacity="1" stop-color="rgb(1.124573%, 69.021606%, 91.915894%)" offset="0.914062"/><stop stop-opacity="1" stop-color="rgb(0.991821%, 68.971252%, 92.124939%)" offset="0.917969"/><stop stop-opacity="1" stop-color="rgb(0.860596%, 68.922424%, 92.33551%)" offset="0.921875"/><stop stop-opacity="1" stop-color="rgb(0.727844%, 68.87207%, 92.544556%)" offset="0.925781"/><stop stop-opacity="1" stop-color="rgb(0.596619%, 68.823242%, 92.753601%)" offset="0.929688"/><stop stop-opacity="1" stop-color="rgb(0.463867%, 68.772888%, 92.962646%)" offset="0.933594"/><stop stop-opacity="1" stop-color="rgb(0.332642%, 68.72406%, 93.171692%)" offset="0.9375"/><stop stop-opacity="1" stop-color="rgb(0.19989%, 68.673706%, 93.380737%)" offset="0.941406"/><stop stop-opacity="1" stop-color="rgb(0.0686646%, 68.624878%, 93.589783%)" offset="0.945312"/><stop stop-opacity="1" stop-color="rgb(0.0335693%, 68.611145%, 93.644714%)" offset="0.953125"/><stop stop-opacity="1" stop-color="rgb(0%, 68.598938%, 93.699646%)" offset="0.96875"/><stop stop-opacity="1" stop-color="rgb(0%, 68.598938%, 93.699646%)" offset="0.992733"/><stop stop-opacity="1" stop-color="rgb(0%, 68.598938%, 93.699646%)" offset="1"/></linearGradient></defs><g clip-path="url(#id1)"><path fill="#0f2d3d" d="M 2.503906 1.101562 L 34.757812 1.101562 C 35.15625 1.101562 35.535156 1.261719 35.816406 1.542969 C 36.097656 1.824219 36.257812 2.203125 36.257812 2.601562 L 36.257812 34.855469 C 36.257812 35.253906 36.097656 35.632812 35.816406 35.914062 C 35.535156 36.195312 35.15625 36.351562 34.757812 36.351562 L 2.503906 36.351562 C 2.105469 36.351562 1.726562 36.195312 1.445312 35.914062 C 1.164062 35.632812 1.007812 35.253906 1.007812 34.855469 L 1.007812 2.601562 C 1.007812 2.203125 1.164062 1.824219 1.445312 1.542969 C 1.726562 1.261719 2.105469 1.101562 2.503906 1.101562 " fill-opacity="1" fill-rule="nonzero"/></g><g clip-path="url(#id2)"><path fill="#0f2d3d" d="M 0 0 L 37.5 0 L 37.5 37.5 L 0 37.5 L 0 0 " fill-opacity="1" fill-rule="nonzero"/></g><g clip-path="url(#id3)"><g clip-path="url(#id4)"><path fill="url(#id5)" d="M 3.75 6.503906 L 3.75 31.195312 L 33.75 31.195312 L 33.75 6.503906 Z M 3.75 6.503906 " fill-rule="nonzero"/></g></g></svg>